<svg width="26" height="18" viewBox="0 0 26 18" fill="none" xmlns="http://www.w3.org/2000/svg">
<path d="M5.57143 14.5714H20.1429C21.3214 14.5714 22.2857 13.6071 22.2857 12.4286V3C22.2857 1.82143 21.3214 0.857142 20.1429 0.857142H5.57143C4.39286 0.857142 3.42857 1.82143 3.42857 3V12.4286C3.42857 13.6071 4.39286 14.5714 5.57143 14.5714ZM5.14286 3C5.14286 2.77232 5.34375 2.57143 5.57143 2.57143H20.1429C20.3705 2.57143 20.5714 2.77232 20.5714 3V12.4286C20.5714 12.6562 20.3705 12.8571 20.1429 12.8571H5.57143C5.34375 12.8571 5.14286 12.6562 5.14286 12.4286V3ZM23.5714 15.4286H2.14286H0V16.7143C0 17.4241 0.964286 18 2.14286 18H23.5714C24.75 18 25.7143 17.4241 25.7143 16.7143V15.4286H23.5714ZM13.9286 16.7143H11.7857C11.6652 16.7143 11.5714 16.6205 11.5714 16.5C11.5714 16.3795 11.6652 16.2857 11.7857 16.2857H13.9286C14.0491 16.2857 14.1429 16.3795 14.1429 16.5C14.1429 16.6205 14.0491 16.7143 13.9286 16.7143Z" fill="#2C4948"/>
</svg>
