<svg width="250" height="211" viewBox="0 0 250 211" fill="none" xmlns="http://www.w3.org/2000/svg">
<g clip-path="url(#clip0)">
<path d="M217.513 189.063L217.108 187.486L212.536 188.658L212.94 190.236L217.513 189.063Z" fill="#5793CE"/>
<path d="M215.153 191.332L214.75 189.755L210.177 190.927L210.581 192.504L215.153 191.332Z" fill="#5793CE"/>
<path d="M212.813 193.607L212.409 192.03L207.837 193.202L208.241 194.779L212.813 193.607Z" fill="#5793CE"/>
<path d="M210.517 195.897L210.113 194.32L205.54 195.492L205.944 197.07L210.517 195.897Z" fill="#5793CE"/>
<path d="M116.254 46.936L73.319 72.1432C62.4298 68.8015 48.5584 69.833 39.4074 75.212C28.2711 81.7418 28.3307 92.2611 39.5692 98.5949C42.2268 100.071 45.0693 101.186 48.0216 101.911C50.2272 102.466 52.4717 102.854 54.7357 103.07C63.6652 103.923 73.1911 102.346 80.0672 98.3136C88.3832 93.429 90.4452 86.3792 86.2701 80.412L92.2345 76.934L92.064 73.1746H98.3011L98.1392 69.6455L104.376 69.6028L104.223 66.0822H110.451L110.298 62.553H116.535L116.373 59.0324L123.036 58.9812L125.064 57.7963L127.305 48.5387L116.254 46.936ZM55.8349 95.168C54.2069 96.0069 52.4043 96.4502 50.5731 96.4621C48.7419 96.4739 46.9337 96.054 45.295 95.2362C42.3725 93.5824 42.3469 90.8546 45.295 89.1497C46.923 88.3108 48.7256 87.8674 50.5568 87.8556C52.388 87.8437 54.1962 88.2637 55.8349 89.0815C58.7148 90.7352 58.7318 93.4631 55.8349 95.168Z" fill="#C4D9E8"/>
<path d="M139.736 206.38L81.8393 173.049C77.9369 170.798 78.4311 166.868 82.9299 164.26L139.165 131.798C143.664 129.241 150.472 128.917 154.374 131.167L212.314 164.481C216.216 166.732 215.722 170.662 211.223 173.27L154.988 205.732C150.455 208.349 143.647 208.63 139.736 206.38Z" fill="#C4D9E8"/>
<path d="M207.644 130.852L197.676 125.072L234.586 103.761C236.333 102.755 236.333 101.118 234.586 100.112L196.823 78.3151C195.845 77.8152 194.761 77.5546 193.662 77.5546C192.563 77.5546 191.48 77.8152 190.501 78.3151L153.582 99.6265L143.57 93.8383L180.49 72.5269C187.749 68.3328 199.567 68.3328 206.835 72.5269L244.538 94.3072C251.798 98.5098 251.798 105.338 244.538 109.532L207.644 130.852Z" fill="#5793CE"/>
<path d="M223.799 133.401C223.799 128.047 220.545 121.824 216.531 119.506L149.646 80.8724C147.848 79.8324 146.237 79.7642 144.934 80.4717L65.0796 126.897L142.292 185.111L220.962 139.428C221.209 139.319 221.443 139.185 221.661 139.027C222.981 138.03 223.799 136.077 223.799 133.401Z" fill="#D4ECFF"/>
<path d="M142.292 185.111L220.962 139.428C221.209 139.319 221.443 139.185 221.661 139.027C222.973 138.03 223.791 136.077 223.791 133.401C223.729 130.706 223.059 128.06 221.831 125.66L132.153 177.464L142.292 185.111Z" fill="#173D7A"/>
<path d="M137.274 184.906L70.3879 146.273C66.3747 143.954 63.1199 137.748 63.1199 132.378C63.1199 127.025 66.3747 124.561 70.3879 126.88L137.274 165.513C141.287 167.832 144.542 174.038 144.542 179.408C144.542 184.761 141.287 187.225 137.274 184.906Z" fill="#5793CE"/>
<path d="M127.254 171.872L119.21 167.235C118.769 166.919 118.408 166.503 118.156 166.022C117.905 165.541 117.77 165.007 117.762 164.464C117.762 163.399 118.409 162.904 119.21 163.373L127.254 168.01C127.695 168.327 128.056 168.742 128.307 169.223C128.559 169.704 128.694 170.238 128.702 170.781C128.702 171.847 128.054 172.341 127.254 171.872Z" fill="white"/>
<path d="M66.8773 35.8371L80.6209 43.6456L94.6371 35.4109L94.603 31.8306L94.4837 31.9073L94.4667 31.6516L100.704 31.6089L100.67 28.0798L106.787 28.0371L106.745 24.5165L112.862 24.4739L112.828 20.9447L118.938 20.9021L118.903 17.3814L125.439 17.3303L127.475 16.1368L129.716 6.88769L129.673 3.30737L128.6 6.73425L118.699 5.41294L66.8773 35.8371Z" fill="#396CAA"/>
<path d="M80.5783 40.0654L94.603 31.8307L94.4326 28.0714L100.67 28.0287L100.508 24.4996L106.745 24.457L106.591 20.9363L112.828 20.8937L112.666 17.3645L118.903 17.3219L118.75 13.8013L125.405 13.7501L127.433 12.5567L129.673 3.30751L118.665 1.83276L66.8347 32.2569L80.5783 40.0654Z" fill="#D4ECFF"/>
<path d="M89.9168 34.584C88.2232 32.3093 86.0502 30.4351 83.552 29.0942C81.4652 27.9263 79.2565 26.9915 76.9656 26.3066L66.8433 32.2738L80.5783 40.0653L89.9168 34.584Z" fill="#396CAA"/>
<path d="M129.299 4.85899L129.674 3.30752L127.833 3.0603L84.0463 28.7619L86.3468 30.0746L129.299 4.85899Z" fill="#5793CE"/>
<path d="M33.6645 47.1321L33.5111 42.043L35.1385 45.4784L33.6645 47.1321Z" fill="#D3D0CF"/>
<path d="M42.1253 58.5807C53.3554 64.957 71.487 64.8292 82.6488 58.2993C88.2298 55.0174 90.9904 50.7551 90.9478 46.5099L90.7944 41.1224L89.8827 42.1368C88.5876 39.4771 86.1252 37.022 82.4784 34.9079C71.2569 28.523 53.1253 28.6509 41.989 35.1893C30.8527 41.7276 30.9038 52.1958 42.1253 58.5807ZM58.3143 49.0587C61.2368 50.7636 61.2539 53.4489 58.3143 55.1453C56.6876 55.9875 54.8851 56.4334 53.0535 56.4467C51.222 56.46 49.4132 56.0404 47.7744 55.222C44.8519 53.5171 44.8263 50.8318 47.7744 49.1354C49.4055 48.2876 51.2142 47.8386 53.0522 47.8253C54.8902 47.812 56.7052 48.2347 58.3484 49.0587H58.3143Z" fill="#396CAA"/>
<path d="M41.9805 53.4915C53.202 59.8764 71.3336 59.7485 82.4699 53.2102C93.6062 46.6718 93.5466 36.161 82.308 29.8188C71.0695 23.4765 52.9464 23.5702 41.8101 30.1001C30.6738 36.6299 30.7505 47.1151 41.9805 53.4915ZM58.1695 43.9695C61.092 45.6744 61.109 48.3597 58.1695 50.0646C56.5525 50.8896 54.7653 51.3253 52.9502 51.3372C51.1352 51.349 49.3424 50.9366 47.7148 50.1328C44.7923 48.4279 44.7752 45.7512 47.7148 44.0462C49.3344 43.2158 51.1259 42.7763 52.9458 42.763C54.7657 42.7496 56.5634 43.1629 58.195 43.9695H58.1695Z" fill="#F2F2F2"/>
<path d="M54.9914 56.262C52.5597 56.6877 50.0555 56.317 47.8512 55.205C45.7552 54.0116 45.1588 52.2811 46.0534 50.7637L40.9411 46.7231L35.6499 40.7559C31.56 46.7231 33.7157 53.7984 42.0999 58.5722C46.0067 60.6836 50.2761 62.0399 54.6847 62.5702L54.9914 56.262Z" fill="#5793CE"/>
<path d="M41.9805 53.4915C44.6344 54.9692 47.4743 56.0845 50.4243 56.8075C52.6301 57.3621 54.8745 57.7497 57.1385 57.9669C66.068 58.8193 75.6024 57.2423 82.4699 53.2102C93.6062 46.6718 93.5466 36.161 82.308 29.8188C71.0695 23.4765 52.9464 23.5702 41.8101 30.1001C30.6738 36.6299 30.7505 47.1151 41.9805 53.4915ZM58.1695 43.9695C61.092 45.6744 61.109 48.3597 58.1695 50.0646C56.5525 50.8896 54.7653 51.3253 52.9502 51.3372C51.1352 51.349 49.3424 50.9366 47.7148 50.1328C44.7923 48.4279 44.7752 45.7512 47.7148 44.0462C49.3344 43.2158 51.1259 42.7763 52.9458 42.763C54.7657 42.7496 56.5634 43.1629 58.195 43.9695H58.1695Z" fill="#D4ECFF"/>
<path d="M36.6382 41.9067C37.1835 38.6418 39.6033 35.4621 43.9062 32.9303C53.807 27.1166 69.9363 26.9631 79.9308 32.6831C84.8898 35.5047 87.4033 39.2215 87.4544 42.9637C88.1702 38.7015 85.6992 34.3369 80.0501 31.1231C70.0556 25.4458 53.9263 25.5651 44.0169 31.3789C39.075 34.3028 36.6382 38.1133 36.6382 41.9067Z" fill="#396CAA"/>
<path d="M29.9155 88.1951C27.9492 88.213 26.0127 87.7132 24.3004 86.7459C20.2788 84.4614 18.0379 79.8751 17.9953 73.8227C17.893 62.7834 25.5615 49.2634 35.113 43.6713C40.3275 40.611 45.4142 40.1848 49.4189 42.4694C51.1518 43.4657 52.5895 44.9041 53.5854 46.6379C55.0648 49.3203 55.8086 52.3467 55.7411 55.4096C55.8178 66.4404 48.1408 79.9689 38.6234 85.5525C36.0068 87.1914 33.0012 88.1035 29.9155 88.1951ZM43.8124 45.0779C41.4516 45.1746 39.1585 45.8952 37.1664 47.1664C28.7567 52.1021 21.9743 64.045 22.0425 73.7971C22.0425 78.3407 23.5847 81.6823 26.3028 83.2253C29.0208 84.7682 32.6591 84.3932 36.5785 82.0574C44.9797 77.1217 51.762 65.1788 51.6938 55.4096C51.7595 53.0652 51.2133 50.7441 50.109 48.6752C49.4673 47.5754 48.5475 46.664 47.4421 46.0326C46.3354 45.4049 45.0846 45.0759 43.8124 45.0779Z" fill="#396CAA"/>
<path d="M49.0952 54.0371L57.0874 55.9977L58.2377 50.0305C56.6146 50.8719 54.8164 51.3196 52.9884 51.3374C51.1605 51.3551 49.354 50.9425 47.7148 50.1328L49.0952 54.0371Z" fill="#D4ECFF"/>
<path d="M41.9806 53.4915C44.6345 54.9692 47.4744 56.0845 50.4244 56.8075C52.6302 57.3621 54.8746 57.7497 57.1386 57.9669C66.068 58.8193 75.6025 57.2423 82.47 53.2102L49.9217 52.4771L41.9806 53.4915Z" fill="#D4ECFF"/>
<path d="M54.003 57.6004C51.6055 57.1768 49.2441 56.5698 46.9395 55.7847V60.7801C49.2055 61.5905 51.5415 62.1898 53.9177 62.5702C61.3476 63.5505 54.003 57.6004 54.003 57.6004Z" fill="#396CAA"/>
<path d="M48.8139 56.3814C47.2393 55.9303 45.7012 55.3604 44.2129 54.6764C39.8589 52.6391 45.3631 60.1918 45.3631 60.1918C45.3631 60.1918 46.8457 60.78 48.7713 61.3853L48.8139 56.3814Z" fill="#5793CE"/>
<path d="M113.254 190.567C113.254 190.567 109.156 188.495 106.634 191.581C104.112 194.667 100.516 201.938 100.406 206.857C100.295 211.776 104.291 211.435 106.668 210.267C109.045 209.099 115.99 199.023 116.416 197.045C116.842 195.068 115.913 192.399 115.248 191.879C114.584 191.359 113.254 190.567 113.254 190.567Z" fill="#173D7A"/>
<path d="M114.175 189.578L114.362 193.84C114.387 194.282 114.288 194.723 114.078 195.113C113.867 195.503 113.553 195.826 113.169 196.048C112.203 196.578 111.081 196.753 110 196.542C106.907 196.048 106.634 195.161 106.412 190.916C106.191 186.671 114.175 189.578 114.175 189.578Z" fill="#5793CE"/>
<path d="M98.2414 182.426C98.2414 182.426 94.1345 180.354 91.621 183.44C89.1074 186.526 85.4947 193.797 85.384 198.707C85.2732 203.618 89.2693 203.294 91.6551 202.117C94.0408 200.941 100.976 190.873 101.394 188.896C101.811 186.918 100.9 184.25 100.235 183.73C99.5706 183.21 98.2414 182.426 98.2414 182.426Z" fill="#173D7A"/>
<path d="M99.136 181.403L99.3235 185.665C99.3464 186.108 99.2463 186.549 99.0342 186.938C98.8222 187.328 98.5065 187.651 98.1221 187.873C97.1592 188.404 96.04 188.579 94.961 188.367C91.868 187.873 91.5528 186.986 91.3738 182.732C91.1949 178.479 99.136 181.403 99.136 181.403Z" fill="#5793CE"/>
<path d="M135.74 103.335C134.522 83.5663 114.345 106.242 114.345 106.242L100.542 119.787L88.102 133.426C86.9013 134.745 86.0032 136.31 85.4704 138.012C84.9376 139.715 84.7831 141.513 85.0176 143.281L90.0447 181.641C90.1636 182.555 90.6137 183.393 91.3096 183.997C92.0054 184.6 92.8985 184.927 93.8193 184.915C94.4445 184.909 95.0683 184.855 95.6853 184.753C96.8854 184.621 97.9883 184.031 98.7633 183.105C99.5382 182.178 99.9252 180.988 99.8433 179.783L98.923 143.937L125.038 128.184C125.038 128.184 136.95 123.103 135.74 103.335Z" fill="#D4ECFF"/>
<path d="M108.892 137.16L105.177 135.796C105.092 135.796 98.8548 141.823 98.9145 143.937L101.709 144.832L108.73 138.013L108.892 137.16Z" fill="#5793CE"/>
<path d="M130.475 144.167C130.475 144.167 145.999 135.302 147.856 131.585C148.581 130.127 149.714 128.61 145.181 126.411L124.485 141.167L125.379 146.281L130.475 144.167Z" fill="#5793CE"/>
<path d="M150.753 110.964C149.458 91.2041 129.358 113.871 129.358 113.871L115.546 127.416L103.106 141.056C101.908 142.376 101.011 143.941 100.478 145.643C99.9455 147.345 99.7898 149.142 100.022 150.91L105.049 189.271C105.172 190.184 105.624 191.021 106.321 191.624C107.018 192.227 107.911 192.554 108.832 192.544C109.454 192.534 110.075 192.48 110.69 192.382C111.89 192.251 112.993 191.66 113.768 190.734C114.543 189.808 114.93 188.618 114.848 187.412L113.927 151.558L140.051 135.805C140.051 135.805 151.937 129.028 150.753 110.964Z" fill="#D4ECFF"/>
<path d="M138.816 47.422C154.153 53.7643 153.812 62.8174 153.812 62.8174C153.812 62.8174 150.813 95.9864 151.835 118.142C152.261 127.399 102.655 128.107 110.085 103.403C118.81 74.2659 115.538 50.6869 119.619 47.1407C123.701 43.5945 134.862 45.7768 138.816 47.422Z" fill="#5793CE"/>
<path d="M143.741 55.4097C142.94 58.5126 138.867 60.1579 134.649 59.0667C130.432 57.9756 127.654 54.5743 128.455 51.4713C129.256 48.3684 133.329 46.7231 137.546 47.8143C141.764 48.9054 144.542 52.3323 143.741 55.4097Z" fill="#FFC2B0"/>
<path d="M137.231 60.1662C136.3 60.1626 135.372 60.0423 134.471 59.8082C132.38 59.3091 130.501 58.1601 129.103 56.5262C128.478 55.8289 128.03 54.9924 127.794 54.0864C127.558 53.1803 127.543 52.2311 127.748 51.3177C128.6 47.8312 133.124 45.9472 137.725 47.1407C139.816 47.6398 141.696 48.7887 143.093 50.4226C143.717 51.1187 144.165 51.9537 144.401 52.8583C144.637 53.7628 144.653 54.7106 144.448 55.6226C143.732 58.4102 140.742 60.1662 137.231 60.1662ZM134.931 48.2318C132.085 48.2318 129.708 49.5531 129.162 51.6417C129.018 52.3323 129.04 53.0474 129.226 53.7279C129.413 54.4083 129.759 55.0345 130.236 55.5544C131.434 56.9473 133.041 57.9259 134.829 58.3505C138.654 59.3308 142.335 57.9328 143.034 55.2134C143.177 54.5241 143.154 53.8106 142.968 53.1318C142.781 52.453 142.436 51.8283 141.96 51.3092C140.753 49.942 139.146 48.9904 137.368 48.5899C136.573 48.372 135.754 48.2546 134.931 48.2404V48.2318Z" fill="white"/>
<path d="M132.681 46.7315C132.774 48.5536 132.731 50.38 132.553 52.1957C132.468 53.7216 137.802 55.1452 139.182 53.7643C140.563 52.3833 140.034 50.9512 140.341 45.7597C140.648 40.5682 132.681 46.7315 132.681 46.7315Z" fill="#FFC2B0"/>
<path d="M140.341 45.7598C140.341 45.7598 139.029 50.5676 132.545 52.4174L132.647 48.0443L140.341 45.7598Z" fill="#EA9C92"/>
<path d="M144.448 33.5356C145.029 35.7916 144.929 38.1694 144.16 40.3684C143.391 42.5675 141.987 44.4889 140.127 45.8899C138.266 47.2909 136.032 48.1085 133.707 48.2393C131.382 48.3702 129.07 47.8084 127.064 46.625C125.059 45.4417 123.448 43.6898 122.438 41.591C121.427 39.4922 121.061 37.1406 121.385 34.8336C121.71 32.5266 122.712 30.3677 124.263 28.63C125.814 26.8922 127.845 25.6536 130.1 25.0707C131.597 24.6835 133.156 24.5953 134.688 24.8112C136.22 25.0271 137.694 25.5429 139.027 26.3289C140.359 27.115 141.524 28.1561 142.454 29.3927C143.384 30.6292 144.062 32.037 144.448 33.5356Z" fill="#FFC2B0"/>
<path d="M135.749 36.9113C135.749 36.9113 129.265 39.6903 124.774 39.7244C120.284 39.7585 121.272 35.9906 121.272 35.9906L134.624 34.0981L135.749 36.9113Z" fill="#EA9C92"/>
<path d="M123.437 37.6445C123.437 37.6445 129.086 35.2491 134.036 36.2464C135.21 36.4789 136.269 37.1079 137.035 38.0281C137.258 38.3381 137.575 38.5682 137.938 38.6845C138.79 38.8805 140.256 35.232 141.969 35.1553C143.681 35.0786 144.814 36.2805 143.417 38.5225C142.02 40.7644 142.488 43.2707 143.127 43.6372C143.766 44.0038 150.608 38.7612 144.584 26.8097C138.56 14.8583 123.241 21.3114 120.855 23.7153C120.855 23.7153 118.35 25.9061 116.305 23.9625C116.305 23.9625 114.021 41.0969 123.437 37.6445Z" fill="#004777"/>
<path d="M145.223 87.0528V96.0121C145.225 96.5202 145.12 97.023 144.916 97.4883C144.713 97.9537 144.414 98.3713 144.039 98.7143L125.635 115.499L127.722 118.696L152.031 101.067C152.591 100.659 153.06 100.138 153.406 99.5371C153.752 98.9365 153.969 98.27 154.042 97.5806L155.687 81.9465L145.223 87.0528Z" fill="#FFC2B0"/>
<path d="M152.517 58.3335C152.517 58.3335 158.098 66.7302 160.185 88.8429C160.185 88.8429 150.651 91.9373 145.232 90.1813C139.813 88.4252 152.517 58.3335 152.517 58.3335Z" fill="#5793CE"/>
<path d="M144.209 68.9551C144.209 68.9551 142.02 80.6593 141.9 86.1576C141.876 86.8971 142.086 87.6253 142.501 88.2379C142.916 88.8504 143.514 89.3158 144.209 89.5675V68.9551Z" fill="#396CAA"/>
<path d="M139.429 127.152L135.365 126.615L109.105 111.45C108.586 111.214 108.018 111.103 107.449 111.127C106.879 111.151 106.322 111.308 105.825 111.586L87.2158 122.327L84.7534 122.003V124.458C84.7606 124.639 84.8177 124.815 84.9185 124.965C85.0192 125.116 85.1597 125.235 85.3243 125.311L115.078 142.496C115.599 142.733 116.167 142.843 116.739 142.82C117.31 142.796 117.867 142.639 118.367 142.36L138.629 130.664C138.85 130.57 139.041 130.416 139.182 130.221C139.323 130.026 139.409 129.796 139.429 129.556V127.152Z" fill="#173D7A"/>
<path d="M119.705 117.571L117.839 116.497H97.3297L87.2158 122.327L84.7534 122.003V124.459C84.7606 124.64 84.8177 124.815 84.9185 124.965C85.0192 125.116 85.1597 125.236 85.3243 125.311L115.078 142.496C115.605 142.761 116.195 142.873 116.782 142.82L119.705 117.571Z" fill="#396CAA"/>
<path d="M85.844 122.148L84.7534 122.003V124.458C84.7606 124.639 84.8177 124.815 84.9185 124.965C85.0192 125.116 85.1597 125.235 85.3243 125.311L85.844 125.609V122.148Z" fill="#5793CE"/>
<path d="M115.385 142.65C116.303 142.943 117.297 142.879 118.171 142.471V138.302H115.385V142.65Z" fill="#274F89"/>
<path d="M115.078 140.058L85.3242 122.873C84.4722 122.387 84.5829 121.535 85.5543 120.972L105.825 109.268C106.323 108.991 106.879 108.835 107.449 108.811C108.018 108.788 108.585 108.897 109.105 109.131L138.884 126.325C139.736 126.811 139.617 127.664 138.646 128.218L118.384 139.922C117.882 140.203 117.322 140.362 116.747 140.386C116.173 140.41 115.601 140.297 115.078 140.058Z" fill="white"/>
<path d="M114.575 137.45L89.8658 123.163C89.1671 122.754 89.2523 122.046 90.0618 121.586L100.925 115.474C101.339 115.241 101.802 115.11 102.275 115.091C102.749 115.072 103.221 115.165 103.652 115.363L128.361 129.65C129.06 130.059 128.975 130.767 128.165 131.236L117.31 137.339C116.895 137.571 116.431 137.703 115.956 137.722C115.481 137.741 115.008 137.648 114.575 137.45Z" fill="#D4ECFF"/>
<path d="M106.975 108.705L106.668 110.76C106.403 112.51 106.447 114.293 106.796 116.028L107.162 117.835C107.264 118.335 107.514 118.793 107.878 119.15C108.243 119.507 108.705 119.747 109.207 119.838C109.397 119.872 109.591 119.867 109.778 119.823C109.965 119.778 110.141 119.696 110.295 119.581C110.449 119.466 110.578 119.321 110.674 119.154C110.77 118.987 110.83 118.802 110.852 118.611L111.337 114.221C111.337 114.221 112.462 115.695 113.041 115.695C113.621 115.695 112.436 111.297 111.21 108.808C109.983 106.318 106.975 108.705 106.975 108.705Z" fill="#FFC2B0"/>
<path d="M117.063 76.0561L113.868 82.3813C113.111 83.876 112.665 85.5086 112.556 87.1807L111.175 108.807L106.975 108.705L105.066 84.3931C105.005 83.6442 105.042 82.8904 105.177 82.1512L107.358 69.9014L117.063 76.0561Z" fill="#FFC2B0"/>
<path d="M114.072 141.712L111.618 138.447L85.3839 123.248C84.9192 122.916 84.539 122.478 84.2741 121.972C84.0092 121.466 83.8669 120.904 83.8587 120.333V98.8422L82.3506 96.873L83.765 96.0206C83.9244 95.9305 84.1064 95.8882 84.2892 95.8988C84.472 95.9094 84.648 95.9724 84.796 96.0802L114.515 113.377C114.979 113.71 115.358 114.148 115.623 114.654C115.887 115.16 116.03 115.721 116.041 116.292V139.7C116.069 139.941 116.031 140.184 115.932 140.405C115.833 140.625 115.676 140.815 115.478 140.954L114.072 141.712Z" fill="#173D7A"/>
<path d="M95.9238 129.386L94.0663 128.303L83.8418 110.521V98.8422L82.3336 96.873L83.748 96.0206C83.9075 95.9305 84.0895 95.8882 84.2723 95.8988C84.4551 95.9094 84.631 95.9724 84.779 96.0802L114.516 113.377C115.004 113.702 115.393 114.157 115.64 114.689L95.9238 129.386Z" fill="#396CAA"/>
<path d="M82.9982 97.7426L82.3336 96.8901L83.748 96.0377C83.9075 95.9476 84.0895 95.9053 84.2723 95.9159C84.4551 95.9265 84.631 95.9895 84.779 96.0973L85.2988 96.3957L82.9982 97.7426Z" fill="#5793CE"/>
<path d="M114.788 113.53C115.502 114.18 115.946 115.074 116.032 116.036L113.127 117.741L111.729 115.32L114.788 113.53Z" fill="#274F89"/>
<path d="M113.101 114.161L83.3646 96.9327C82.5126 96.4468 81.8395 96.9327 81.8395 98.0835V121.492C81.846 122.063 81.9867 122.624 82.2502 123.131C82.5137 123.637 82.8925 124.074 83.3561 124.407L113.093 141.635C113.945 142.121 114.618 141.635 114.618 140.485V117.076C114.613 116.505 114.474 115.943 114.21 115.436C113.946 114.929 113.566 114.492 113.101 114.161Z" fill="#5793CE"/>
<path d="M127.722 118.696L127.245 119.685C126.697 120.825 125.834 121.783 124.757 122.447L121.843 124.263C121.394 124.546 120.877 124.703 120.346 124.716C119.815 124.73 119.29 124.599 118.827 124.339L118.725 124.271C118.509 124.123 118.328 123.93 118.196 123.705C118.063 123.479 117.982 123.227 117.957 122.967C117.933 122.707 117.966 122.444 118.055 122.198C118.143 121.952 118.285 121.728 118.469 121.543L121.562 118.364C121.562 118.364 119.858 119.693 119.338 119.165C118.98 118.773 121.042 116.855 122.584 116.795C123.711 116.652 124.778 116.204 125.669 115.499L127.722 118.696Z" fill="#FFC2B0"/>
<path d="M119.892 47.0811C119.892 47.0811 108.577 59.3991 104.018 70.7026C107.117 75.471 111.865 78.9282 117.353 80.4121C126.828 83.1485 119.892 47.0811 119.892 47.0811Z" fill="#5793CE"/>
<path d="M115.223 79.6791L117.063 61.9565L112.735 78.5624C113.544 78.9783 114.374 79.3511 115.223 79.6791Z" fill="#396CAA"/>
<path d="M128.37 44.592L125.328 43.7395C126.184 45.051 127.434 46.0569 128.898 46.6123C131.02 47.1919 131.352 45.3933 131.352 45.3933L128.37 44.592Z" fill="white"/>
<path d="M70.6605 17.3643C68.9753 17.3643 67.328 16.8644 65.9268 15.9277C64.5256 14.991 63.4335 13.6596 62.7886 12.102C62.1437 10.5443 61.975 8.8303 62.3037 7.17669C62.6325 5.52309 63.444 4.00416 64.6356 2.81198C65.8272 1.61979 67.3454 0.807909 68.9982 0.478986C70.6511 0.150064 72.3643 0.318879 73.9212 0.964083C75.4781 1.60929 76.8088 2.7019 77.745 4.10376C78.6813 5.50562 79.181 7.15375 79.181 8.83975C79.181 9.95921 78.9606 11.0677 78.5324 12.102C78.1042 13.1362 77.4766 14.076 76.6854 14.8675C75.8942 15.6591 74.9549 16.287 73.9212 16.7154C72.8874 17.1438 71.7794 17.3643 70.6605 17.3643ZM70.6605 2.18207C69.342 2.18038 68.0526 2.57013 66.9555 3.30197C65.8585 4.03382 65.0032 5.07485 64.4978 6.29329C63.9924 7.51173 63.8598 8.85278 64.1166 10.1467C64.3734 11.4406 65.0082 12.6292 65.9405 13.562C66.8729 14.4948 68.0609 15.1299 69.3542 15.3868C70.6475 15.6438 71.9879 15.511 73.2058 15.0054C74.4236 14.4998 75.4642 13.6441 76.1957 12.5465C76.9271 11.4489 77.3167 10.1589 77.315 8.83975C77.3128 7.07472 76.6109 5.38262 75.3635 4.13455C74.116 2.88648 72.4247 2.18432 70.6605 2.18207Z" fill="#D4ECFF"/>
<path d="M242.834 78.7668C241.639 78.7668 240.471 78.4123 239.478 77.7482C238.485 77.0841 237.71 76.1402 237.253 75.0358C236.796 73.9314 236.676 72.7162 236.909 71.5438C237.142 70.3714 237.718 69.2944 238.563 68.4492C239.407 67.6039 240.484 67.0283 241.656 66.7951C242.828 66.5619 244.042 66.6816 245.146 67.139C246.25 67.5965 247.193 68.3711 247.857 69.3651C248.521 70.359 248.875 71.5275 248.875 72.7229C248.873 74.3251 248.236 75.8611 247.103 76.9941C245.971 78.1271 244.436 78.7645 242.834 78.7668ZM242.834 68.5373C242.007 68.5373 241.198 68.7828 240.51 69.2427C239.822 69.7026 239.286 70.3563 238.969 71.1211C238.652 71.8859 238.57 72.7275 238.731 73.5394C238.893 74.3514 239.291 75.0972 239.876 75.6825C240.461 76.2679 241.207 76.6665 242.018 76.828C242.83 76.9895 243.671 76.9066 244.435 76.5898C245.2 76.273 245.853 75.7366 246.313 75.0483C246.772 74.3599 247.018 73.5507 247.018 72.7229C247.016 71.6135 246.574 70.5502 245.79 69.7657C245.006 68.9813 243.943 68.5396 242.834 68.5373Z" fill="#5793CE"/>
<path d="M44.8178 187.932L40.7195 179.595L49.0525 175.487L53.1509 183.832L44.8178 187.932ZM43.2075 180.439L45.6614 185.443L50.6629 182.98L48.209 177.976L43.2075 180.439Z" fill="#5793CE"/>
<path d="M165.826 58.6404L161.728 50.2949L170.069 46.1946L174.168 54.5572L165.826 58.6404ZM164.216 51.1474L166.678 56.1598L171.68 53.7047L169.217 48.7008L164.216 51.1474Z" fill="#5793CE"/>
<path d="M33.6154 137.057L29.7845 138.941L31.6679 142.774L35.4987 140.89L33.6154 137.057Z" fill="#5793CE"/>
<path d="M183.847 13.3749L161.037 0.21296C160.869 0.0917229 160.67 0.0189161 160.463 0.00239143C160.255 -0.0141332 160.048 0.0262512 159.862 0.119189L157.655 1.39787L159.206 1.96902V18.5493C159.218 19.2354 159.391 19.9092 159.708 20.5172C160.026 21.1253 160.481 21.651 161.037 22.0529L182.816 34.6266V36.5787L185.048 35.2915C185.267 35.1194 185.437 34.8945 185.545 34.6379C185.652 34.3814 185.692 34.1017 185.662 33.8253V16.8785C185.655 16.193 185.487 15.5188 185.172 14.9102C184.856 14.3016 184.403 13.7757 183.847 13.3749Z" fill="#5793CE"/>
<path d="M181.597 36.5105L158.814 23.3486C158.255 22.9491 157.798 22.4239 157.48 21.8153C157.162 21.2067 156.991 20.5318 156.982 19.845V2.89816C156.982 1.54275 157.834 0.928986 158.814 1.50866L181.597 14.6706C182.155 15.071 182.611 15.5965 182.929 16.2048C183.247 16.8132 183.418 17.4877 183.429 18.1742V35.121C183.429 36.4764 182.611 37.0902 181.597 36.5105Z" fill="#004777"/>
<path d="M166.473 17.5094C166.473 18.4897 165.792 18.8904 164.94 18.3618C164.494 18.0694 164.123 17.6764 163.857 17.2145C163.59 16.7526 163.436 16.2346 163.406 15.7022C163.406 14.7218 164.088 14.3212 164.94 14.8497C165.385 15.1422 165.756 15.5351 166.023 15.9971C166.289 16.459 166.443 16.9769 166.473 17.5094Z" fill="white"/>
<path d="M171.134 20.2031C171.134 21.1834 170.444 21.5756 169.601 21.0556C169.152 20.7632 168.779 20.3693 168.511 19.9058C168.243 19.4422 168.088 18.922 168.058 18.3874C168.058 17.407 168.749 17.0149 169.601 17.5349C170.047 17.8282 170.419 18.2225 170.685 18.686C170.952 19.1495 171.106 19.6692 171.134 20.2031Z" fill="white"/>
<path d="M175.795 22.8883C175.795 23.8686 175.105 24.2693 174.253 23.7407C173.807 23.4483 173.436 23.0553 173.17 22.5934C172.903 22.1315 172.749 21.6135 172.719 21.0811C172.719 20.1008 173.401 19.7001 174.253 20.2286C174.7 20.5201 175.073 20.9127 175.34 21.3747C175.608 21.8366 175.764 22.3551 175.795 22.8883Z" fill="white"/>
<path d="M26.3539 157.568L4.00464 144.662C3.83851 144.545 3.64438 144.475 3.44222 144.459C3.24005 144.442 3.03714 144.48 2.85437 144.568L0.681641 145.77L2.20681 146.324V162.649C2.22227 163.317 2.39269 163.974 2.70466 164.565C3.01664 165.157 3.46164 165.668 4.00464 166.059L25.3655 178.402V180.312L27.5553 179.05C27.7693 178.882 27.9372 178.663 28.043 178.412C28.1488 178.162 28.1892 177.888 28.1603 177.618V161.003C28.1525 160.329 27.9847 159.665 27.6707 159.068C27.3566 158.471 26.9053 157.957 26.3539 157.568Z" fill="#5793CE"/>
<path d="M24.1471 180.269L1.79783 167.354C1.25144 166.967 0.803923 166.457 0.491564 165.864C0.179205 165.272 0.010798 164.614 0 163.944V147.322C0 145.992 0.800927 145.386 1.79783 145.958L24.1471 158.864C24.6906 159.254 25.1359 159.765 25.448 160.357C25.76 160.948 25.9301 161.605 25.9449 162.274V178.897C25.9449 180.235 25.144 180.84 24.1471 180.269Z" fill="#D4ECFF"/>
<path d="M9.31301 161.626C9.31301 162.589 8.63989 162.981 7.80488 162.478C7.36545 162.193 6.99968 161.809 6.73754 161.355C6.47541 160.902 6.32435 160.393 6.29675 159.87C6.29675 158.906 6.96987 158.514 7.80488 159.017C8.24432 159.302 8.61008 159.687 8.87222 160.14C9.13436 160.593 9.28541 161.103 9.31301 161.626Z" fill="white"/>
<path d="M13.8799 164.268C13.8799 165.232 13.2068 165.615 12.3718 165.121C11.9363 164.83 11.5738 164.442 11.3122 163.988C11.0507 163.535 10.8972 163.027 10.8636 162.504C10.8636 161.54 11.5453 161.157 12.3718 161.651C12.8109 161.938 13.1763 162.325 13.4383 162.78C13.7003 163.234 13.8516 163.744 13.8799 164.268Z" fill="white"/>
<path d="M18.4553 166.902C18.4553 167.866 17.7737 168.258 16.9472 167.755C16.5078 167.47 16.142 167.085 15.8799 166.632C15.6177 166.178 15.4667 165.669 15.4391 165.146C15.4391 164.183 16.1122 163.791 16.9472 164.294C17.3857 164.579 17.7507 164.965 18.0128 165.418C18.2748 165.871 18.4264 166.379 18.4553 166.902Z" fill="white"/>
</g>
<defs>
<clipPath id="clip0">
<rect width="250" height="211" fill="white"/>
</clipPath>
</defs>
</svg>
