<svg width="167" height="119" viewBox="0 0 167 119" fill="none" xmlns="http://www.w3.org/2000/svg">
<path d="M11.628 109.4C12.06 109.4 12.42 109.568 12.708 109.904C13.02 110.24 13.176 110.672 13.176 111.2C13.176 111.728 12.972 112.16 12.564 112.496C12.18 112.832 11.676 113 11.052 113H10.404C9.228 113 8.148 112.7 7.164 112.1C6.204 111.476 5.448 110.636 4.896 109.58C4.344 108.524 4.068 107.336 4.068 106.016V97.124H2.412C1.908 97.124 1.5 96.98 1.188 96.692C0.876 96.404 0.72 96.044 0.72 95.612C0.72 95.132 0.876 94.748 1.188 94.46C1.5 94.172 1.908 94.028 2.412 94.028H4.068V88.844C4.068 88.316 4.236 87.884 4.572 87.548C4.908 87.212 5.34 87.044 5.868 87.044C6.396 87.044 6.828 87.212 7.164 87.548C7.5 87.884 7.668 88.316 7.668 88.844V94.028H10.728C11.232 94.028 11.64 94.172 11.952 94.46C12.264 94.748 12.42 95.132 12.42 95.612C12.42 96.044 12.264 96.404 11.952 96.692C11.64 96.98 11.232 97.124 10.728 97.124H7.668V106.016C7.668 106.976 7.932 107.78 8.46 108.428C8.988 109.076 9.636 109.4 10.404 109.4H11.628ZM25.1772 93.092C26.4492 93.092 27.4452 93.284 28.1652 93.668C28.8852 94.052 29.2452 94.532 29.2452 95.108C29.2452 95.276 29.2332 95.396 29.2092 95.468C28.9932 96.236 28.5132 96.62 27.7692 96.62C27.6492 96.62 27.4692 96.596 27.2292 96.548C26.2692 96.38 25.4892 96.296 24.8892 96.296C23.1612 96.296 21.7692 96.692 20.7132 97.484C19.6572 98.276 19.1292 99.344 19.1292 100.688V111.2C19.1292 111.776 18.9732 112.22 18.6612 112.532C18.3732 112.844 17.9292 113 17.3292 113C16.7532 113 16.3092 112.856 15.9972 112.568C15.6852 112.256 15.5292 111.8 15.5292 111.2V95.108C15.5292 94.532 15.6852 94.088 15.9972 93.776C16.3092 93.464 16.7532 93.308 17.3292 93.308C18.5292 93.308 19.1292 93.908 19.1292 95.108V95.792C19.8492 94.952 20.7372 94.292 21.7932 93.812C22.8492 93.332 23.9772 93.092 25.1772 93.092ZM38.3636 93.164C40.2596 93.164 41.9516 93.596 43.4396 94.46C44.9516 95.3 46.1276 96.476 46.9676 97.988C47.8316 99.5 48.2636 101.228 48.2636 103.172C48.2636 105.092 47.8436 106.808 47.0036 108.32C46.1636 109.832 44.9876 111.02 43.4756 111.884C41.9876 112.724 40.2836 113.144 38.3636 113.144C36.4436 113.144 34.7276 112.724 33.2156 111.884C31.7036 111.02 30.5276 109.832 29.6876 108.32C28.8476 106.808 28.4276 105.092 28.4276 103.172C28.4276 101.228 28.8476 99.5 29.6876 97.988C30.5276 96.476 31.7036 95.3 33.2156 94.46C34.7276 93.596 36.4436 93.164 38.3636 93.164ZM38.3636 96.404C37.1396 96.404 36.0356 96.692 35.0516 97.268C34.0916 97.844 33.3356 98.648 32.7836 99.68C32.2316 100.712 31.9556 101.876 31.9556 103.172C31.9556 104.468 32.2316 105.632 32.7836 106.664C33.3356 107.672 34.0916 108.464 35.0516 109.04C36.0356 109.616 37.1396 109.904 38.3636 109.904C39.5876 109.904 40.6796 109.616 41.6396 109.04C42.6236 108.464 43.3796 107.672 43.9076 106.664C44.4596 105.632 44.7356 104.468 44.7356 103.172C44.7356 101.876 44.4596 100.712 43.9076 99.68C43.3796 98.648 42.6236 97.844 41.6396 97.268C40.6796 96.692 39.5876 96.404 38.3636 96.404ZM67.8046 93.272C68.3566 93.272 68.8006 93.44 69.1366 93.776C69.4726 94.112 69.6406 94.556 69.6406 95.108V111.164C69.6406 111.692 69.4726 112.136 69.1366 112.496C68.8006 112.832 68.3566 113 67.8046 113C67.2766 113 66.8326 112.832 66.4726 112.496C66.1366 112.136 65.9686 111.692 65.9686 111.164V110.768C65.2006 111.536 64.2886 112.136 63.2326 112.568C62.1766 112.976 61.0486 113.18 59.8486 113.18C58.1926 113.18 56.7046 112.82 55.3846 112.1C54.0646 111.38 53.0326 110.336 52.2886 108.968C51.5446 107.576 51.1726 105.908 51.1726 103.964V95.108C51.1726 94.58 51.3406 94.148 51.6766 93.812C52.0366 93.452 52.4806 93.272 53.0086 93.272C53.5366 93.272 53.9686 93.452 54.3046 93.812C54.6646 94.148 54.8446 94.58 54.8446 95.108V103.964C54.8446 105.908 55.3606 107.384 56.3926 108.392C57.4486 109.376 58.8406 109.868 60.5686 109.868C61.5766 109.868 62.4886 109.664 63.3046 109.256C64.1446 108.848 64.7926 108.296 65.2486 107.6C65.7286 106.904 65.9686 106.124 65.9686 105.26V95.108C65.9686 94.556 66.1366 94.112 66.4726 93.776C66.8326 93.44 67.2766 93.272 67.8046 93.272ZM94.6477 93.128C96.7357 93.128 98.4157 93.812 99.6877 95.18C100.984 96.548 101.632 98.456 101.632 100.904V111.2C101.632 111.728 101.464 112.172 101.128 112.532C100.792 112.868 100.348 113.036 99.7957 113.036C99.2677 113.036 98.8237 112.868 98.4637 112.532C98.1277 112.172 97.9597 111.728 97.9597 111.2V100.904C97.9597 99.44 97.5877 98.336 96.8437 97.592C96.1237 96.824 95.1517 96.44 93.9277 96.44C92.6797 96.44 91.6477 96.872 90.8317 97.736C90.0397 98.6 89.6437 99.704 89.6437 101.048V111.2C89.6437 111.728 89.4757 112.172 89.1397 112.532C88.8037 112.868 88.3597 113.036 87.8077 113.036C87.2797 113.036 86.8357 112.868 86.4757 112.532C86.1397 112.172 85.9717 111.728 85.9717 111.2V100.904C85.9717 99.44 85.5997 98.336 84.8557 97.592C84.1357 96.824 83.1637 96.44 81.9397 96.44C80.6677 96.44 79.6237 96.872 78.8077 97.736C78.0157 98.6 77.6197 99.704 77.6197 101.048V111.2C77.6197 111.728 77.4517 112.172 77.1157 112.532C76.7797 112.868 76.3357 113.036 75.7837 113.036C75.2557 113.036 74.8117 112.868 74.4517 112.532C74.1157 112.172 73.9477 111.728 73.9477 111.2V95.18C73.9477 94.628 74.1157 94.184 74.4517 93.848C74.8117 93.512 75.2557 93.344 75.7837 93.344C76.3117 93.344 76.7437 93.512 77.0797 93.848C77.4157 94.16 77.5957 94.58 77.6197 95.108C78.2437 94.484 78.9877 94.004 79.8517 93.668C80.7157 93.308 81.6517 93.128 82.6597 93.128C83.8837 93.128 84.9757 93.38 85.9357 93.884C86.9197 94.364 87.7237 95.06 88.3477 95.972C89.0677 95.084 89.9677 94.388 91.0477 93.884C92.1277 93.38 93.3277 93.128 94.6477 93.128ZM114.501 93.164C116.349 93.164 118.017 93.608 119.505 94.496C121.017 95.36 122.205 96.56 123.069 98.096C123.957 99.608 124.401 101.3 124.401 103.172V111.2C124.401 111.728 124.221 112.172 123.861 112.532C123.525 112.868 123.093 113.036 122.565 113.036C122.037 113.036 121.593 112.868 121.233 112.532C120.897 112.172 120.729 111.728 120.729 111.2V109.868C119.889 110.9 118.869 111.704 117.669 112.28C116.469 112.856 115.173 113.144 113.781 113.144C112.053 113.144 110.481 112.712 109.065 111.848C107.673 110.984 106.569 109.796 105.753 108.284C104.961 106.748 104.565 105.044 104.565 103.172C104.565 101.3 104.997 99.608 105.861 98.096C106.725 96.56 107.913 95.36 109.425 94.496C110.961 93.608 112.653 93.164 114.501 93.164ZM114.501 109.904C115.701 109.904 116.781 109.616 117.741 109.04C118.725 108.44 119.493 107.636 120.045 106.628C120.597 105.596 120.873 104.444 120.873 103.172C120.873 101.9 120.597 100.748 120.045 99.716C119.493 98.684 118.725 97.88 117.741 97.304C116.781 96.704 115.701 96.404 114.501 96.404C113.301 96.404 112.209 96.704 111.225 97.304C110.265 97.88 109.497 98.684 108.921 99.716C108.369 100.748 108.093 101.9 108.093 103.172C108.093 104.444 108.369 105.596 108.921 106.628C109.497 107.636 110.265 108.44 111.225 109.04C112.209 109.616 113.301 109.904 114.501 109.904ZM142.574 110.408C142.838 110.696 142.97 111.056 142.97 111.488C142.97 112.016 142.754 112.46 142.322 112.82C141.962 113.108 141.578 113.252 141.17 113.252C140.642 113.252 140.21 113.036 139.874 112.604L133.034 104.144L131.234 105.728V111.236C131.234 111.764 131.066 112.196 130.73 112.532C130.418 112.844 129.998 113 129.47 113C128.942 113 128.51 112.844 128.174 112.532C127.862 112.196 127.706 111.764 127.706 111.236V86.648C127.706 86.12 127.862 85.7 128.174 85.388C128.51 85.052 128.942 84.884 129.47 84.884C129.998 84.884 130.418 85.052 130.73 85.388C131.066 85.7 131.234 86.12 131.234 86.648V101.3L139.982 93.488C140.294 93.176 140.666 93.02 141.098 93.02C141.602 93.02 142.01 93.212 142.322 93.596C142.634 93.908 142.79 94.28 142.79 94.712C142.79 95.216 142.598 95.624 142.214 95.936L135.59 101.84L142.574 110.408ZM153.177 93.164C155.025 93.164 156.693 93.608 158.181 94.496C159.693 95.36 160.881 96.56 161.745 98.096C162.633 99.608 163.077 101.3 163.077 103.172V111.2C163.077 111.728 162.897 112.172 162.537 112.532C162.201 112.868 161.769 113.036 161.241 113.036C160.713 113.036 160.269 112.868 159.909 112.532C159.573 112.172 159.405 111.728 159.405 111.2V109.868C158.565 110.9 157.545 111.704 156.345 112.28C155.145 112.856 153.849 113.144 152.457 113.144C150.729 113.144 149.157 112.712 147.741 111.848C146.349 110.984 145.245 109.796 144.429 108.284C143.637 106.748 143.241 105.044 143.241 103.172C143.241 101.3 143.673 99.608 144.537 98.096C145.401 96.56 146.589 95.36 148.101 94.496C149.637 93.608 151.329 93.164 153.177 93.164ZM153.177 109.904C154.377 109.904 155.457 109.616 156.417 109.04C157.401 108.44 158.169 107.636 158.721 106.628C159.273 105.596 159.549 104.444 159.549 103.172C159.549 101.9 159.273 100.748 158.721 99.716C158.169 98.684 157.401 97.88 156.417 97.304C155.457 96.704 154.377 96.404 153.177 96.404C151.977 96.404 150.885 96.704 149.901 97.304C148.941 97.88 148.173 98.684 147.597 99.716C147.045 100.748 146.769 101.9 146.769 103.172C146.769 104.444 147.045 105.596 147.597 106.628C148.173 107.636 148.941 108.44 149.901 109.04C150.885 109.616 151.977 109.904 153.177 109.904Z" fill="black"/>
<mask id="mask0" mask-type="alpha" maskUnits="userSpaceOnUse" x="52" y="1" width="63" height="63">
<circle cx="83.5001" cy="32.4999" r="31.4999" transform="rotate(-180 83.5001 32.4999)" fill="#C4C4C4"/>
</mask>
<g mask="url(#mask0)">
<circle cx="83.5001" cy="32.4999" r="31.4999" transform="rotate(-180 83.5001 32.4999)" fill="white"/>
<g style="mix-blend-mode:multiply">
<circle cx="100.403" cy="41.1048" r="27.8121" transform="rotate(-180 100.403 41.1048)" fill="#26DDDB"/>
</g>
<g style="mix-blend-mode:color-dodge">
<circle cx="84.4217" cy="4.14385" r="27.8121" transform="rotate(-180 84.4217 4.14385)" fill="#FF5E5B"/>
</g>
<g style="mix-blend-mode:multiply">
<ellipse cx="64.6002" cy="42.6414" rx="28.5804" ry="29.3487" transform="rotate(-180 64.6002 42.6414)" fill="#23C7EF"/>
</g>
</g>
<ellipse cx="83" cy="34" rx="14" ry="14" transform="rotate(-180 83 34)" fill="white"/>
<path fill-rule="evenodd" clip-rule="evenodd" d="M106.858 11.7991C104.191 17.6204 99.0294 22.0606 92.7415 23.7522C89.1772 13.7646 78.4377 6.4174 65.6045 6.01718C70.4143 2.26625 76.6662 0 83.5002 0C93.3575 1.77724e-06 102.003 4.71479 106.858 11.7991Z" fill="#004777"/>
</svg>
