<svg width="414" height="612" viewBox="0 0 414 612" fill="none" xmlns="http://www.w3.org/2000/svg">
<mask id="mask0" mask-type="alpha" maskUnits="userSpaceOnUse" x="0" y="0" width="414" height="612">
<rect width="414" height="612" fill="#004777"/>
</mask>
<g mask="url(#mask0)">
<rect width="414" height="612" fill="url(#paint0_linear)"/>
</g>
<g style="mix-blend-mode:multiply" clip-path="url(#clip0)">
<path d="M216.523 569C215.29 569.016 214.073 568.714 212.991 568.122L50.608 474.537C50.1775 474.345 49.8035 474.047 49.5219 473.67C49.2403 473.292 49.0606 472.849 49 472.383C49.0203 472.013 49.1409 471.655 49.3491 471.348C49.5573 471.041 49.8452 470.796 50.182 470.64L147.076 414.758C148.071 414.31 149.157 414.101 150.247 414.146C151.338 414.191 152.402 414.49 153.357 415.019L315.74 508.604C316.176 508.799 316.553 509.104 316.835 509.489C317.117 509.874 317.294 510.325 317.348 510.799C317.327 511.169 317.207 511.527 316.998 511.834C316.79 512.141 316.502 512.385 316.166 512.542L219.272 568.424C218.418 568.841 217.473 569.039 216.523 569ZM149.824 414.662C148.966 414.64 148.115 414.834 147.351 415.225L50.4568 471.079C50.1993 471.191 49.978 471.372 49.8178 471.602C49.6576 471.833 49.5648 472.103 49.5498 472.383C49.6078 472.764 49.7654 473.123 50.0066 473.424C50.2479 473.725 50.5644 473.958 50.9241 474.098L213.307 567.697C214.178 568.179 215.149 568.452 216.143 568.495C217.138 568.538 218.129 568.349 219.038 567.944L315.932 512.089C316.184 511.98 316.401 511.806 316.561 511.583C316.72 511.361 316.817 511.099 316.839 510.827C316.781 510.445 316.623 510.086 316.382 509.785C316.141 509.484 315.824 509.252 315.465 509.112L153.082 415.471C152.082 414.932 150.961 414.653 149.824 414.662Z" fill="#BEE8E5"/>
<path d="M317.073 494.609L308.126 493.32L153.219 404.043C152.308 403.535 151.29 403.247 150.247 403.201C149.204 403.156 148.165 403.355 147.213 403.782L54.9511 456.961L49.2749 456.152V463.67C49.3297 464.091 49.4927 464.49 49.748 464.829C50.0033 465.168 50.3422 465.436 50.7317 465.605L213.115 559.204C214.028 559.707 215.046 559.991 216.089 560.033C217.131 560.076 218.169 559.877 219.121 559.451L316.014 503.596C316.31 503.462 316.563 503.249 316.745 502.98C316.927 502.711 317.031 502.397 317.045 502.073L317.073 494.609Z" fill="url(#paint1_linear)"/>
<path d="M50.7456 458.127L213.129 551.726C214.042 552.229 215.06 552.513 216.102 552.556C217.145 552.599 218.183 552.399 219.135 551.973L316.028 496.119C317.568 495.227 317.403 493.69 315.602 492.661L153.219 399.062C152.306 398.559 151.288 398.275 150.245 398.233C149.203 398.19 148.165 398.389 147.213 398.815L50.3745 454.67C48.7802 455.562 49.0001 457.112 50.7456 458.127Z" fill="url(#paint2_linear)"/>
<path opacity="0.3" d="M64.8052 460.035L209.953 543.728C210.767 544.183 211.676 544.44 212.607 544.478C213.538 544.516 214.466 544.334 215.313 543.947L301.899 494.033C303.274 493.237 303.095 491.852 301.515 490.932L156.366 407.239C155.553 406.784 154.644 406.527 153.713 406.489C152.781 406.451 151.854 406.633 151.006 407.02L64.4204 456.934C63.046 457.661 63.2247 459.047 64.8052 460.035Z" fill="#514B6A"/>
<path d="M316.028 495.309L219.134 551.15C218.184 551.582 217.145 551.785 216.102 551.742C215.058 551.7 214.04 551.412 213.128 550.903L50.7454 457.29C50.1021 456.973 49.6088 456.416 49.371 455.74C49.1236 456.522 49.5909 457.428 50.7454 458.1L213.128 551.699C214.042 552.202 215.06 552.486 216.102 552.528C217.145 552.571 218.183 552.372 219.134 551.946L316.028 496.091C316.391 495.941 316.688 495.666 316.865 495.316C317.041 494.966 317.086 494.564 316.99 494.184C316.913 494.426 316.788 494.65 316.623 494.843C316.458 495.037 316.255 495.195 316.028 495.309Z" fill="white"/>
<path d="M152.931 369.893L173.45 248.319L171.801 247.619L174.288 246.247C174.587 246.085 174.925 246.012 175.264 246.036C175.602 246.06 175.927 246.181 176.199 246.384L340.245 340.902C340.93 341.342 341.488 341.953 341.862 342.676C342.236 343.398 342.413 344.206 342.375 345.018L321.677 467.608C321.652 467.871 321.559 468.123 321.408 468.34C321.256 468.556 321.05 468.73 320.811 468.843L318.378 470.215L317.966 467.951H318.103L155.061 374.05C154.369 373.607 153.808 372.989 153.433 372.259C153.059 371.529 152.886 370.712 152.931 369.893Z" fill="url(#paint3_linear)"/>
<path d="M339.324 344.223L342.073 343.029C342.372 343.662 342.49 344.364 342.416 345.06L321.677 467.608C321.652 467.871 321.559 468.123 321.408 468.34C321.256 468.556 321.05 468.73 320.811 468.843L318.378 470.215L317.966 467.951H318.103L309.857 463.19L339.324 344.223Z" fill="url(#paint4_linear)"/>
<path d="M152.491 375.518L316.537 470.078C317.801 470.805 318.887 470.38 319.107 469.076L339.791 346.541C339.833 345.73 339.659 344.922 339.288 344.199C338.916 343.476 338.359 342.864 337.675 342.425L173.615 247.825C172.351 247.098 171.32 247.523 171.045 248.826L150.429 371.361C150.368 372.175 150.528 372.99 150.89 373.721C151.253 374.453 151.806 375.073 152.491 375.518Z" fill="#514B6A"/>
<g opacity="0.51">
<path opacity="0.51" d="M173.065 250.102L337.881 345.06L317.073 467.91L152.353 373.021L173.065 250.102Z" fill="#87859E"/>
</g>
<path d="M49.3574 433.541L58.3184 438.206L148.093 386.467C149.02 386.048 150.033 385.852 151.05 385.895C152.067 385.937 153.059 386.218 153.948 386.714L308.758 475.95C310.228 475.113 317.004 471.834 317.004 471.834L313.719 477.157C313.551 477.595 313.229 477.956 312.812 478.173L218.255 532.751C217.328 533.171 216.315 533.367 215.298 533.324C214.281 533.281 213.288 533 212.4 532.504L53.9616 441.128C53.3514 440.853 52.8627 440.365 52.5872 439.756L49.3574 433.541Z" fill="url(#paint5_linear)"/>
<path d="M50.7456 435.009L213.129 528.635C214.04 529.144 215.059 529.432 216.102 529.475C217.145 529.518 218.184 529.315 219.135 528.882L316.028 473.041C317.568 472.149 317.403 470.599 315.602 469.584L153.219 375.944C152.307 375.438 151.288 375.152 150.246 375.109C149.203 375.066 148.164 375.268 147.213 375.697L50.3745 431.552C48.7802 432.43 49.0001 433.966 50.7456 435.009Z" fill="url(#paint6_linear)"/>
<path d="M50.7454 434.282L213.128 527.867C214.04 528.375 215.058 528.663 216.1 528.708C217.143 528.754 218.182 528.555 219.134 528.128L316.028 472.273C316.259 472.159 316.465 471.999 316.633 471.803C316.801 471.608 316.927 471.38 317.004 471.134C317.085 471.51 317.032 471.902 316.854 472.243C316.676 472.584 316.383 472.852 316.028 473L219.134 528.841C218.184 529.274 217.145 529.477 216.102 529.434C215.058 529.391 214.04 529.103 213.128 528.594L50.7454 435.009C49.5909 434.35 49.1236 433.459 49.371 432.677C49.4825 433.022 49.6614 433.341 49.8973 433.617C50.1332 433.892 50.4215 434.118 50.7454 434.282Z" fill="white"/>
<g opacity="0.15">
<g opacity="0.15">
<path opacity="0.15" d="M152.285 374.736L161.232 379.401L251.034 327.662C251.961 327.243 252.974 327.047 253.991 327.09C255.008 327.133 256 327.414 256.889 327.909L411.726 417.09C413.211 416.267 419.973 412.974 419.973 412.974L416.701 418.298C416.528 418.736 416.201 419.097 415.781 419.313L321.127 473.892C320.2 474.311 319.187 474.507 318.17 474.464C317.153 474.421 316.161 474.141 315.272 473.645L156.875 382.324C156.27 382.042 155.783 381.556 155.501 380.952L152.285 374.736Z" fill="url(#paint7_linear)"/>
<path opacity="0.15" d="M153.673 376.204L316.056 469.79C316.965 470.297 317.98 470.585 319.021 470.631C320.061 470.676 321.098 470.477 322.048 470.05L418.955 414.195C420.495 413.304 420.33 411.753 418.529 410.738L256.146 317.139C255.233 316.636 254.215 316.352 253.173 316.31C252.13 316.267 251.092 316.466 250.14 316.892L153.233 372.747C151.694 373.598 151.886 375.175 153.673 376.204Z" fill="url(#paint8_linear)"/>
<path opacity="0.15" d="M418.529 410.738L256.146 317.139C254.918 316.48 253.522 316.199 252.133 316.33C253.096 316.406 254.032 316.682 254.882 317.139L417.334 410.738C419.107 411.753 419.299 413.304 417.76 414.195L320.852 470.05C320.236 470.379 319.557 470.571 318.859 470.613C319.954 470.74 321.063 470.544 322.048 470.05L418.955 414.195C420.495 413.304 420.302 411.753 418.529 410.738Z" fill="white"/>
<g opacity="0.5">
<path opacity="0.5" d="M238.665 360.097L233.524 357.133C233.279 357.011 233.008 356.948 232.734 356.948C232.46 356.948 232.189 357.011 231.944 357.133L226.158 360.508C225.704 360.769 225.677 361.181 226.089 361.428L231.298 364.432C231.543 364.557 231.813 364.621 232.088 364.621C232.363 364.621 232.633 364.557 232.878 364.432L238.651 361.057C239.118 360.742 239.146 360.33 238.665 360.097Z" fill="#514B6A"/>
<path opacity="0.5" d="M246.759 364.721L241.55 361.73C241.308 361.604 241.04 361.539 240.767 361.539C240.494 361.539 240.226 361.604 239.984 361.73L234.198 365.105C233.744 365.365 233.703 365.777 234.129 366.024L239.338 369.015C239.58 369.14 239.848 369.205 240.121 369.205C240.394 369.205 240.662 369.14 240.905 369.015L246.691 365.64C247.144 365.365 247.185 364.968 246.759 364.721Z" fill="#514B6A"/>
<path opacity="0.5" d="M254.8 369.358L249.659 366.353C249.414 366.229 249.144 366.164 248.869 366.164C248.594 366.164 248.324 366.229 248.079 366.353L242.293 369.728C241.839 369.989 241.812 370.401 242.293 370.634L247.488 373.639C247.733 373.761 248.004 373.824 248.278 373.824C248.552 373.824 248.823 373.761 249.068 373.639L254.854 370.263C255.157 370.017 255.157 369.605 254.8 369.358Z" fill="#514B6A"/>
<path opacity="0.5" d="M248.684 375.518L243.475 372.527C243.23 372.402 242.959 372.337 242.684 372.337C242.41 372.337 242.139 372.402 241.894 372.527L237.043 375.354C236.589 375.628 236.562 376.04 237.043 376.273L242.252 379.278C242.497 379.399 242.768 379.462 243.042 379.462C243.316 379.462 243.586 379.399 243.832 379.278L248.684 376.438C249.068 376.177 249.096 375.765 248.684 375.518Z" fill="#514B6A"/>
<path opacity="0.5" d="M256.724 380.156L251.515 377.165C251.271 377.036 251 376.969 250.725 376.969C250.449 376.969 250.178 377.036 249.934 377.165L245.083 379.991C244.629 380.252 244.588 380.663 245.083 380.91L250.292 383.915C250.534 384.04 250.802 384.105 251.075 384.105C251.348 384.105 251.616 384.04 251.859 383.915L256.724 381.089C257.109 380.814 257.136 380.458 256.724 380.156Z" fill="#514B6A"/>
<path opacity="0.5" d="M264.778 384.793L259.555 381.83C259.309 381.708 259.039 381.644 258.765 381.644C258.49 381.644 258.22 381.708 257.974 381.83L253.109 384.67C252.656 384.93 252.628 385.342 253.109 385.589L258.304 388.58C258.549 388.705 258.82 388.77 259.095 388.77C259.369 388.77 259.64 388.705 259.885 388.58L264.75 385.754C265.149 385.438 265.176 385.026 264.778 384.793Z" fill="#514B6A"/>
<path opacity="0.5" d="M272.79 389.431L267.595 386.426C267.35 386.301 267.08 386.235 266.805 386.235C266.53 386.235 266.259 386.301 266.014 386.426L261.149 389.252C260.696 389.527 260.668 389.938 261.149 390.171L266.344 393.176C266.59 393.298 266.86 393.362 267.135 393.362C267.409 393.362 267.679 393.298 267.925 393.176L272.79 390.336C273.189 390.062 273.216 389.664 272.79 389.431Z" fill="#514B6A"/>
<path opacity="0.5" d="M280.83 394.054L275.621 391.063C275.38 390.935 275.111 390.868 274.838 390.868C274.565 390.868 274.296 390.935 274.055 391.063L269.189 393.89C268.736 394.15 268.708 394.562 269.121 394.809L274.33 397.814C274.574 397.939 274.845 398.004 275.12 398.004C275.395 398.004 275.666 397.939 275.91 397.814L280.762 394.987C281.27 394.713 281.27 394.301 280.83 394.054Z" fill="#514B6A"/>
<path opacity="0.5" d="M288.87 398.692L283.662 395.687C283.416 395.566 283.145 395.503 282.871 395.503C282.597 395.503 282.327 395.566 282.081 395.687L277.229 398.527C276.776 398.788 276.748 399.199 277.161 399.446L282.37 402.437C282.614 402.563 282.885 402.628 283.16 402.628C283.435 402.628 283.706 402.563 283.95 402.437L288.802 399.611C289.255 399.337 289.283 398.925 288.87 398.692Z" fill="#514B6A"/>
<path opacity="0.5" d="M296.91 403.329L291.702 400.324C291.457 400.199 291.186 400.134 290.911 400.134C290.636 400.134 290.366 400.199 290.121 400.324L285.269 403.151C284.816 403.425 284.788 403.837 285.269 404.07L290.478 407.075C290.724 407.196 290.995 407.259 291.269 407.259C291.543 407.259 291.813 407.196 292.059 407.075L296.91 404.235C297.295 403.974 297.323 403.562 296.91 403.329Z" fill="#514B6A"/>
<path opacity="0.5" d="M304.951 407.898L299.742 404.907C299.498 404.778 299.227 404.711 298.952 404.711C298.676 404.711 298.405 404.778 298.161 404.907L293.31 407.898C292.856 408.159 292.829 408.57 293.31 408.817L298.519 411.822C298.764 411.946 299.034 412.011 299.309 412.011C299.584 412.011 299.854 411.946 300.099 411.822L304.951 408.996C305.336 408.611 305.363 408.2 304.951 407.898Z" fill="#514B6A"/>
<path opacity="0.5" d="M312.991 412.59L307.782 409.586C307.536 409.465 307.266 409.402 306.992 409.402C306.718 409.402 306.447 409.465 306.201 409.586L301.35 412.426C300.896 412.686 300.855 413.098 301.281 413.345L306.49 416.336C306.735 416.461 307.005 416.526 307.28 416.526C307.555 416.526 307.826 416.461 308.071 416.336L312.922 413.51C313.376 413.235 313.403 412.824 312.991 412.59Z" fill="#514B6A"/>
<path opacity="0.5" d="M321.031 417.228L315.822 414.223C315.577 414.098 315.307 414.032 315.032 414.032C314.757 414.032 314.486 414.098 314.241 414.223L309.39 417.049C308.923 417.324 308.895 417.735 309.321 417.968L314.516 420.973C314.762 421.095 315.032 421.159 315.307 421.159C315.581 421.159 315.851 421.095 316.097 420.973L320.962 418.133C321.416 417.872 321.443 417.502 321.031 417.228Z" fill="#514B6A"/>
<path opacity="0.5" d="M245.33 382.145L240.121 379.086C239.877 378.96 239.606 378.895 239.331 378.895C239.056 378.895 238.785 378.96 238.541 379.086L233.689 381.912C233.236 382.186 233.208 382.598 233.689 382.831L238.898 385.836C239.144 385.957 239.414 386.02 239.688 386.02C239.962 386.02 240.233 385.957 240.479 385.836L245.33 382.996C245.715 382.79 245.756 382.378 245.33 382.145Z" fill="#514B6A"/>
<path opacity="0.5" d="M237.18 377.439L231.971 374.434C231.726 374.312 231.455 374.249 231.181 374.249C230.907 374.249 230.636 374.312 230.391 374.434L225.539 377.275C225.072 377.535 225.044 377.947 225.539 378.194L230.734 381.185C230.979 381.31 231.25 381.375 231.524 381.375C231.799 381.375 232.07 381.31 232.315 381.185L237.18 378.358C237.565 378.084 237.592 377.714 237.18 377.439Z" fill="#514B6A"/>
<path opacity="0.5" d="M229.044 372.733L217.829 366.271C217.585 366.142 217.314 366.075 217.039 366.075C216.763 366.075 216.492 366.142 216.248 366.271L211.397 369.097C210.943 369.372 210.916 369.77 211.397 370.017L222.612 376.479C222.857 376.6 223.128 376.663 223.402 376.663C223.676 376.663 223.946 376.6 224.192 376.479L228.934 373.598C229.387 373.378 229.415 372.966 229.044 372.733Z" fill="#514B6A"/>
<path opacity="0.5" d="M219.519 375.806L210.421 370.565C210.176 370.44 209.905 370.375 209.631 370.375C209.356 370.375 209.085 370.44 208.84 370.565L203.989 373.392C203.535 373.666 203.508 374.078 203.989 374.311L213.087 379.552C213.332 379.677 213.603 379.743 213.877 379.743C214.152 379.743 214.423 379.677 214.668 379.552L219.423 376.726C219.904 376.451 219.945 376.053 219.519 375.806Z" fill="#514B6A"/>
<path opacity="0.5" d="M253.37 386.769L248.161 383.778C247.918 383.649 247.647 383.582 247.371 383.582C247.096 383.582 246.824 383.649 246.581 383.778L241.729 386.604C241.276 386.865 241.248 387.277 241.729 387.524L246.938 390.528C247.183 390.652 247.454 390.717 247.728 390.717C248.003 390.717 248.274 390.652 248.519 390.528L253.37 387.702C253.782 387.427 253.782 387.016 253.37 386.769Z" fill="#514B6A"/>
<path opacity="0.5" d="M261.41 391.434L256.201 388.429C255.956 388.308 255.685 388.245 255.411 388.245C255.137 388.245 254.867 388.308 254.621 388.429L249.769 391.269C249.316 391.53 249.288 391.941 249.701 392.188L254.909 395.179C255.154 395.304 255.425 395.37 255.7 395.37C255.975 395.37 256.245 395.304 256.49 395.179L261.342 392.353C261.795 392.051 261.823 391.639 261.41 391.434Z" fill="#514B6A"/>
<path opacity="0.5" d="M269.451 396.044L264.242 393.039C263.997 392.914 263.726 392.849 263.451 392.849C263.177 392.849 262.906 392.914 262.661 393.039L257.81 395.865C257.356 396.14 257.315 396.551 257.741 396.785L262.95 399.789C263.196 399.91 263.466 399.973 263.74 399.973C264.014 399.973 264.285 399.91 264.53 399.789L269.382 396.949C269.835 396.689 269.863 396.277 269.451 396.044Z" fill="#514B6A"/>
<path opacity="0.5" d="M277.491 400.667L272.282 397.676C272.038 397.548 271.767 397.481 271.491 397.481C271.216 397.481 270.945 397.548 270.701 397.676L265.85 400.503C265.396 400.763 265.355 401.175 265.781 401.422L270.976 404.427C271.221 404.552 271.492 404.617 271.766 404.617C272.041 404.617 272.312 404.552 272.557 404.427L277.422 401.6C277.875 401.326 277.903 400.914 277.491 400.667Z" fill="#514B6A"/>
<path opacity="0.5" d="M285.517 405.305L280.322 402.3C280.076 402.178 279.806 402.115 279.532 402.115C279.257 402.115 278.987 402.178 278.741 402.3L273.876 405.154C273.422 405.415 273.395 405.826 273.876 406.073L279.071 409.064C279.316 409.189 279.587 409.255 279.861 409.255C280.136 409.255 280.407 409.189 280.652 409.064L285.517 406.238C285.915 405.95 285.943 405.538 285.517 405.305Z" fill="#514B6A"/>
<path opacity="0.5" d="M293.557 409.942L288.362 406.937C288.117 406.812 287.847 406.747 287.572 406.747C287.297 406.747 287.026 406.812 286.781 406.937L281.916 409.778C281.463 410.038 281.435 410.45 281.847 410.683L287.056 413.688C287.302 413.81 287.572 413.873 287.847 413.873C288.121 413.873 288.391 413.81 288.637 413.688L293.488 410.848C293.956 410.642 293.983 410.175 293.557 409.942Z" fill="#514B6A"/>
<path opacity="0.5" d="M301.597 414.566L296.389 411.575C296.145 411.446 295.874 411.379 295.598 411.379C295.323 411.379 295.052 411.446 294.808 411.575L289.956 414.401C289.503 414.662 289.475 415.074 289.956 415.321L295.165 418.325C295.41 418.449 295.681 418.514 295.956 418.514C296.23 418.514 296.501 418.449 296.746 418.325L301.597 415.499C301.982 415.224 302.024 414.758 301.597 414.566Z" fill="#514B6A"/>
<path opacity="0.5" d="M309.637 419.203L304.428 416.199C304.183 416.078 303.912 416.015 303.638 416.015C303.364 416.015 303.094 416.078 302.848 416.199L297.996 419.039C297.543 419.299 297.515 419.711 297.996 419.958L303.205 422.949C303.45 423.074 303.721 423.139 303.995 423.139C304.27 423.139 304.541 423.074 304.786 422.949L309.637 420.123C310.022 419.848 310.05 419.437 309.637 419.203Z" fill="#514B6A"/>
<path opacity="0.5" d="M317.677 423.841L312.469 420.836C312.224 420.711 311.953 420.646 311.678 420.646C311.403 420.646 311.133 420.711 310.888 420.836L306.009 423.717C305.555 423.978 305.528 424.39 305.94 424.623L311.149 427.628C311.395 427.749 311.665 427.811 311.939 427.811C312.214 427.811 312.484 427.749 312.73 427.628L317.581 424.787C318.062 424.486 318.09 424.074 317.677 423.841Z" fill="#514B6A"/>
<path opacity="0.5" d="M331.971 432.073L320.605 425.528C320.36 425.403 320.089 425.338 319.815 425.338C319.54 425.338 319.269 425.403 319.024 425.528L314.173 428.355C313.719 428.629 313.692 429.041 314.104 429.274L325.47 435.819C325.712 435.944 325.981 436.009 326.254 436.009C326.526 436.009 326.795 435.944 327.037 435.819L331.902 432.992C332.356 432.718 332.383 432.306 331.971 432.073Z" fill="#514B6A"/>
<path opacity="0.5" d="M317.224 440.662L307.603 435.174C307.36 435.045 307.088 434.978 306.813 434.978C306.538 434.978 306.266 435.045 306.023 435.174L301.212 438.082C300.759 438.343 300.731 438.755 301.212 439.001L310.833 444.49C311.078 444.615 311.348 444.68 311.623 444.68C311.898 444.68 312.169 444.615 312.414 444.49L317.279 441.663C317.622 441.32 317.65 440.909 317.224 440.662Z" fill="#514B6A"/>
<path opacity="0.5" d="M252.257 394.672L247.048 391.667C246.803 391.543 246.532 391.478 246.258 391.478C245.983 391.478 245.712 391.543 245.467 391.667L240.616 394.493C240.162 394.754 240.135 395.166 240.616 395.413L245.825 398.404C246.068 398.532 246.34 398.599 246.615 398.599C246.891 398.599 247.162 398.532 247.405 398.404L252.257 395.577C252.642 395.317 252.669 394.919 252.257 394.672Z" fill="#514B6A"/>
<path opacity="0.5" d="M244.011 389.925L238.816 386.92C238.57 386.798 238.3 386.734 238.025 386.734C237.751 386.734 237.481 386.798 237.235 386.92L232.37 389.76C231.916 390.021 231.889 390.432 232.37 390.679L237.565 393.67C237.81 393.795 238.08 393.861 238.355 393.861C238.63 393.861 238.901 393.795 239.146 393.67L244.011 390.844C244.409 390.569 244.437 390.171 244.011 389.925Z" fill="#514B6A"/>
<path opacity="0.5" d="M235.778 385.177L230.569 382.173C230.323 382.052 230.053 381.989 229.779 381.989C229.505 381.989 229.235 382.052 228.989 382.173L224.137 385.013C223.684 385.273 223.656 385.685 224.068 385.932L229.277 388.923C229.522 389.048 229.793 389.113 230.068 389.113C230.342 389.113 230.613 389.048 230.858 388.923L235.709 386.097C236.163 385.822 236.19 385.411 235.778 385.177Z" fill="#514B6A"/>
<path opacity="0.5" d="M227.546 380.458L222.337 377.453C222.091 377.331 221.821 377.267 221.547 377.267C221.272 377.267 221.002 377.331 220.756 377.453L215.905 380.293C215.451 380.554 215.41 380.965 215.905 381.212L221.1 384.203C221.345 384.328 221.615 384.394 221.89 384.394C222.165 384.394 222.436 384.328 222.681 384.203L227.546 381.377C227.931 381.075 227.958 380.663 227.546 380.458Z" fill="#514B6A"/>
<path opacity="0.5" d="M260.297 399.309L255.157 396.304C254.912 396.179 254.642 396.114 254.367 396.114C254.092 396.114 253.821 396.179 253.576 396.304L248.725 399.144C248.271 399.405 248.23 399.817 248.656 400.05L253.783 403.096C254.027 403.221 254.298 403.286 254.573 403.286C254.848 403.286 255.119 403.221 255.363 403.096L260.215 400.256C260.654 399.954 260.654 399.542 260.297 399.309Z" fill="#514B6A"/>
<path opacity="0.5" d="M268.337 403.933L263.128 400.942C262.884 400.817 262.613 400.751 262.338 400.751C262.063 400.751 261.792 400.817 261.548 400.942L256.696 403.782C256.229 404.056 256.201 404.468 256.628 404.701L261.823 407.706C262.068 407.828 262.339 407.891 262.613 407.891C262.887 407.891 263.158 407.828 263.403 407.706L268.269 404.866C268.722 404.591 268.75 404.18 268.337 403.933Z" fill="#514B6A"/>
<path opacity="0.5" d="M276.364 408.57L271.169 405.566C270.924 405.44 270.653 405.375 270.378 405.375C270.104 405.375 269.833 405.44 269.588 405.566L264.778 408.447C264.324 408.707 264.297 409.119 264.778 409.366L269.973 412.357C270.216 412.486 270.488 412.553 270.763 412.553C271.039 412.553 271.31 412.486 271.553 412.357L276.419 409.531C276.762 409.27 276.79 408.817 276.364 408.57Z" fill="#514B6A"/>
<path opacity="0.5" d="M284.404 413.208L279.208 410.203C278.964 410.078 278.693 410.012 278.418 410.012C278.143 410.012 277.872 410.078 277.628 410.203L272.763 413.043C272.309 413.304 272.282 413.715 272.694 413.948L277.903 416.953C278.147 417.078 278.418 417.144 278.693 417.144C278.968 417.144 279.239 417.078 279.483 416.953L284.335 414.113C284.788 413.852 284.83 413.386 284.404 413.208Z" fill="#514B6A"/>
<path opacity="0.5" d="M292.444 417.831L287.235 414.84C286.99 414.715 286.72 414.65 286.445 414.65C286.17 414.65 285.899 414.715 285.654 414.84L280.803 417.667C280.349 417.941 280.322 418.353 280.803 418.586L285.943 421.618C286.189 421.739 286.459 421.802 286.733 421.802C287.007 421.802 287.278 421.739 287.524 421.618L292.375 418.778C292.829 418.49 292.87 418.078 292.444 417.831Z" fill="#514B6A"/>
<path opacity="0.5" d="M300.512 422.469L295.303 419.464C295.058 419.34 294.787 419.275 294.512 419.275C294.238 419.275 293.967 419.34 293.722 419.464L288.871 422.29C288.417 422.551 288.39 422.963 288.871 423.21L294.079 426.201C294.323 426.329 294.594 426.396 294.87 426.396C295.145 426.396 295.416 426.329 295.66 426.201L300.512 423.374C300.869 423.114 300.896 422.716 300.512 422.469Z" fill="#514B6A"/>
<path opacity="0.5" d="M308.524 427.106L303.26 424.101C303.016 423.976 302.745 423.911 302.47 423.911C302.195 423.911 301.924 423.976 301.68 424.101L296.828 426.941C296.375 427.202 296.347 427.614 296.759 427.847L301.968 430.852C302.213 430.977 302.484 431.042 302.759 431.042C303.033 431.042 303.304 430.977 303.549 430.852L308.4 428.012C308.909 427.751 308.936 427.339 308.524 427.106Z" fill="#514B6A"/>
<path opacity="0.5" d="M316.564 431.73L311.355 428.739C311.111 428.614 310.84 428.548 310.565 428.548C310.29 428.548 310.019 428.614 309.775 428.739L304.923 431.565C304.47 431.84 304.428 432.251 304.854 432.484L310.063 435.489C310.309 435.61 310.579 435.673 310.854 435.673C311.128 435.673 311.398 435.61 311.644 435.489L316.495 432.649C317.004 432.388 317.004 431.977 316.564 431.73Z" fill="#514B6A"/>
<path opacity="0.5" d="M324.604 436.367L319.395 433.363C319.151 433.237 318.88 433.172 318.605 433.172C318.33 433.172 318.059 433.237 317.815 433.363L312.963 436.189C312.496 436.45 312.469 436.861 312.895 437.108L318.09 440.099C318.333 440.228 318.605 440.295 318.88 440.295C319.156 440.295 319.427 440.228 319.67 440.099L324.536 437.273C324.989 437.012 325.017 436.614 324.604 436.367Z" fill="#514B6A"/>
<path opacity="0.5" d="M232.823 392.024L227.669 389.019C227.425 388.894 227.154 388.828 226.879 388.828C226.604 388.828 226.333 388.894 226.089 389.019L221.224 391.859C220.77 392.12 220.743 392.531 221.224 392.764L226.419 395.769C226.663 395.894 226.934 395.96 227.209 395.96C227.484 395.96 227.755 395.894 227.999 395.769L232.865 392.929C233.167 392.668 233.249 392.257 232.823 392.024Z" fill="#514B6A"/>
<path opacity="0.5" d="M224.825 387.414L219.629 384.409C219.384 384.287 219.113 384.223 218.839 384.223C218.565 384.223 218.294 384.287 218.049 384.409L213.184 387.318C212.73 387.578 212.703 387.99 213.184 388.223L218.379 391.228C218.623 391.353 218.894 391.418 219.169 391.418C219.444 391.418 219.715 391.353 219.959 391.228L224.825 388.388C225.223 388.059 225.251 387.647 224.825 387.414Z" fill="#514B6A"/>
<path opacity="0.5" d="M216.839 382.804L211.63 379.799C211.385 379.677 211.114 379.614 210.84 379.614C210.566 379.614 210.295 379.677 210.05 379.799L205.198 382.639C204.731 382.9 204.703 383.311 205.129 383.545L210.325 386.549C210.569 386.675 210.84 386.74 211.115 386.74C211.39 386.74 211.661 386.675 211.905 386.549L216.77 383.709C217.224 383.449 217.252 383.037 216.839 382.804Z" fill="#514B6A"/>
<path opacity="0.5" d="M208.84 378.194L203.631 375.189C203.386 375.067 203.115 375.004 202.841 375.004C202.567 375.004 202.296 375.067 202.051 375.189L197.199 378.029C196.746 378.29 196.705 378.701 197.199 378.935L202.408 381.939C202.65 382.065 202.919 382.13 203.192 382.13C203.464 382.13 203.733 382.065 203.975 381.939L208.772 379.086C209.225 378.839 209.253 378.427 208.84 378.194Z" fill="#514B6A"/>
<path opacity="0.5" d="M201.089 382.708L195.88 379.703C195.634 379.582 195.364 379.519 195.09 379.519C194.816 379.519 194.545 379.582 194.299 379.703L192.705 380.65C192.252 380.91 192.21 381.322 192.705 381.555L197.845 384.574C198.087 384.699 198.356 384.764 198.629 384.764C198.901 384.764 199.17 384.699 199.412 384.574L201.02 383.641C201.474 383.353 201.556 382.941 201.089 382.708Z" fill="#514B6A"/>
<path opacity="0.5" d="M211.534 388.69L206.325 385.699C206.081 385.573 205.81 385.508 205.535 385.508C205.26 385.508 204.989 385.573 204.745 385.699L203.137 386.632C202.683 386.892 202.656 387.304 203.068 387.551L208.277 390.556C208.522 390.68 208.792 390.744 209.067 390.744C209.342 390.744 209.613 390.68 209.857 390.556L211.465 389.623C211.919 389.376 211.946 388.964 211.534 388.69Z" fill="#514B6A"/>
<path opacity="0.5" d="M219.492 393.313L214.283 390.309C214.038 390.185 213.767 390.12 213.493 390.12C213.218 390.12 212.947 390.185 212.702 390.309L211.108 391.242C210.654 391.502 210.613 391.914 211.108 392.161L216.317 395.152C216.559 395.277 216.828 395.342 217.1 395.342C217.373 395.342 217.642 395.277 217.884 395.152L219.423 394.178C219.877 393.958 219.904 393.56 219.492 393.313Z" fill="#514B6A"/>
<path opacity="0.5" d="M227.463 397.91L222.254 394.905C222.01 394.78 221.739 394.714 221.464 394.714C221.189 394.714 220.918 394.78 220.674 394.905L219.066 395.838C218.612 396.112 218.585 396.524 219.066 396.757L224.275 399.762C224.521 399.883 224.791 399.946 225.065 399.946C225.339 399.946 225.609 399.883 225.855 399.762L227.463 398.815C227.848 398.554 227.876 398.143 227.463 397.91Z" fill="#514B6A"/>
<path opacity="0.5" d="M235.421 402.492L230.212 399.501C229.969 399.373 229.697 399.305 229.422 399.305C229.146 399.305 228.875 399.373 228.631 399.501L227.037 400.434C226.584 400.695 226.542 401.106 227.037 401.353L232.246 404.344C232.491 404.47 232.762 404.535 233.036 404.535C233.311 404.535 233.582 404.47 233.827 404.344L235.421 403.411C235.806 403.151 235.916 402.739 235.421 402.492Z" fill="#514B6A"/>
<path opacity="0.5" d="M279.896 428.121L274.687 425.117C274.442 424.991 274.171 424.926 273.897 424.926C273.622 424.926 273.351 424.991 273.106 425.117L271.498 426.05C271.045 426.31 271.017 426.722 271.498 426.969L276.707 429.96C276.952 430.085 277.223 430.15 277.497 430.15C277.772 430.15 278.043 430.085 278.288 429.96L279.896 429.027C280.281 428.78 280.308 428.368 279.896 428.121Z" fill="#514B6A"/>
<path opacity="0.5" d="M287.853 432.718L282.645 429.713C282.399 429.592 282.128 429.529 281.854 429.529C281.58 429.529 281.31 429.592 281.064 429.713L279.47 430.646C279.016 430.92 278.975 431.332 279.401 431.565L284.61 434.57C284.853 434.692 285.121 434.755 285.393 434.755C285.665 434.755 285.934 434.692 286.177 434.57L287.785 433.623C288.238 433.362 288.266 432.951 287.853 432.718Z" fill="#514B6A"/>
<path opacity="0.5" d="M295.825 437.3L290.616 434.309C290.371 434.184 290.101 434.119 289.826 434.119C289.551 434.119 289.28 434.184 289.035 434.309L287.427 435.242C286.974 435.503 286.946 435.914 287.427 436.161L292.636 439.166C292.881 439.29 293.152 439.355 293.427 439.355C293.701 439.355 293.972 439.29 294.217 439.166L295.825 438.233C296.21 437.959 296.237 437.547 295.825 437.3Z" fill="#514B6A"/>
<path opacity="0.5" d="M303.782 441.896L298.574 438.892C298.328 438.771 298.057 438.708 297.783 438.708C297.509 438.708 297.239 438.771 296.993 438.892L295.399 439.838C294.945 440.099 294.904 440.511 295.33 440.744L300.539 443.749C300.781 443.874 301.05 443.939 301.322 443.939C301.595 443.939 301.864 443.874 302.106 443.749L303.714 442.816C304.167 442.541 304.208 442.198 303.782 441.896Z" fill="#514B6A"/>
<path opacity="0.5" d="M240.863 396.647L235.668 393.656C235.424 393.531 235.153 393.466 234.878 393.466C234.603 393.466 234.332 393.531 234.088 393.656L229.222 396.483C228.769 396.757 228.741 397.169 229.222 397.402L234.431 400.407C234.677 400.529 234.947 400.592 235.222 400.592C235.496 400.592 235.766 400.529 236.012 400.407L240.863 397.567C241.262 397.306 241.289 396.922 240.863 396.647Z" fill="#514B6A"/>
<path opacity="0.5" d="M248.904 401.285L243.695 398.294C243.45 398.17 243.179 398.105 242.904 398.105C242.63 398.105 242.359 398.17 242.114 398.294L237.29 401.161C236.836 401.422 236.809 401.834 237.29 402.081L242.499 405.072C242.742 405.2 243.014 405.267 243.289 405.267C243.565 405.267 243.836 405.2 244.079 405.072L248.931 402.245C249.288 401.93 249.33 401.532 248.904 401.285Z" fill="#514B6A"/>
<path opacity="0.5" d="M256.944 405.922L251.735 402.917C251.489 402.796 251.219 402.734 250.945 402.734C250.67 402.734 250.4 402.796 250.154 402.917L245.303 405.758C244.849 406.018 244.822 406.43 245.234 406.663L250.443 409.668C250.687 409.793 250.958 409.858 251.233 409.858C251.508 409.858 251.779 409.793 252.023 409.668L256.875 406.828C257.329 406.526 257.356 406.155 256.944 405.922Z" fill="#514B6A"/>
<path opacity="0.5" d="M264.984 410.546L259.775 407.555C259.53 407.43 259.259 407.364 258.985 407.364C258.71 407.364 258.439 407.43 258.194 407.555L253.343 410.381C252.889 410.656 252.862 411.067 253.274 411.3L258.483 414.305C258.729 414.426 258.999 414.489 259.273 414.489C259.547 414.489 259.818 414.426 260.063 414.305L264.915 411.465C265.369 411.204 265.396 410.793 264.984 410.546Z" fill="#514B6A"/>
<path opacity="0.5" d="M273.024 415.183L267.815 412.179C267.57 412.055 267.299 411.99 267.025 411.99C266.75 411.99 266.479 412.055 266.234 412.179L261.383 415.005C260.929 415.266 260.902 415.677 261.314 415.924L266.523 418.915C266.766 419.044 267.038 419.111 267.313 419.111C267.589 419.111 267.86 419.044 268.103 418.915L273.024 416.13C273.409 415.842 273.436 415.43 273.024 415.183Z" fill="#514B6A"/>
<path opacity="0.5" d="M281.064 419.821L275.855 416.816C275.61 416.694 275.339 416.63 275.065 416.63C274.791 416.63 274.52 416.694 274.275 416.816L269.423 419.656C268.97 419.917 268.928 420.328 269.423 420.562L274.632 423.566C274.874 423.691 275.143 423.757 275.415 423.757C275.688 423.757 275.957 423.691 276.199 423.566L281.064 420.726C281.449 420.466 281.476 420.054 281.064 419.821Z" fill="#514B6A"/>
<path opacity="0.5" d="M289.09 424.444L283.895 421.453C283.651 421.328 283.38 421.263 283.105 421.263C282.83 421.263 282.559 421.328 282.315 421.453L277.449 424.362C276.996 424.637 276.968 425.048 277.449 425.281L282.645 428.286C282.89 428.408 283.161 428.472 283.435 428.472C283.709 428.472 283.98 428.408 284.225 428.286L289.09 425.446C289.516 425.103 289.516 424.691 289.09 424.444Z" fill="#514B6A"/>
<path opacity="0.5" d="M297.131 429.082L291.936 426.077C291.691 425.952 291.42 425.887 291.145 425.887C290.87 425.887 290.6 425.952 290.355 426.077L285.49 428.903C285.036 429.164 285.009 429.576 285.49 429.823L290.685 432.814C290.928 432.942 291.2 433.009 291.475 433.009C291.751 433.009 292.022 432.942 292.265 432.814L297.131 429.987C297.529 429.74 297.557 429.329 297.131 429.082Z" fill="#514B6A"/>
<path opacity="0.5" d="M305.171 433.719L299.962 430.715C299.719 430.593 299.45 430.529 299.178 430.529C298.906 430.529 298.638 430.593 298.395 430.715L293.53 433.555C293.076 433.815 293.049 434.227 293.53 434.46L298.739 437.465C298.983 437.59 299.254 437.655 299.529 437.655C299.804 437.655 300.075 437.59 300.319 437.465L305.171 434.625C305.556 434.364 305.597 433.966 305.171 433.719Z" fill="#514B6A"/>
<path opacity="0.5" d="M240.492 370.853L225.154 362.018C224.909 361.894 224.639 361.829 224.364 361.829C224.089 361.829 223.819 361.894 223.574 362.018L218.722 364.844C218.269 365.105 218.241 365.516 218.722 365.763L234.06 374.599C234.306 374.72 234.576 374.783 234.85 374.783C235.125 374.783 235.395 374.72 235.641 374.599L240.492 371.759C240.877 371.457 240.905 371.046 240.492 370.853Z" fill="#514B6A"/>
<path opacity="0.5" d="M339.242 427.723L323.876 418.874C323.631 418.749 323.361 418.683 323.086 418.683C322.811 418.683 322.54 418.749 322.295 418.874L317.43 421.7C316.977 421.975 316.949 422.386 317.361 422.62L332.699 431.455C332.944 431.581 333.215 431.646 333.49 431.646C333.765 431.646 334.035 431.581 334.28 431.455L339.132 428.629C339.626 428.368 339.654 427.957 339.242 427.723Z" fill="#514B6A"/>
<path opacity="0.5" d="M324.33 409.435L319.121 406.43C318.875 406.309 318.605 406.246 318.331 406.246C318.056 406.246 317.786 406.309 317.54 406.43L311.768 409.805C311.314 410.079 311.273 410.491 311.699 410.724L316.894 413.729C317.14 413.851 317.41 413.914 317.685 413.914C317.959 413.914 318.229 413.851 318.475 413.729L324.261 410.354C324.715 410.079 324.756 409.681 324.33 409.435Z" fill="#514B6A"/>
<path opacity="0.5" d="M265.96 375.793L257.631 370.991C257.385 370.87 257.115 370.807 256.841 370.807C256.566 370.807 256.296 370.87 256.05 370.991L250.264 374.366C249.811 374.64 249.783 375.038 250.264 375.285L258.51 380.087C258.755 380.212 259.026 380.278 259.301 380.278C259.575 380.278 259.846 380.212 260.091 380.087L265.877 376.726C266.344 376.438 266.372 376.026 265.96 375.793Z" fill="#514B6A"/>
<path opacity="0.5" d="M316.592 404.975L308.263 400.173C308.018 400.048 307.747 399.983 307.473 399.983C307.198 399.983 306.927 400.048 306.682 400.173L300.896 403.549C300.443 403.809 300.415 404.221 300.827 404.468L309.156 409.256C309.4 409.385 309.671 409.452 309.946 409.452C310.222 409.452 310.493 409.385 310.737 409.256L316.523 405.881C317.004 405.62 317.004 405.154 316.592 404.975Z" fill="#514B6A"/>
<path opacity="0.5" d="M277.559 382.475L269.231 377.714C268.985 377.593 268.714 377.53 268.44 377.53C268.166 377.53 267.896 377.593 267.65 377.714L261.864 381.089C261.41 381.363 261.383 381.775 261.864 382.008L270.193 386.81C270.439 386.931 270.709 386.994 270.983 386.994C271.257 386.994 271.527 386.931 271.773 386.81L277.559 383.435C277.944 383.119 277.972 382.721 277.559 382.475Z" fill="#514B6A"/>
<path opacity="0.5" d="M261.85 382.049L298.051 402.904C298.296 403.029 298.567 403.094 298.842 403.094C299.116 403.094 299.387 403.029 299.632 402.904L305.528 399.474C305.954 399.227 305.926 398.815 305.528 398.554L269.285 377.714L261.85 382.049Z" fill="#514B6A"/>
<path opacity="0.5" d="M339.131 422.277L344.931 425.611C345.13 425.716 345.352 425.772 345.577 425.772C345.803 425.772 346.024 425.716 346.223 425.611L348.601 424.239C348.972 424.019 348.986 423.69 348.601 423.484L342.815 420.15C342.612 420.049 342.389 419.996 342.162 419.996C341.935 419.996 341.712 420.049 341.509 420.15L339.145 421.522C338.815 421.742 338.788 422.071 339.131 422.277Z" fill="#514B6A"/>
<path opacity="0.5" d="M331.036 417.598L336.823 420.946C337.034 421.059 337.27 421.118 337.51 421.118C337.75 421.118 337.986 421.059 338.197 420.946L340.561 419.574C340.932 419.354 340.959 419.011 340.561 418.819L334.761 415.471C334.562 415.366 334.34 415.31 334.115 415.31C333.89 415.31 333.668 415.366 333.469 415.471L331.105 416.843C330.748 417.077 330.748 417.406 331.036 417.598Z" fill="#514B6A"/>
<path opacity="0.5" d="M322.996 412.974L328.796 416.308C328.995 416.414 329.217 416.469 329.442 416.469C329.667 416.469 329.889 416.414 330.088 416.308L332.452 414.936C332.823 414.717 332.851 414.388 332.452 414.182L326.652 410.848C326.453 410.742 326.231 410.687 326.006 410.687C325.781 410.687 325.559 410.742 325.36 410.848L322.996 412.22C322.68 412.439 322.653 412.769 322.996 412.974Z" fill="#514B6A"/>
<path opacity="0.5" d="M326.845 420.04L332.645 423.388C332.856 423.501 333.092 423.56 333.332 423.56C333.571 423.56 333.808 423.501 334.019 423.388L336.383 422.016C336.754 421.81 336.781 421.467 336.383 421.275L330.583 417.927C330.384 417.822 330.162 417.766 329.937 417.766C329.712 417.766 329.49 417.822 329.291 417.927L326.913 419.299C326.529 419.505 326.515 419.848 326.845 420.04Z" fill="#514B6A"/>
</g>
<path opacity="0.15" d="M238.802 319.115V369.77C238.85 370.397 239.065 371 239.425 371.516C239.785 372.032 240.277 372.443 240.85 372.706L283.016 397.004C286.053 398.76 291.358 398.541 294.863 396.524C296.828 395.385 297.804 393.931 297.763 392.559V341.876L238.802 319.115Z" fill="url(#paint9_linear)"/>
<path opacity="0.3" d="M286.177 398.019C289.158 398.471 292.205 397.946 294.863 396.524C296.828 395.385 297.804 393.931 297.763 392.559V341.877L286.383 337.486H286.177V398.019Z" fill="#514B6A"/>
<path opacity="0.15" d="M283.016 346.349L240.85 322.037C237.812 320.295 238.197 317.235 241.702 315.177C245.206 313.147 250.498 312.927 253.535 314.683L295.715 339.023C298.752 340.779 298.367 343.839 294.863 345.883C291.358 347.872 286.053 348.092 283.016 346.349Z" fill="url(#paint10_linear)"/>
<path opacity="0.5" d="M283.016 416.967L240.85 392.655C237.812 390.912 238.197 387.853 241.702 385.795C245.206 383.778 250.498 383.558 253.535 385.301L295.715 409.613C298.752 411.355 298.367 414.415 294.863 416.473C291.358 418.49 286.053 418.709 283.016 416.967Z" fill="#514B6A"/>
<path opacity="0.15" d="M287.221 343.084C286.255 343.084 285.329 342.701 284.646 342.019C283.963 341.337 283.579 340.412 283.579 339.448V316.933C283.579 309.264 277.958 299.536 271.292 295.694L261.672 290.11C259.115 288.642 256.806 288.286 255.336 289.123C253.865 289.959 253.027 292.155 253.027 295.091V317.606C253.027 318.57 252.643 319.495 251.96 320.176C251.277 320.858 250.351 321.241 249.385 321.241C248.419 321.241 247.492 320.858 246.809 320.176C246.126 319.495 245.742 318.57 245.742 317.606V295.091C245.742 289.397 247.859 285.034 251.694 282.825C255.528 280.616 260.38 280.959 265.314 283.813L274.934 289.383C283.868 294.542 290.891 306.643 290.891 316.933V339.448C290.889 339.927 290.793 340.402 290.607 340.844C290.422 341.286 290.151 341.687 289.81 342.025C289.47 342.362 289.066 342.63 288.621 342.811C288.177 342.993 287.701 343.086 287.221 343.084Z" fill="url(#paint11_linear)"/>
</g>
</g>
<g opacity="0.8">
<path opacity="0.8" d="M125.443 424.65L120.289 421.618C119.877 421.385 119.918 420.96 120.399 420.685L126.487 417.187C126.736 417.059 127.012 416.992 127.291 416.992C127.571 416.992 127.847 417.059 128.095 417.187L133.249 420.15C133.675 420.397 133.621 420.809 133.139 421.083L127.051 424.595C126.806 424.728 126.533 424.803 126.253 424.812C125.974 424.822 125.697 424.766 125.443 424.65Z" fill="#514B6A"/>
<path opacity="0.8" d="M133.401 429.233L128.247 426.256C127.834 426.022 127.889 425.611 128.357 425.336L134.445 421.824C134.692 421.689 134.967 421.612 135.248 421.6C135.529 421.588 135.81 421.641 136.067 421.755L141.221 424.733C141.633 424.966 141.578 425.377 141.097 425.666L135.009 429.164C134.764 429.299 134.492 429.376 134.213 429.388C133.934 429.4 133.656 429.347 133.401 429.233Z" fill="#514B6A"/>
<path opacity="0.8" d="M141.358 433.815L136.204 430.852C135.792 430.605 135.847 430.193 136.328 429.919L142.458 426.406C142.709 426.279 142.987 426.212 143.269 426.212C143.55 426.212 143.828 426.279 144.079 426.406L149.233 429.37C149.646 429.603 149.591 430.029 149.11 430.303L143.035 433.815C142.777 433.952 142.489 434.024 142.197 434.024C141.904 434.024 141.616 433.952 141.358 433.815Z" fill="#514B6A"/>
<path opacity="0.8" d="M152.367 430.029L147.213 427.106C146.801 426.859 146.856 426.448 147.337 426.173L152.436 423.223C152.688 423.099 152.965 423.034 153.247 423.034C153.528 423.034 153.805 423.099 154.057 423.223L159.211 426.201C159.624 426.434 159.569 426.859 159.088 427.134L153.989 430.07C153.734 430.191 153.455 430.251 153.173 430.244C152.891 430.236 152.615 430.163 152.367 430.029Z" fill="#514B6A"/>
<path opacity="0.8" d="M160.325 434.625L155.157 431.648C154.745 431.414 154.8 430.989 155.281 430.715L160.394 427.778C160.637 427.64 160.91 427.562 161.189 427.55C161.469 427.538 161.747 427.593 162.002 427.71L167.197 430.673C167.609 430.92 167.554 431.332 167.087 431.606L161.974 434.556C161.725 434.698 161.445 434.778 161.158 434.79C160.871 434.802 160.585 434.746 160.325 434.625Z" fill="#514B6A"/>
<path opacity="0.8" d="M168.296 439.207L163.142 436.244C162.73 435.997 162.771 435.585 163.252 435.311L168.365 432.361C168.609 432.226 168.881 432.149 169.161 432.137C169.44 432.125 169.718 432.179 169.973 432.292L175.127 435.338C175.539 435.572 175.498 435.997 175.017 436.271L169.945 439.139C169.696 439.281 169.416 439.361 169.129 439.373C168.842 439.385 168.556 439.328 168.296 439.207Z" fill="#514B6A"/>
<path opacity="0.8" d="M176.254 443.79L171.1 440.826C170.687 440.593 170.742 440.168 171.21 439.893L176.322 436.957C176.564 436.816 176.838 436.735 177.118 436.723C177.398 436.711 177.677 436.768 177.93 436.889L183.098 439.852C183.51 440.099 183.455 440.511 182.974 440.785L177.862 443.735C177.617 443.871 177.344 443.947 177.064 443.957C176.785 443.966 176.507 443.909 176.254 443.79Z" fill="#514B6A"/>
<path opacity="0.8" d="M184.211 448.386L179.058 445.409C178.645 445.176 178.7 444.764 179.181 444.49L184.28 441.54C184.527 441.404 184.802 441.328 185.083 441.316C185.364 441.304 185.645 441.357 185.902 441.471L191.056 444.448C191.468 444.682 191.413 445.093 190.932 445.368L185.833 448.318C185.586 448.453 185.312 448.53 185.03 448.541C184.749 448.553 184.469 448.5 184.211 448.386Z" fill="#514B6A"/>
<path opacity="0.8" d="M192.169 452.969L187.015 450.005C186.603 449.758 186.658 449.347 187.139 449.072L192.238 446.122C192.484 445.987 192.759 445.91 193.041 445.898C193.322 445.887 193.602 445.94 193.859 446.054L199.013 449.031C199.426 449.264 199.371 449.69 198.903 449.964L193.791 452.9C193.546 453.042 193.271 453.122 192.988 453.134C192.706 453.146 192.425 453.089 192.169 452.969Z" fill="#514B6A"/>
<path opacity="0.8" d="M200.182 457.565L194.986 454.547C194.56 454.313 194.615 453.888 195.096 453.614L200.209 450.677C200.453 450.542 200.726 450.466 201.005 450.454C201.284 450.442 201.562 450.495 201.817 450.609L206.971 453.572C207.383 453.819 207.342 454.231 206.861 454.505L201.748 457.455C201.513 457.59 201.249 457.671 200.978 457.69C200.706 457.709 200.434 457.666 200.182 457.565Z" fill="#514B6A"/>
<path opacity="0.8" d="M208.098 462.147L202.93 459.184C202.518 458.937 202.559 458.525 203.04 458.251L208.153 455.301C208.397 455.166 208.67 455.089 208.949 455.077C209.228 455.066 209.506 455.119 209.761 455.233L214.915 458.21C215.341 458.443 215.286 458.868 214.805 459.143L209.692 462.079C209.451 462.215 209.18 462.292 208.903 462.304C208.626 462.316 208.35 462.262 208.098 462.147Z" fill="#514B6A"/>
<path opacity="0.8" d="M216.056 466.744L210.902 463.766C210.489 463.533 210.544 463.108 211.012 462.833L216.124 459.897C216.37 459.759 216.645 459.681 216.927 459.669C217.209 459.657 217.49 459.712 217.746 459.829L222.9 462.792C223.312 463.039 223.257 463.451 222.776 463.725L217.677 466.675C217.431 466.81 217.156 466.887 216.875 466.899C216.593 466.911 216.313 466.858 216.056 466.744Z" fill="#514B6A"/>
<path opacity="0.8" d="M224.013 471.326L218.86 468.349C218.447 468.116 218.502 467.704 218.983 467.43L224.082 464.48C224.329 464.345 224.604 464.268 224.885 464.256C225.166 464.244 225.447 464.297 225.704 464.411L230.858 467.389C231.27 467.622 231.215 468.034 230.734 468.322L225.635 471.258C225.388 471.393 225.114 471.47 224.832 471.482C224.551 471.494 224.271 471.44 224.013 471.326Z" fill="#514B6A"/>
<path opacity="0.8" d="M164.104 427.861L158.95 424.884C158.538 424.65 158.579 424.239 159.06 423.964L164.173 421.014C164.422 420.89 164.698 420.825 164.977 420.825C165.256 420.825 165.531 420.89 165.781 421.014L170.935 423.992C171.347 424.225 171.306 424.637 170.825 424.911L165.712 427.861C165.462 427.985 165.187 428.05 164.908 428.05C164.629 428.05 164.354 427.985 164.104 427.861Z" fill="#514B6A"/>
<path opacity="0.8" d="M156.023 423.21L150.869 420.246C150.457 420.013 150.498 419.588 150.979 419.313L156.091 416.377C156.339 416.246 156.615 416.178 156.896 416.178C157.176 416.178 157.452 416.246 157.7 416.377L162.853 419.341C163.279 419.588 163.225 419.999 162.743 420.274L157.576 423.141C157.339 423.268 157.076 423.339 156.807 423.351C156.538 423.363 156.27 423.315 156.023 423.21Z" fill="#514B6A"/>
<path opacity="0.8" d="M147.955 418.545L136.85 412.138C136.438 411.904 136.493 411.479 136.974 411.205L142.073 408.268C142.324 408.141 142.602 408.074 142.884 408.074C143.166 408.074 143.443 408.141 143.695 408.268L154.827 414.593C155.239 414.84 155.184 415.252 154.703 415.526L149.604 418.476C149.354 418.616 149.075 418.695 148.788 418.707C148.502 418.719 148.216 418.663 147.955 418.545Z" fill="#514B6A"/>
<path opacity="0.8" d="M153.59 412.865L144.574 407.679C144.162 407.432 144.217 407.02 144.698 406.746L149.797 403.782C150.044 403.647 150.319 403.57 150.6 403.558C150.881 403.546 151.161 403.599 151.419 403.713L160.421 408.913C160.833 409.147 160.792 409.572 160.311 409.846L155.198 412.782C154.955 412.92 154.683 412.999 154.404 413.013C154.125 413.027 153.846 412.977 153.59 412.865Z" fill="#514B6A"/>
<path opacity="0.8" d="M172.062 432.443L166.908 429.48C166.496 429.233 166.551 428.821 167.018 428.547L172.131 425.597C172.379 425.469 172.655 425.403 172.935 425.403C173.214 425.403 173.49 425.469 173.739 425.597L178.906 428.478C179.319 428.711 179.264 429.137 178.783 429.411L173.67 432.347C173.43 432.493 173.158 432.578 172.878 432.595C172.597 432.612 172.317 432.56 172.062 432.443Z" fill="#514B6A"/>
<path opacity="0.8" d="M180.02 437.04L174.866 434.062C174.453 433.829 174.508 433.404 174.989 433.129L180.088 430.193C180.335 430.058 180.61 429.981 180.891 429.969C181.172 429.958 181.453 430.011 181.71 430.125L186.864 433.088C187.276 433.335 187.221 433.747 186.74 434.021L181.641 436.971C181.395 437.106 181.12 437.183 180.838 437.195C180.557 437.207 180.277 437.154 180.02 437.04Z" fill="#514B6A"/>
<path opacity="0.8" d="M187.977 441.622L182.823 438.659C182.411 438.412 182.466 438 182.947 437.726L188.046 434.776C188.293 434.64 188.568 434.564 188.849 434.552C189.13 434.54 189.41 434.593 189.668 434.707L194.822 437.684C195.234 437.918 195.179 438.343 194.712 438.617L189.599 441.554C189.353 441.692 189.078 441.77 188.796 441.782C188.515 441.794 188.234 441.739 187.977 441.622Z" fill="#514B6A"/>
<path opacity="0.8" d="M195.948 446.218L190.795 443.241C190.369 443.008 190.424 442.583 190.905 442.308L196.017 439.372C196.26 439.234 196.533 439.155 196.813 439.143C197.093 439.132 197.371 439.186 197.625 439.303L202.779 442.267C203.191 442.514 203.15 442.926 202.669 443.2L197.557 446.15C197.312 446.285 197.04 446.362 196.761 446.374C196.482 446.385 196.203 446.332 195.948 446.218Z" fill="#514B6A"/>
<path opacity="0.8" d="M203.906 450.801L198.807 447.824C198.395 447.591 198.436 447.179 198.917 446.904L204.03 443.955C204.274 443.819 204.547 443.743 204.826 443.731C205.105 443.719 205.383 443.772 205.638 443.886L210.792 446.863C211.218 447.097 211.163 447.508 210.682 447.796L205.569 450.732C205.318 450.877 205.036 450.958 204.746 450.97C204.457 450.982 204.169 450.924 203.906 450.801Z" fill="#514B6A"/>
<path opacity="0.8" d="M211.864 455.384L206.71 452.42C206.298 452.173 206.353 451.761 206.82 451.487L211.933 448.537C212.184 448.409 212.462 448.343 212.743 448.343C213.025 448.343 213.303 448.409 213.554 448.537L218.708 451.501C219.121 451.748 219.066 452.159 218.585 452.434L213.486 455.384C213.234 455.511 212.957 455.578 212.675 455.578C212.393 455.578 212.115 455.511 211.864 455.384Z" fill="#514B6A"/>
<path opacity="0.8" d="M219.822 460.035L214.668 457.057C214.255 456.824 214.31 456.413 214.791 456.124L219.89 453.188C220.137 453.053 220.412 452.976 220.693 452.964C220.974 452.953 221.255 453.006 221.512 453.12L226.666 456.097C227.078 456.33 227.023 456.742 226.542 457.016L221.443 459.966C221.197 460.101 220.922 460.178 220.64 460.19C220.359 460.202 220.079 460.149 219.822 460.035Z" fill="#514B6A"/>
<path opacity="0.8" d="M227.793 464.562L222.625 461.599C222.213 461.352 222.268 460.94 222.749 460.666L227.862 457.716C228.106 457.581 228.379 457.504 228.658 457.492C228.937 457.48 229.215 457.533 229.47 457.647L234.624 460.625C235.036 460.858 234.981 461.283 234.514 461.558L229.401 464.494C229.158 464.632 228.885 464.71 228.605 464.722C228.326 464.734 228.047 464.679 227.793 464.562Z" fill="#514B6A"/>
<path opacity="0.8" d="M235.751 469.159L230.597 466.181C230.184 465.948 230.226 465.523 230.707 465.248L235.819 462.312C236.068 462.185 236.344 462.118 236.623 462.118C236.903 462.118 237.179 462.185 237.427 462.312L242.581 465.276C242.994 465.523 242.952 465.934 242.471 466.209L237.359 469.159C237.109 469.283 236.834 469.348 236.555 469.348C236.276 469.348 236 469.283 235.751 469.159Z" fill="#514B6A"/>
<path opacity="0.8" d="M249.907 477.308L238.664 470.832C238.252 470.585 238.307 470.174 238.788 469.899L243.887 466.949C244.139 466.825 244.416 466.76 244.698 466.76C244.979 466.76 245.256 466.825 245.509 466.949L256.751 473.439C257.163 473.672 257.108 474.098 256.641 474.372L251.528 477.308C251.278 477.438 251 477.506 250.717 477.506C250.435 477.506 250.157 477.438 249.907 477.308Z" fill="#514B6A"/>
<path opacity="0.8" d="M265.396 468.377L255.899 462.888C255.487 462.655 255.542 462.244 256.023 461.955L261.135 459.019C261.38 458.884 261.652 458.808 261.931 458.796C262.21 458.784 262.488 458.837 262.743 458.951L272.24 464.439C272.653 464.672 272.598 465.097 272.117 465.372L267.018 468.267C266.774 468.409 266.501 468.492 266.22 468.511C265.938 468.531 265.657 468.484 265.396 468.377Z" fill="#514B6A"/>
<path opacity="0.8" d="M185.998 431.552L180.844 428.574C180.432 428.341 180.487 427.929 180.968 427.655L186.067 424.705C186.314 424.57 186.588 424.493 186.87 424.481C187.151 424.469 187.431 424.523 187.689 424.637L192.842 427.614C193.255 427.847 193.2 428.259 192.719 428.533L187.62 431.483C187.373 431.618 187.098 431.695 186.817 431.707C186.536 431.719 186.255 431.666 185.998 431.552Z" fill="#514B6A"/>
<path opacity="0.8" d="M177.848 426.846L172.694 423.882C172.282 423.635 172.323 423.223 172.804 422.949L177.917 419.999C178.166 419.875 178.442 419.81 178.721 419.81C179 419.81 179.275 419.875 179.525 419.999L184.679 422.977C185.091 423.21 185.05 423.635 184.569 423.909L179.456 426.846C179.207 426.973 178.932 427.04 178.652 427.04C178.372 427.04 178.097 426.973 177.848 426.846Z" fill="#514B6A"/>
<path opacity="0.8" d="M169.684 422.139L164.53 419.176C164.118 418.929 164.173 418.517 164.64 418.243L169.753 415.293C170.004 415.165 170.282 415.099 170.564 415.099C170.846 415.099 171.123 415.165 171.375 415.293L176.529 418.257C176.941 418.504 176.886 418.915 176.405 419.19L171.32 422.085C171.071 422.223 170.793 422.3 170.509 422.31C170.224 422.319 169.941 422.261 169.684 422.139Z" fill="#514B6A"/>
<path opacity="0.8" d="M161.521 417.502L156.367 414.525C155.954 414.292 156.009 413.866 156.49 413.592L161.589 410.642C161.84 410.514 162.118 410.448 162.4 410.448C162.682 410.448 162.96 410.514 163.211 410.642L168.365 413.606C168.777 413.853 168.722 414.264 168.255 414.539L163.142 417.488C162.891 417.615 162.614 417.682 162.333 417.685C162.052 417.687 161.774 417.625 161.521 417.502Z" fill="#514B6A"/>
<path opacity="0.8" d="M193.969 436.134L188.802 433.17C188.389 432.924 188.444 432.512 188.925 432.238L194.038 429.288C194.282 429.152 194.555 429.076 194.834 429.064C195.113 429.052 195.391 429.105 195.646 429.219L200.8 432.196C201.212 432.43 201.157 432.855 200.69 433.129L195.577 436.065C195.335 436.207 195.062 436.287 194.782 436.299C194.502 436.311 194.223 436.255 193.969 436.134Z" fill="#514B6A"/>
<path opacity="0.8" d="M201.927 440.73L196.773 437.753C196.361 437.52 196.402 437.095 196.883 436.82L201.996 433.884C202.24 433.749 202.513 433.672 202.792 433.66C203.071 433.648 203.349 433.702 203.604 433.815L208.758 436.779C209.17 437.026 209.129 437.438 208.648 437.712L203.535 440.662C203.291 440.797 203.018 440.874 202.739 440.885C202.46 440.897 202.182 440.844 201.927 440.73Z" fill="#514B6A"/>
<path opacity="0.8" d="M209.885 445.313L204.731 442.349C204.319 442.102 204.374 441.691 204.841 441.416L209.954 438.466C210.2 438.331 210.475 438.255 210.756 438.243C211.038 438.231 211.318 438.284 211.575 438.398L216.674 441.375C217.087 441.608 217.032 442.034 216.551 442.308L211.452 445.244C211.213 445.374 210.948 445.447 210.676 445.459C210.405 445.471 210.134 445.421 209.885 445.313Z" fill="#514B6A"/>
<path opacity="0.8" d="M217.843 449.909L212.689 446.932C212.276 446.699 212.331 446.273 212.812 445.999L217.911 443.063C218.162 442.935 218.44 442.869 218.722 442.869C219.004 442.869 219.282 442.935 219.533 443.063L224.687 446.026C225.099 446.273 225.044 446.685 224.563 446.959L219.423 449.841C219.182 449.969 218.914 450.043 218.641 450.054C218.367 450.066 218.094 450.017 217.843 449.909Z" fill="#514B6A"/>
<path opacity="0.8" d="M225.8 454.547L220.646 451.569C220.234 451.336 220.289 450.924 220.77 450.65L225.869 447.7C226.116 447.565 226.39 447.488 226.672 447.476C226.953 447.464 227.233 447.518 227.491 447.632L232.644 450.609C233.057 450.842 233.002 451.254 232.534 451.542L227.422 454.478C227.175 454.613 226.9 454.69 226.619 454.702C226.338 454.714 226.057 454.661 225.8 454.547Z" fill="#514B6A"/>
<path opacity="0.8" d="M233.772 459.074L228.618 456.111C228.192 455.864 228.246 455.452 228.728 455.178L233.84 452.228C234.089 452.1 234.365 452.034 234.644 452.034C234.924 452.034 235.2 452.1 235.448 452.228L240.602 455.191C241.014 455.425 240.973 455.85 240.492 456.124L235.38 459.074C235.131 459.202 234.855 459.268 234.576 459.268C234.296 459.268 234.02 459.202 233.772 459.074Z" fill="#514B6A"/>
<path opacity="0.8" d="M241.729 463.67L236.575 460.693C236.163 460.46 236.204 460.035 236.685 459.76L241.798 456.824C242.048 456.7 242.323 456.635 242.602 456.635C242.881 456.635 243.156 456.7 243.406 456.824L248.56 459.801C248.986 460.035 248.931 460.446 248.45 460.721L243.337 463.67C243.088 463.795 242.812 463.86 242.533 463.86C242.254 463.86 241.979 463.795 241.729 463.67Z" fill="#514B6A"/>
<path opacity="0.8" d="M249.659 468.267L244.505 465.303C244.093 465.056 244.148 464.645 244.615 464.37L249.728 461.42C249.975 461.285 250.249 461.208 250.531 461.196C250.812 461.185 251.092 461.238 251.35 461.352L256.504 464.329C256.916 464.562 256.861 464.988 256.38 465.262L251.281 468.198C251.035 468.337 250.76 468.415 250.478 468.427C250.196 468.439 249.916 468.384 249.659 468.267Z" fill="#514B6A"/>
<path opacity="0.8" d="M257.645 472.849L252.491 469.872C252.078 469.639 252.133 469.213 252.614 468.939L257.713 466.003C257.964 465.875 258.242 465.809 258.524 465.809C258.806 465.809 259.084 465.875 259.335 466.003L264.489 468.966C264.901 469.213 264.846 469.625 264.365 469.899L259.28 472.781C259.032 472.918 258.754 472.996 258.47 473.008C258.187 473.02 257.904 472.966 257.645 472.849Z" fill="#514B6A"/>
<path opacity="0.8" d="M181.806 420.246L176.652 417.269C176.24 417.036 176.295 416.61 176.776 416.336L181.875 413.386C182.127 413.261 182.405 413.197 182.686 413.197C182.967 413.197 183.245 413.261 183.497 413.386L188.651 416.35C189.063 416.597 189.008 417.008 188.527 417.283L183.428 420.232C183.177 420.359 182.9 420.426 182.619 420.429C182.338 420.431 182.06 420.369 181.806 420.246Z" fill="#514B6A"/>
<path opacity="0.8" d="M173.89 415.636L168.736 412.659C168.324 412.426 168.379 412.014 168.846 411.74L173.959 408.79C174.203 408.655 174.475 408.578 174.755 408.566C175.034 408.554 175.312 408.607 175.567 408.721L180.734 411.699C181.147 411.932 181.092 412.343 180.611 412.632L175.443 415.568C175.206 415.694 174.943 415.766 174.674 415.778C174.406 415.79 174.138 415.741 173.89 415.636Z" fill="#514B6A"/>
<path opacity="0.8" d="M165.973 411.067L160.819 408.104C160.393 407.857 160.448 407.445 160.929 407.171L166.042 404.221C166.292 404.097 166.567 404.032 166.846 404.032C167.125 404.032 167.4 404.097 167.65 404.221L172.804 407.198C173.216 407.432 173.175 407.857 172.694 408.131L167.581 411.067C167.333 411.195 167.057 411.262 166.777 411.262C166.498 411.262 166.222 411.195 165.973 411.067Z" fill="#514B6A"/>
<path opacity="0.8" d="M158.043 406.526L152.889 403.562C152.477 403.329 152.532 402.904 153.013 402.629L158.112 399.666C158.362 399.535 158.64 399.466 158.923 399.466C159.205 399.466 159.484 399.535 159.734 399.666L164.888 402.629C165.3 402.876 165.245 403.288 164.764 403.562L159.665 406.512C159.415 406.642 159.138 406.711 158.856 406.713C158.574 406.716 158.295 406.652 158.043 406.526Z" fill="#514B6A"/>
<path opacity="0.8" d="M166.193 401.806L161.039 398.843C160.627 398.596 160.682 398.184 161.149 397.91L162.84 396.936C163.089 396.811 163.363 396.745 163.642 396.743C163.921 396.74 164.196 396.802 164.448 396.922L169.602 399.899C170.014 400.132 169.959 400.544 169.478 400.832L167.787 401.793C167.543 401.923 167.27 401.993 166.992 401.995C166.714 401.998 166.44 401.933 166.193 401.806Z" fill="#514B6A"/>
<path opacity="0.8" d="M176.529 407.774L171.32 404.797C170.907 404.564 170.962 404.139 171.43 403.864L173.12 402.89C173.372 402.765 173.65 402.701 173.931 402.701C174.212 402.701 174.49 402.765 174.742 402.89L179.896 405.867C180.308 406.101 180.253 406.526 179.772 406.8L178.095 407.774C177.851 407.89 177.583 407.951 177.312 407.951C177.041 407.951 176.773 407.89 176.529 407.774Z" fill="#514B6A"/>
<path opacity="0.8" d="M184.418 412.316L179.264 409.339C178.851 409.105 178.906 408.694 179.374 408.419L181.064 407.445C181.315 407.318 181.593 407.251 181.875 407.251C182.157 407.251 182.435 407.318 182.686 407.445L187.84 410.409C188.252 410.656 188.197 411.067 187.716 411.342L186.039 412.316C185.787 412.44 185.51 412.505 185.228 412.505C184.947 412.505 184.67 412.44 184.418 412.316Z" fill="#514B6A"/>
<path opacity="0.8" d="M192.306 416.857L187.153 413.894C186.74 413.647 186.795 413.235 187.262 412.961L188.953 411.987C189.205 411.862 189.483 411.797 189.764 411.797C190.045 411.797 190.323 411.862 190.575 411.987L195.729 414.964C196.141 415.197 196.086 415.609 195.605 415.883L193.914 416.857C193.666 416.985 193.39 417.051 193.11 417.051C192.831 417.051 192.555 416.985 192.306 416.857Z" fill="#514B6A"/>
<path opacity="0.8" d="M200.182 421.412L195.028 418.435C194.615 418.202 194.67 417.777 195.138 417.502L196.828 416.528C197.075 416.393 197.35 416.316 197.631 416.304C197.912 416.292 198.193 416.345 198.45 416.459L203.604 419.437C204.016 419.67 203.961 420.095 203.48 420.37L201.79 421.344C201.545 421.479 201.273 421.556 200.994 421.567C200.715 421.579 200.437 421.526 200.182 421.412Z" fill="#514B6A"/>
<path opacity="0.8" d="M244.23 446.795L239.077 443.817C238.664 443.584 238.719 443.159 239.2 442.884L240.877 441.91C241.129 441.786 241.407 441.721 241.688 441.721C241.969 441.721 242.247 441.786 242.499 441.91L247.653 444.888C248.065 445.121 248.01 445.546 247.529 445.821L245.852 446.795C245.6 446.919 245.323 446.984 245.041 446.984C244.76 446.984 244.483 446.919 244.23 446.795Z" fill="#514B6A"/>
<path opacity="0.8" d="M252.119 451.336L246.911 448.359C246.498 448.125 246.553 447.714 247.021 447.439L248.711 446.465C248.957 446.327 249.232 446.249 249.514 446.237C249.796 446.225 250.076 446.28 250.333 446.397L255.487 449.36C255.899 449.607 255.844 450.019 255.363 450.293L253.686 451.267C253.447 451.394 253.182 451.466 252.911 451.478C252.64 451.49 252.369 451.441 252.119 451.336Z" fill="#514B6A"/>
<path opacity="0.8" d="M260.008 455.919L254.854 452.955C254.442 452.708 254.497 452.296 254.964 452.022L256.655 451.048C256.907 450.923 257.184 450.859 257.466 450.859C257.747 450.859 258.025 450.923 258.277 451.048L263.431 454.025C263.843 454.258 263.788 454.67 263.307 454.958L261.63 455.919C261.38 456.05 261.102 456.118 260.819 456.118C260.537 456.118 260.258 456.05 260.008 455.919Z" fill="#514B6A"/>
<path opacity="0.8" d="M267.897 460.432L262.743 457.455C262.331 457.222 262.386 456.797 262.853 456.522L264.544 455.548C264.795 455.42 265.073 455.354 265.355 455.354C265.637 455.354 265.914 455.42 266.166 455.548L271.319 458.512C271.732 458.745 271.677 459.17 271.196 459.445L269.505 460.419C269.257 460.545 268.982 460.612 268.703 460.615C268.424 460.617 268.148 460.555 267.897 460.432Z" fill="#514B6A"/>
<path opacity="0.8" d="M189.778 424.787L184.61 421.824C184.198 421.577 184.253 421.165 184.734 420.891L189.846 417.941C190.096 417.817 190.371 417.752 190.65 417.752C190.929 417.752 191.205 417.817 191.454 417.941L196.608 420.918C197.021 421.152 196.966 421.577 196.498 421.851L191.386 424.787C191.137 424.915 190.861 424.982 190.582 424.982C190.302 424.982 190.026 424.915 189.778 424.787Z" fill="#514B6A"/>
<path opacity="0.8" d="M197.735 429.384L192.581 426.406C192.169 426.173 192.21 425.748 192.691 425.474L197.804 422.537C198.053 422.41 198.329 422.343 198.608 422.343C198.888 422.343 199.163 422.41 199.412 422.537L204.566 425.501C204.978 425.748 204.937 426.16 204.456 426.434L199.343 429.384C199.094 429.508 198.819 429.573 198.539 429.573C198.26 429.573 197.985 429.508 197.735 429.384Z" fill="#514B6A"/>
<path opacity="0.8" d="M205.679 433.966L200.525 430.989C200.113 430.756 200.168 430.344 200.635 430.07L205.748 427.12C206 426.995 206.278 426.931 206.559 426.931C206.84 426.931 207.118 426.995 207.37 427.12L212.524 430.097C212.936 430.33 212.881 430.742 212.4 431.03L207.315 433.966C207.061 434.093 206.781 434.159 206.497 434.159C206.213 434.159 205.933 434.093 205.679 433.966Z" fill="#514B6A"/>
<path opacity="0.8" d="M213.651 438.549L208.497 435.585C208.084 435.338 208.139 434.927 208.62 434.652L213.719 431.702C213.971 431.575 214.248 431.508 214.53 431.508C214.812 431.508 215.09 431.575 215.341 431.702L220.495 434.666C220.907 434.913 220.852 435.325 220.371 435.599L215.3 438.494C215.05 438.635 214.769 438.713 214.482 438.723C214.195 438.732 213.91 438.673 213.651 438.549Z" fill="#514B6A"/>
<path opacity="0.8" d="M221.608 443.145L216.454 440.168C216.042 439.935 216.097 439.523 216.578 439.235L221.677 436.299C221.929 436.174 222.207 436.109 222.488 436.109C222.769 436.109 223.047 436.174 223.299 436.299L228.453 439.276C228.865 439.509 228.81 439.921 228.343 440.195L223.23 443.145C222.978 443.27 222.701 443.335 222.419 443.335C222.138 443.335 221.86 443.27 221.608 443.145Z" fill="#514B6A"/>
<path opacity="0.8" d="M229.58 447.686L224.426 444.723C224 444.476 224.055 444.064 224.536 443.79L229.648 440.84C229.898 440.716 230.173 440.651 230.452 440.651C230.731 440.651 231.007 440.716 231.256 440.84L236.41 443.817C236.823 444.051 236.781 444.476 236.3 444.75L231.188 447.686C230.939 447.814 230.663 447.881 230.384 447.881C230.104 447.881 229.828 447.814 229.58 447.686Z" fill="#514B6A"/>
<path opacity="0.8" d="M237.537 452.324L232.384 449.347C231.971 449.113 232.012 448.688 232.493 448.414L237.606 445.478C237.855 445.35 238.131 445.283 238.41 445.283C238.69 445.283 238.965 445.35 239.214 445.478L244.368 448.441C244.794 448.688 244.739 449.1 244.258 449.374L239.145 452.324C238.896 452.448 238.621 452.513 238.341 452.513C238.062 452.513 237.787 452.448 237.537 452.324Z" fill="#514B6A"/>
<path opacity="0.8" d="M245.536 456.906L240.382 453.943C239.97 453.696 240.025 453.284 240.492 453.01L245.605 450.06C245.857 449.936 246.135 449.871 246.416 449.871C246.697 449.871 246.975 449.936 247.227 450.06L252.381 453.037C252.793 453.271 252.738 453.696 252.257 453.97L247.158 456.906C246.906 457.031 246.628 457.096 246.347 457.096C246.066 457.096 245.788 457.031 245.536 456.906Z" fill="#514B6A"/>
<path opacity="0.8" d="M253.453 461.489L248.285 458.525C247.873 458.292 247.928 457.867 248.409 457.592L253.508 454.656C253.752 454.503 254.031 454.413 254.318 454.394C254.606 454.375 254.894 454.427 255.157 454.546L260.311 457.51C260.723 457.757 260.668 458.169 260.187 458.443L255.074 461.407C254.83 461.547 254.555 461.628 254.273 461.642C253.992 461.657 253.71 461.604 253.453 461.489Z" fill="#514B6A"/>
<path opacity="0.8" d="M144.258 425.35L129.071 416.61C128.659 416.363 128.714 415.952 129.195 415.677L134.294 412.727C134.546 412.603 134.823 412.538 135.105 412.538C135.386 412.538 135.663 412.603 135.916 412.727L151.102 421.481C151.515 421.728 151.46 422.139 150.979 422.414L145.88 425.364C145.628 425.489 145.349 425.554 145.067 425.551C144.785 425.549 144.508 425.48 144.258 425.35Z" fill="#514B6A"/>
<path opacity="0.8" d="M242.059 481.726L226.872 472.973C226.46 472.739 226.515 472.314 226.996 472.04L232.095 469.104C232.341 468.965 232.616 468.887 232.897 468.875C233.179 468.863 233.46 468.918 233.717 469.035L248.835 477.788C249.247 478.022 249.192 478.433 248.711 478.708L243.598 481.658C243.363 481.782 243.103 481.853 242.836 481.865C242.57 481.876 242.305 481.829 242.059 481.726Z" fill="#514B6A"/>
<path opacity="0.8" d="M210.228 473.508L205.061 470.544C204.648 470.297 204.703 469.886 205.184 469.611L211.273 466.099C211.523 465.975 211.798 465.91 212.077 465.91C212.356 465.91 212.631 465.975 212.881 466.099L218.035 469.076C218.447 469.309 218.406 469.735 217.925 470.009L211.836 473.508C211.588 473.635 211.312 473.702 211.032 473.702C210.753 473.702 210.477 473.635 210.228 473.508Z" fill="#514B6A"/>
<path opacity="0.8" d="M152.408 440.195L144.162 435.434C143.75 435.201 143.805 434.79 144.286 434.501L150.374 431.003C150.619 430.868 150.891 430.791 151.17 430.779C151.449 430.767 151.727 430.82 151.982 430.934L160.228 435.681C160.641 435.928 160.586 436.34 160.105 436.614L154.03 440.127C153.783 440.262 153.509 440.339 153.227 440.351C152.946 440.362 152.666 440.309 152.408 440.195Z" fill="#514B6A"/>
<path opacity="0.8" d="M202.546 469.09L194.3 464.343C193.887 464.096 193.928 463.684 194.409 463.41L200.498 459.897C200.742 459.762 201.015 459.686 201.294 459.674C201.573 459.662 201.851 459.715 202.106 459.829L210.352 464.59C210.765 464.823 210.71 465.235 210.242 465.509L204.154 469.021C203.909 469.154 203.636 469.23 203.358 469.242C203.079 469.254 202.801 469.202 202.546 469.09Z" fill="#514B6A"/>
<path opacity="0.8" d="M163.898 446.808L155.652 442.061C155.239 441.814 155.294 441.403 155.775 441.128L161.85 437.616C162.102 437.491 162.38 437.427 162.661 437.427C162.942 437.427 163.22 437.491 163.472 437.616L171.718 442.377C172.131 442.61 172.076 443.035 171.595 443.31L165.506 446.808C165.256 446.933 164.981 446.998 164.702 446.998C164.423 446.998 164.148 446.933 163.898 446.808Z" fill="#514B6A"/>
<path opacity="0.8" d="M163.527 437.588L199.371 458.251C199.811 458.498 199.811 458.91 199.371 459.17L193.159 462.779C192.908 462.9 192.633 462.963 192.355 462.963C192.076 462.963 191.801 462.9 191.551 462.779L155.707 442.089L163.527 437.588Z" fill="#514B6A"/>
<path opacity="0.8" d="M232.466 481.822L238.211 485.143C238.554 485.335 238.513 485.678 238.115 485.897L235.627 487.338C235.415 487.447 235.179 487.504 234.94 487.504C234.701 487.504 234.465 487.447 234.253 487.338L228.508 484.031C228.164 483.825 228.205 483.482 228.604 483.263L231.092 481.822C231.304 481.713 231.54 481.656 231.779 481.656C232.018 481.656 232.253 481.713 232.466 481.822Z" fill="#514B6A"/>
<path opacity="0.8" d="M224.439 477.199L230.184 480.505C230.528 480.711 230.487 481.054 230.088 481.273L227.669 482.714C227.457 482.824 227.221 482.881 226.982 482.881C226.743 482.881 226.507 482.824 226.295 482.714L220.55 479.394C220.206 479.202 220.248 478.859 220.646 478.639L223.134 477.267C223.332 477.158 223.553 477.095 223.779 477.083C224.005 477.071 224.231 477.111 224.439 477.199Z" fill="#514B6A"/>
<path opacity="0.8" d="M216.482 472.616L222.227 475.923C222.57 476.115 222.529 476.458 222.131 476.691L219.643 478.063C219.432 478.176 219.196 478.235 218.956 478.235C218.716 478.235 218.48 478.176 218.269 478.063L212.551 474.866C212.208 474.674 212.249 474.331 212.647 474.098L215.135 472.726C215.333 472.599 215.56 472.523 215.795 472.504C216.03 472.485 216.265 472.523 216.482 472.616Z" fill="#514B6A"/>
<path opacity="0.8" d="M228.838 474.674L234.582 477.981C234.926 478.173 234.885 478.516 234.486 478.735L231.999 480.176C231.786 480.285 231.551 480.342 231.311 480.342C231.072 480.342 230.837 480.285 230.624 480.176L224.921 476.924C224.577 476.718 224.618 476.389 225.017 476.156L227.504 474.784C227.699 474.654 227.923 474.575 228.157 474.556C228.39 474.537 228.624 474.578 228.838 474.674Z" fill="#514B6A"/>
</g>
<path d="M310.05 351.028C309.627 351.017 309.214 350.894 308.854 350.671C308.253 350.315 307.772 349.788 307.473 349.157C307.174 348.527 307.071 347.821 307.177 347.131C307.229 346.854 307.348 346.593 307.522 346.371C307.697 346.149 307.923 345.972 308.181 345.855C308.492 345.736 308.827 345.691 309.159 345.724C309.49 345.758 309.81 345.868 310.091 346.048C310.695 346.404 311.177 346.934 311.476 347.567C311.775 348.201 311.877 348.909 311.768 349.601C311.682 349.992 311.465 350.341 311.152 350.591C310.84 350.841 310.45 350.976 310.05 350.973V351.028ZM308.895 346.253C308.724 346.254 308.555 346.291 308.4 346.363C308.222 346.445 308.066 346.569 307.946 346.724C307.827 346.88 307.747 347.062 307.713 347.255C307.626 347.827 307.709 348.412 307.954 348.937C308.198 349.462 308.593 349.903 309.088 350.205C309.29 350.332 309.519 350.412 309.756 350.441C309.994 350.469 310.235 350.445 310.462 350.369C310.639 350.286 310.794 350.161 310.913 350.006C311.033 349.851 311.114 349.67 311.149 349.478C311.239 348.905 311.156 348.319 310.911 347.794C310.666 347.269 310.271 346.828 309.775 346.528C309.508 346.366 309.206 346.272 308.895 346.253Z" fill="#BEE8E5"/>
<path d="M316.619 354.801C316.197 354.796 315.784 354.678 315.423 354.458C314.82 354.104 314.336 353.578 314.035 352.947C313.733 352.316 313.628 351.609 313.733 350.918C313.787 350.637 313.907 350.374 314.084 350.149C314.261 349.925 314.489 349.746 314.75 349.628C315.063 349.515 315.398 349.475 315.729 349.51C316.06 349.546 316.379 349.657 316.66 349.834C317.276 350.181 317.77 350.707 318.077 351.342C318.384 351.977 318.489 352.691 318.378 353.388C318.326 353.665 318.208 353.926 318.033 354.148C317.859 354.37 317.633 354.547 317.375 354.664C317.136 354.764 316.878 354.81 316.619 354.801ZM315.451 350.04C315.286 350.043 315.123 350.075 314.97 350.136C314.79 350.221 314.633 350.348 314.511 350.505C314.389 350.662 314.306 350.846 314.269 351.042C314.182 351.612 314.267 352.195 314.511 352.717C314.756 353.24 315.15 353.678 315.643 353.978C315.844 354.11 316.072 354.194 316.31 354.225C316.548 354.256 316.79 354.232 317.018 354.156C317.197 354.072 317.354 353.946 317.473 353.788C317.593 353.63 317.672 353.446 317.705 353.25C317.792 352.68 317.707 352.097 317.463 351.575C317.218 351.052 316.824 350.614 316.331 350.314C316.066 350.149 315.763 350.055 315.451 350.04Z" fill="#BEE8E5"/>
<path d="M324.632 357.133C324.574 357.394 324.452 357.635 324.276 357.835C324.1 358.036 323.876 358.188 323.624 358.279C323.373 358.369 323.103 358.394 322.84 358.353C322.576 358.311 322.327 358.203 322.117 358.039C321.566 357.71 321.124 357.226 320.848 356.647C320.572 356.069 320.473 355.422 320.564 354.787C320.621 354.527 320.743 354.285 320.92 354.085C321.096 353.885 321.32 353.732 321.571 353.642C321.822 353.552 322.092 353.526 322.356 353.568C322.619 353.61 322.868 353.718 323.079 353.882C323.632 354.208 324.076 354.692 324.353 355.271C324.629 355.85 324.726 356.499 324.632 357.133Z" fill="#BEE8E5"/>
<path d="M198.78 284.801L195.261 282.77L195.536 281.151L199.055 283.182L198.78 284.801Z" fill="#BEE8E5"/>
<path d="M203.879 287.737L200.374 285.72L200.635 284.101L204.154 286.118L203.879 287.737Z" fill="#BEE8E5"/>
<path d="M193.722 281.892L186.026 277.447L186.301 275.828L193.997 280.273L193.722 281.892Z" fill="#BEE8E5"/>
<path d="M167.018 357.641V408.31C167.064 408.934 167.277 409.534 167.635 410.048C167.993 410.562 168.482 410.971 169.052 411.232L211.177 435.544C214.214 437.287 219.506 437.067 223.01 435.05C224.976 433.925 225.965 432.457 225.91 431.085V380.458L167.018 357.641Z" fill="url(#paint12_linear)"/>
<path opacity="0.3" d="M214.393 436.559C217.371 436.998 220.411 436.469 223.065 435.05C225.031 433.925 226.02 432.457 225.965 431.085V380.458L214.599 376.067H214.393V436.559Z" fill="#514B6A"/>
<path d="M211.177 384.875L169.052 360.577C166.028 358.821 166.4 355.761 169.904 353.717C173.409 351.7 178.714 351.481 181.751 353.223L223.917 377.535C226.955 379.278 226.57 382.337 223.065 384.395C219.561 386.412 214.269 386.632 211.177 384.875Z" fill="url(#paint13_linear)"/>
<path opacity="0.5" d="M211.177 455.493L169.052 431.222C166.028 429.466 166.4 426.42 169.904 424.362C173.409 422.345 178.714 422.126 181.751 423.882L223.917 448.18C226.955 449.937 226.57 452.982 223.065 455.04C219.561 457.03 214.269 457.291 211.177 455.493Z" fill="#514B6A"/>
<path d="M215.437 381.624C214.47 381.62 213.544 381.234 212.861 380.55C212.178 379.866 211.795 378.94 211.795 377.974V355.473C211.795 347.79 206.16 338.062 199.508 334.221L189.888 328.65C187.331 327.169 185.022 326.812 183.552 327.662C182.081 328.513 181.243 330.681 181.243 333.631V356.132C181.243 357.096 180.859 358.021 180.176 358.703C179.493 359.385 178.567 359.768 177.601 359.768C176.635 359.768 175.708 359.385 175.025 358.703C174.342 358.021 173.958 357.096 173.958 356.132V333.631C173.958 327.923 176.061 323.574 179.91 321.351C183.758 319.129 188.582 319.499 193.53 322.339L203.15 327.923C212.084 333.068 219.079 345.169 219.079 355.473V377.974C219.081 378.453 218.988 378.927 218.806 379.37C218.624 379.813 218.356 380.215 218.017 380.554C217.679 380.893 217.277 381.162 216.834 381.346C216.391 381.529 215.917 381.624 215.437 381.624Z" fill="url(#paint14_linear)"/>
</g>
<defs>
<linearGradient id="paint0_linear" x1="207" y1="0" x2="207" y2="612" gradientUnits="userSpaceOnUse">
<stop stop-color="#004777"/>
<stop offset="0.777236" stop-color="#26DCDA"/>
<stop offset="1" stop-color="#23C6EE"/>
</linearGradient>
<linearGradient id="paint1_linear" x1="312.043" y1="481.616" x2="44.2447" y2="481.616" gradientUnits="userSpaceOnUse">
<stop stop-color="#B7BAD7"/>
<stop offset="0.25" stop-color="#BCBFDB"/>
<stop offset="0.55" stop-color="#CACDE5"/>
<stop offset="0.87" stop-color="#E2E3F6"/>
<stop offset="1" stop-color="#EEEFFF"/>
</linearGradient>
<linearGradient id="paint2_linear" x1="227.078" y1="475.401" x2="-40.7194" y2="475.401" gradientUnits="userSpaceOnUse">
<stop stop-color="#E8E8F6"/>
<stop offset="0.51" stop-color="#EDEDF8"/>
<stop offset="1" stop-color="#F8F8FD"/>
</linearGradient>
<linearGradient id="paint3_linear" x1="-12311.4" y1="18566.3" x2="13812.7" y2="18566.3" gradientUnits="userSpaceOnUse">
<stop stop-color="#E8E8F6"/>
<stop offset="0.51" stop-color="#EDEDF8"/>
<stop offset="1" stop-color="#F8F8FD"/>
</linearGradient>
<linearGradient id="paint4_linear" x1="2134.6" y1="15235.2" x2="1363.09" y2="15235.2" gradientUnits="userSpaceOnUse">
<stop stop-color="#B7BAD7"/>
<stop offset="0.25" stop-color="#BCBFDB"/>
<stop offset="0.55" stop-color="#CACDE5"/>
<stop offset="0.87" stop-color="#E2E3F6"/>
<stop offset="1" stop-color="#EEEFFF"/>
</linearGradient>
<linearGradient id="paint5_linear" x1="12914" y1="23338" x2="-39207.5" y2="23338" gradientUnits="userSpaceOnUse">
<stop stop-color="#B7BAD7"/>
<stop offset="0.25" stop-color="#BCBFDB"/>
<stop offset="0.55" stop-color="#CACDE5"/>
<stop offset="0.87" stop-color="#E2E3F6"/>
<stop offset="1" stop-color="#EEEFFF"/>
</linearGradient>
<linearGradient id="paint6_linear" x1="4901.46" y1="23584.1" x2="57078.3" y2="23584.1" gradientUnits="userSpaceOnUse">
<stop stop-color="#E8E8F6"/>
<stop offset="0.51" stop-color="#EDEDF8"/>
<stop offset="1" stop-color="#F8F8FD"/>
</linearGradient>
<linearGradient id="paint7_linear" x1="32860.1" y1="16953.7" x2="-19272.1" y2="16953.7" gradientUnits="userSpaceOnUse">
<stop stop-color="#B7BAD7"/>
<stop offset="0.25" stop-color="#BCBFDB"/>
<stop offset="0.55" stop-color="#CACDE5"/>
<stop offset="0.87" stop-color="#E2E3F6"/>
<stop offset="1" stop-color="#EEEFFF"/>
</linearGradient>
<linearGradient id="paint8_linear" x1="-15051.4" y1="16904" x2="37131.4" y2="16904" gradientUnits="userSpaceOnUse">
<stop stop-color="#E8E8F6"/>
<stop offset="0.51" stop-color="#EDEDF8"/>
<stop offset="1" stop-color="#F8F8FD"/>
</linearGradient>
<linearGradient id="paint9_linear" x1="246.182" y1="358.656" x2="305.143" y2="358.656" gradientUnits="userSpaceOnUse">
<stop stop-color="#EEEFFF"/>
<stop offset="0.22" stop-color="#E6E7F9"/>
<stop offset="0.57" stop-color="#D0D2E9"/>
<stop offset="0.87" stop-color="#B7BAD7"/>
</linearGradient>
<linearGradient id="paint10_linear" x1="184.047" y1="330.53" x2="329.538" y2="330.53" gradientUnits="userSpaceOnUse">
<stop stop-color="#F8F8FD"/>
<stop offset="0.49" stop-color="#EDEDF8"/>
<stop offset="1" stop-color="#E8E8F6"/>
</linearGradient>
<linearGradient id="paint11_linear" x1="6003.07" y1="2887.44" x2="9510.86" y2="3328.44" gradientUnits="userSpaceOnUse">
<stop stop-color="#EEEFFF"/>
<stop offset="0.22" stop-color="#E6E7F9"/>
<stop offset="0.57" stop-color="#D0D2E9"/>
<stop offset="0.87" stop-color="#B7BAD7"/>
</linearGradient>
<linearGradient id="paint12_linear" x1="5540.54" y1="9071.3" x2="8067.1" y2="9071.3" gradientUnits="userSpaceOnUse">
<stop stop-color="#EEEFFF"/>
<stop offset="0.22" stop-color="#E6E7F9"/>
<stop offset="0.57" stop-color="#D0D2E9"/>
<stop offset="0.87" stop-color="#B7BAD7"/>
</linearGradient>
<linearGradient id="paint13_linear" x1="2880.84" y1="3403.18" x2="9122.12" y2="3403.18" gradientUnits="userSpaceOnUse">
<stop stop-color="#F8F8FD"/>
<stop offset="0.49" stop-color="#EDEDF8"/>
<stop offset="1" stop-color="#E8E8F6"/>
</linearGradient>
<linearGradient id="paint14_linear" x1="3570.66" y1="4659.46" x2="7076.85" y2="5099.82" gradientUnits="userSpaceOnUse">
<stop stop-color="#EEEFFF"/>
<stop offset="0.22" stop-color="#E6E7F9"/>
<stop offset="0.57" stop-color="#D0D2E9"/>
<stop offset="0.87" stop-color="#B7BAD7"/>
</linearGradient>
<clipPath id="clip0">
<rect width="371" height="323" fill="white" transform="translate(49 246)"/>
</clipPath>
</defs>
</svg>
