<svg width="63" height="64" viewBox="0 0 63 64" fill="none" xmlns="http://www.w3.org/2000/svg">
<g clip-path="url(#clip0)">
<path d="M0 31.05C0.0666668 30.7684 0.0936118 30.479 0.0800171 30.19C0.504381 24.4745 2.47466 18.982 5.78003 14.3C5.8745 14.1627 6.01736 14.0663 6.17999 14.03C8.63834 13.446 11.1655 13.2037 13.69 13.31C19.6069 13.5311 25.2992 15.6328 29.94 19.31L30.7 19.92C30.7 19.92 30.7 19.92 30.7 19.98C30.1209 20.0031 29.5435 20.0565 28.97 20.14C26.7655 20.4597 24.6691 21.3008 22.855 22.5935C21.0409 23.8861 19.5614 25.593 18.5394 27.5724C17.5175 29.5517 16.9826 31.7462 16.9792 33.9738C16.9759 36.2014 17.5041 38.3976 18.52 40.38C19.1124 41.5272 19.8557 42.59 20.73 43.54C20.61 43.7 20.73 43.86 20.73 44.02C20.8324 45.0726 20.9994 46.1179 21.23 47.15C21.6688 49.1706 22.3399 51.1337 23.23 53C23.9314 54.4798 24.7612 55.8953 25.71 57.23C27.1914 59.3104 28.9511 61.1778 30.94 62.78C31.3785 63.142 31.8395 63.476 32.32 63.78C32.32 63.83 32.2 63.86 32.22 63.94H29.95C29.95 63.87 29.85 63.94 29.79 63.94C28.7183 63.8811 27.6502 63.7677 26.59 63.6C23.6633 63.143 20.8174 62.2673 18.14 61C14.1988 59.149 10.6872 56.4957 7.83002 53.21C3.33351 48.0715 0.630816 41.6096 0.130005 34.8C0.143516 34.5275 0.116539 34.2545 0.0499878 33.99L0 31.05Z" fill="#23C6EE"/>
<path d="M32.3496 63.84C32.4032 63.83 32.4537 63.8076 32.4971 63.7746C32.5405 63.7416 32.5756 63.699 32.5996 63.65C32.9296 63.23 33.3396 62.89 33.6896 62.49C34.5427 61.5416 35.3344 60.5395 36.0596 59.49C37.9343 56.7156 39.3303 53.6464 40.1896 50.41C40.5159 49.1951 40.7565 47.9587 40.9096 46.71C41.0196 45.82 41.1196 44.94 41.1496 44.04C41.1496 43.96 41.1496 43.86 41.1496 43.78C41.9466 42.9307 42.6413 41.991 43.2196 40.98C44.1458 39.3472 44.7341 37.5448 44.9496 35.68C45.1901 33.6595 44.9818 31.6108 44.3396 29.68C44.2596 29.45 44.3396 29.35 44.5196 29.24C46.9433 28.0838 49.1838 26.5777 51.1696 24.77C53.9756 22.2193 56.2317 19.1228 57.7996 15.67L57.9396 15.37C58.2243 15.7762 58.488 16.1968 58.7296 16.63C60.6277 19.8658 61.9316 23.415 62.5796 27.11C62.7996 28.3665 62.9398 29.6358 62.9996 30.91C62.9996 30.97 62.9996 31.04 62.9996 31.09V34.09C62.9396 34.09 62.9996 34.19 62.9996 34.25C62.9512 35.2715 62.8478 36.2896 62.6896 37.3C61.4638 45.2588 57.2291 52.4431 50.8596 57.37C45.9717 61.1961 40.0515 63.4737 33.8596 63.91C33.6298 63.8863 33.3976 63.9136 33.1796 63.99H32.6796L32.3496 63.84Z" fill="#26DCDA"/>
<path d="M32.9504 0C33.256 0.0650825 33.568 0.0953025 33.8804 0.0900269C36.9515 0.320518 39.9678 1.02902 42.8204 2.19C46.0614 3.50447 49.0237 5.4217 51.5504 7.84003C52.737 8.98809 53.8149 10.2434 54.7704 11.59C54.8186 11.6589 54.8444 11.7409 54.8444 11.825C54.8444 11.9091 54.8186 11.9911 54.7704 12.06C52.6909 16.401 49.2399 19.9364 44.9504 22.12C43.6724 22.7746 42.3324 23.3005 40.9504 23.69C40.7504 23.75 40.6804 23.69 40.6104 23.51C39.4906 20.496 37.7613 17.7454 35.5304 15.43C31.6195 11.3516 26.6339 8.46362 21.1504 7.10004C18.8229 6.48758 16.4353 6.13213 14.0304 6.04004H13.7104H13.6104C14.0504 5.68004 14.5004 5.36004 14.9604 5.04004C18.6377 2.54083 22.8446 0.928562 27.2504 0.330017C28.1004 0.210017 28.9704 0.130027 29.8304 0.0900269C29.8804 0.0900269 29.9304 0.0900085 29.9604 0.0400085L32.9504 0Z" fill="#004777"/>
<path d="M32.3503 63.84L32.6503 63.9999H32.2502C32.2302 63.9499 32.3103 63.89 32.3503 63.84Z" fill="#DBF7FA"/>
<path d="M41.1103 43.7C41.1803 43.78 41.1103 43.88 41.1103 43.96C41.1103 44.86 40.9803 45.74 40.8703 46.63C40.7172 47.8787 40.4766 49.1151 40.1503 50.33C39.2911 53.5663 37.895 56.6356 36.0203 59.41C35.2951 60.4596 34.5035 61.4616 33.6503 62.41C33.3003 62.81 32.8903 63.15 32.5603 63.57C32.5363 63.619 32.5012 63.6617 32.4578 63.6946C32.4144 63.7276 32.3639 63.75 32.3103 63.76C31.8297 63.456 31.3688 63.122 30.9303 62.76C28.9414 61.1578 27.1817 59.2904 25.7003 57.21C24.7515 55.8753 23.9217 54.4599 23.2203 52.98C22.3302 51.1137 21.6591 49.1506 21.2203 47.13C20.9897 46.0979 20.8227 45.0526 20.7203 44C20.7203 43.84 20.6003 43.68 20.7203 43.52C21.9 44.7577 23.292 45.7738 24.8303 46.52C27.481 47.8042 30.4683 48.2229 33.3699 47.7169C36.2715 47.2108 38.9408 45.8057 41.0003 43.7H41.1103Z" fill="#05ABCC"/>
</g>
<defs>
<clipPath id="clip0">
<rect width="63" height="64" fill="white"/>
</clipPath>
</defs>
</svg>
