<svg width="160" height="84"><defs id="SvgjsDefs1342"></defs><g id="SvgjsG1343" featurekey="root" fill="#2ebcf9"></g><g id="SvgjsG1344" featurekey="text1" fill="#274bd9" transform="matrix(1.901392507112338,0,0,1.901392507112338,6.845013297600797,2.6693997252264783)"><path d="M12.36 26.64 q0.26 0.64 0.32 1.24 q0.06 0.5 -0.02 0.9 q-0.06 0.34 -0.19 0.5 t-0.23 0.08 q-0.02 -0.02 -0.02 -0.16 q0 -0.54 -0.22 -0.9 q-0.42 -0.66 -1.6 -0.94 q-1.54 -0.4 -4.34 -0.14 q-1 0.08 -1.92 0.28 q-0.8 0.16 -1.48 0.38 q-0.58 0.18 -1.04 0.38 q-0.38 0.18 -0.58 0.31 t-0.14 0.15 l0 0 q-0.44 -0.08 -0.68 -0.24 q-0.44 -0.3 -0.68 -0.98 q-0.16 -0.48 0.48 -2.26 q0.52 -1.48 1.58 -3.8 q0.82 -1.78 1.86 -3.88 q0.74 -1.5 1.28 -2.52 q0.74 -1.38 -0.12 0.28 q2.48 -4.8 2.34 -5.5 q0.02 -0.14 -0.24 -0.26 q-0.28 -0.12 -0.74 -0.06 q-0.58 0.08 -1.28 0.42 q-0.84 0.4 -1.78 1.18 q-1.1 0.88 -2.32 2.22 q-0.8 0.9 -1.44 1.9 q-0.54 0.86 -0.94 1.78 q-0.32 0.74 -0.54 1.48 q-0.16 0.52 -0.24 1 l-0.06 0.38 l-0.14 -0.08 q-0.18 -0.14 -0.34 -0.32 q-0.2 -0.26 -0.32 -0.62 q-0.16 -0.44 -0.18 -0.98 q0.04 -0.48 0.56 -1.66 q0.64 -1.4 1.52 -2.72 q1.12 -1.62 2.38 -2.72 q1.5 -1.26 2.96 -1.88 q1.16 -0.5 2.2 -0.56 q0.76 -0.06 1.28 0.1 q0.42 0.12 0.87 0.84 t0.53 1.34 q0.02 0.28 -1.48 3.54 q-1.26 2.74 -3.14 6.68 q-0.84 1.68 -1.46 3.26 q-0.38 0.94 -0.94 2.54 l-0.1 0.3 q1.9 -1.18 6.6 -1.62 q1.66 -0.16 2.77 0.2 t1.41 1.14 z M9.68 15.64 l0.24 -0.56 q0.3 -0.66 0.58 -1.04 q0.2 -0.24 0.56 -0.34 q0.3 -0.08 0.66 -0.04 q0.3 0.02 0.54 0.1 t0.2 0.14 q-0.06 0.1 -0.28 0.42 q-0.64 0.86 -0.96 1.46 q-0.08 0.14 -0.48 0.1 q-0.28 -0.02 -0.7 -0.14 z M11.06 16.54 q-0.1 -0.06 -0.2 -0.1 q-0.24 -0.12 -0.48 -0.16 q-0.34 -0.08 -0.62 -0.02 q-0.34 0.1 -0.58 0.38 q-0.46 0.54 -1 1.82 q-0.56 1.36 -0.78 2.6 q-0.12 0.68 -0.08 1.26 q0.02 0.76 0.28 1.14 q0.48 0.72 1.22 0.54 q0.6 -0.16 1.16 -0.8 q0.48 -0.5 0.9 -1.3 q0.32 -0.56 0.58 -1.2 l0.2 -0.54 l-0.26 0.44 q-0.32 0.52 -0.66 0.98 q-0.48 0.64 -0.92 1.04 q-0.58 0.5 -1.06 0.6 q-0.32 0.06 -0.22 -0.74 q0.08 -0.74 0.48 -1.93 t0.94 -2.25 q0.58 -1.18 1.1 -1.76 z M16.2 22.58 q0.2 -0.82 0.78 -2.28 q0.32 -0.82 0.94 -2.26 q0.42 -0.98 0.42 -1.04 q0.02 -0.12 -0.25 -0.32 t-0.59 -0.34 q-0.36 -0.14 -0.58 -0.1 q-0.6 0.14 -2.58 2.3 q-0.48 0.52 -0.96 1.16 q-0.36 0.46 -0.68 0.92 l-0.24 0.38 l0.26 -0.76 q0.34 -0.9 0.7 -1.7 q0.4 -0.94 0.88 -1.92 l0.4 -0.78 l-0.08 -0.08 q-0.1 -0.1 -0.24 -0.14 q-0.2 -0.08 -0.44 -0.06 q-0.32 0.02 -0.7 0.17 t-1 1.29 q-0.54 1 -1.1 2.44 q-0.54 1.4 -0.84 2.52 q-0.3 1.2 -0.16 1.46 q0.16 0.32 0.56 0.46 q0.28 0.1 0.66 0.12 l0.3 -0.02 l0.28 -0.54 q0.36 -0.68 0.76 -1.34 q0.54 -0.92 1.08 -1.68 q0.58 -0.8 1.32 -1.68 q0.52 -0.62 1.08 -1.2 l0.46 -0.46 l-0.42 0.86 q-0.5 1.02 -0.86 1.94 q-0.54 1.3 -0.74 2.16 q-0.26 1.1 0 1.48 q0.16 0.2 0.77 0.36 t0.83 0.1 q0.3 -0.08 1.12 -1 q0.76 -0.86 1.06 -1.38 t0.42 -1.12 q0.08 -0.42 0.06 -0.86 l-0.02 -0.34 q-0.26 0.62 -0.78 1.38 q-0.5 0.72 -1.04 1.27 t-0.84 0.63 z M20.34 21.259999999999998 q0.26 0 0.96 -0.52 q0.74 -0.56 1.4 -1.28 q0.78 -0.86 1.12 -1.62 q0.38 -0.9 0.04 -1.54 q-0.12 -0.24 -0.56 -0.54 q-0.54 -0.36 -1.04 -0.42 q-0.58 -0.08 -1.34 0.42 q-0.54 0.34 -1.06 0.88 q-1.12 1.52 -1.64 3.12 q-0.44 1.36 -0.3 2.3 q0.08 0.74 0.42 1.22 q0.28 0.38 0.7 0.58 q0.34 0.14 0.64 0.14 q0.9 0 1.94 -0.86 q0.9 -0.74 1.42 -1.7 q0.16 -0.3 0.26 -0.6 q0.06 -0.22 0.08 -0.42 l0.02 -0.14 l-0.2 0.26 q-0.26 0.32 -0.6 0.66 q-0.44 0.46 -0.95 0.87 t-0.79 0.59 q-0.46 0.3 -0.84 0.37 t-0.5 -0.21 t-0.08 -0.9 q0.04 -0.42 0.14 -0.74 l0.1 -0.22 l0.02 0.08 q0.06 0.08 0.18 0.14 q0.16 0.08 0.46 0.08 z M23.04 16.12 q0 0.1 -0.02 0.2 q-0.04 0.24 -0.12 0.5 q-0.12 0.38 -0.32 0.74 q-0.54 0.76 -1.02 1.3 q-0.4 0.46 -0.76 0.76 q-0.3 0.24 -0.54 0.38 q-0.16 0.08 -0.3 0.12 l-0.1 0 l0.16 -0.46 q0.22 -0.54 0.48 -1.06 q0.38 -0.7 0.81 -1.2 t0.87 -0.84 q0.32 -0.22 0.62 -0.36 z M28.599999999999998 22.58 q0.2 -0.82 0.78 -2.28 q0.32 -0.82 0.94 -2.26 q0.42 -0.98 0.42 -1.04 q0.02 -0.12 -0.25 -0.32 t-0.59 -0.34 q-0.36 -0.14 -0.58 -0.1 q-0.6 0.14 -2.58 2.3 q-0.48 0.52 -0.96 1.16 q-0.36 0.46 -0.68 0.92 l-0.24 0.38 l0.26 -0.76 q0.34 -0.9 0.7 -1.7 q0.4 -0.94 0.88 -1.92 l0.4 -0.78 l-0.08 -0.08 q-0.1 -0.1 -0.24 -0.14 q-0.2 -0.08 -0.44 -0.06 q-0.32 0.02 -0.7 0.17 t-1 1.29 q-0.54 1 -1.1 2.44 q-0.54 1.4 -0.84 2.52 q-0.3 1.2 -0.16 1.46 q0.16 0.32 0.56 0.46 q0.28 0.1 0.66 0.12 l0.3 -0.02 l0.28 -0.54 q0.36 -0.68 0.76 -1.34 q0.54 -0.92 1.08 -1.68 q0.58 -0.8 1.32 -1.68 q0.52 -0.62 1.08 -1.2 l0.46 -0.46 l-0.42 0.86 q-0.5 1.02 -0.86 1.94 q-0.54 1.3 -0.74 2.16 q-0.26 1.1 0 1.48 q0.16 0.2 0.77 0.36 t0.83 0.1 q0.3 -0.08 1.12 -1 q0.76 -0.86 1.06 -1.38 t0.42 -1.12 q0.08 -0.42 0.06 -0.86 l-0.02 -0.34 q-0.26 0.62 -0.78 1.38 q-0.5 0.72 -1.04 1.27 t-0.84 0.63 z  M48.74 16.44 q1.4 -0.68 2.38 -1.58 q0.82 -0.76 1.32 -1.62 q0.38 -0.66 0.54 -1.32 q0.12 -0.48 0.08 -0.7 l0 -0.04 q-0.24 -1.2 -1.2 -1.8 q-1.82 -1.12 -5.74 0.36 q-2.48 0.96 -4.5 2.28 q-1.74 1.14 -3.12 2.52 q-1.12 1.16 -1.92 2.4 q-0.64 0.98 -0.98 1.88 q-0.28 0.7 -0.24 0.96 q0.04 0.3 0.38 0.92 q0.38 0.66 0.82 1.14 q0.52 0.58 0.94 0.66 q1.06 0.14 3.1 -0.52 q1.18 -0.38 3.58 -1.34 q1.04 -0.44 1.48 -0.6 q0.52 -0.2 0.98 -0.22 q0.32 -0.02 0.58 0.04 l0.2 0.08 l-0.78 0.46 q-0.96 0.58 -1.84 1.2 q-1.22 0.88 -2.11 1.68 t-1.59 1.64 q-0.62 0.74 -1 1.34 q-0.34 0.58 -0.37 0.84 t0.19 0.74 q0.26 0.54 0.64 0.94 q0.5 0.48 1.06 0.56 q0.8 0.14 1.84 -0.24 q0.96 -0.36 1.91 -1.06 t1.61 -1.5 q1.8 -2.1 2.3 -4.06 q0.34 -1.4 0 -2.54 q0.26 -0.14 0.78 -0.52 q0.6 -0.46 1.02 -0.86 q0.16 -0.14 0.32 -0.58 l0.14 -0.42 l-2.76 1.58 q-0.36 -0.32 -0.84 -0.44 q-0.66 -0.16 -1.68 -0.02 q-0.96 0.1 -2.32 0.48 q-0.82 0.22 -2.42 0.72 q-1.48 0.48 -2.14 0.66 q-1.08 0.28 -1.68 0.3 q-0.74 0.02 -1 -0.32 q-0.08 -0.1 0.12 -0.58 q0.24 -0.54 0.68 -1.24 q0.54 -0.84 1.26 -1.68 q0.84 -0.98 1.84 -1.86 q1.14 -1 2.43 -1.79 t2.43 -1.39 q1.06 -0.54 2 -0.92 q0.86 -0.34 1.62 -0.54 q0.66 -0.16 1.22 -0.24 q0.5 -0.04 0.9 -0.02 q0.36 0.04 0.6 0.12 q0.22 0.06 0.33 0.15 t0.09 0.15 q-0.18 0.94 -1.02 1.84 q-0.66 0.72 -1.74 1.46 q-0.62 0.4 -1.7 1 q-0.46 0.26 -0.62 0.36 q-0.24 0.14 -0.24 0.2 q-0.04 0.22 0.24 0.54 t0.68 0.44 q0.48 0.14 0.92 -0.08 z M43.28 24.6 q0.9 -0.88 2.14 -1.84 q0.9 -0.68 1.88 -1.34 l0.8 -0.52 l0 0.32 q-0.02 0.42 -0.14 0.86 q-0.16 0.64 -0.5 1.26 q-0.44 0.78 -1.12 1.48 q-0.92 0.92 -1.82 1.54 q-0.76 0.52 -1.48 0.82 q-0.58 0.22 -1.1 0.3 q-0.38 0.06 -0.7 0.02 l-0.24 -0.04 l0.3 -0.44 q0.38 -0.54 0.8 -1.08 q0.58 -0.74 1.18 -1.34 z M46.980000000000004 19.06 q-0.04 0.08 -0.3 0.03 t-0.5 -0.23 q-0.3 -0.22 -0.44 -0.62 q-0.16 -0.48 -0.04 -1.16 q0.26 -1.56 1.08 -3.7 q0.86 -2.18 2 -4.16 q1.24 -2.18 2.52 -3.54 q1.42 -1.54 2.66 -1.8 q0.32 -0.08 0.76 0.1 t0.72 0.56 q0.32 0.44 0.32 1 q0 1.1 -0.38 3.76 q-0.24 1.56 -0.78 4.9 q-0.42 2.58 -0.54 3.46 q-0.22 1.44 -0.1 1.44 q0.06 -0.02 0.3 -0.46 q0.14 -0.28 0.58 -1.2 q1.12 -2.32 1.9 -3.76 q1.38 -2.6 2.72 -4.54 q1.7 -2.48 3.36 -3.96 q0.32 -0.28 0.74 -0.44 q0.32 -0.12 0.68 -0.14 q0.26 -0.02 0.52 0.02 l0.2 0.04 l-0.48 0.48 q-0.56 0.6 -1.08 1.2 q-1.58 1.88 -3.24 4.56 q-1.4 2.26 -2.82 5.04 q-1.14 2.24 -2.26 4.7 q-0.78 1.76 -1.46 3.46 l-0.54 1.34 l-0.26 0.1 q-0.32 0.12 -0.62 0.1 q-0.4 -0.02 -0.7 -0.27 t0.26 -4.47 q0.34 -2.48 1.28 -8.48 q0.6 -3.74 0.78 -5.1 q0.32 -2.22 0.26 -2.44 q-0.14 -0.42 -0.76 0.18 q-0.6 0.56 -1.47 1.87 t-1.77 2.99 q-0.94 1.78 -1.68 3.5 q-0.82 1.92 -1.22 3.44 q-0.24 0.86 -0.26 1.44 q0 0.3 0.06 0.58 q0.04 0.14 0 0.18 z M76.24000000000001 18.66 q0.7 -1.48 1.64 -3.08 q0.54 -0.92 1.46 -2.4 q0.66 -1.04 0.86 -1.4 q0.3 -0.56 0.26 -0.72 q-0.1 -0.32 -2.62 -0.2 q-1.88 0.08 -5.76 0.46 q-1.98 0.2 -4.34 0.6 q-1.68 0.28 -3.38 0.62 l-1.38 0.3 l0.2 -0.3 q0.24 -0.4 0.54 -0.82 q0.42 -0.6 0.88 -1.16 q0.58 -0.7 1.2 -1.34 q0.72 -0.74 1.46 -1.36 q0.86 -0.7 1.72 -1.24 q0.98 -0.58 1.94 -0.92 q1.08 -0.38 2.14 -0.46 q0.38 -0.02 -0.1 1.16 q-0.34 0.84 -1.06 2.2 l-0.66 1.2 l0.1 0.04 q0.14 0.04 0.34 0.04 q0.24 0.02 0.54 -0.04 q0.36 -0.08 0.79 -0.28 t0.79 -1 q0.34 -0.76 0.44 -1.66 q0.12 -0.96 -0.1 -1.6 q-0.26 -0.72 -0.86 -0.8 q-1.26 -0.14 -2.54 0.16 q-1.18 0.28 -2.4 0.92 q-1.08 0.58 -2.16 1.44 q-0.96 0.76 -1.9 1.72 q-0.82 0.82 -1.58 1.76 q-0.62 0.76 -1.2 1.56 q-0.4 0.58 -0.76 1.12 l-0.26 0.42 l-1.32 0.42 q-1.6 0.5 -3 1.02 q-1.94 0.7 -3.2 1.32 q-1.58 0.74 -1.98 1.28 q-0.24 0.34 -0.22 0.88 q0.02 0.38 0.16 0.8 l0.16 0.36 l1.28 -0.8 q1.52 -0.92 2.68 -1.5 q0.98 -0.48 2.1 -0.94 q0.78 -0.32 1.54 -0.6 l0.62 -0.22 l-0.4 0.76 q-0.48 0.94 -0.84 1.86 q-0.5 1.32 -0.7 2.42 q-0.24 1.36 0.02 2.34 q0.32 1.16 1.32 1.72 q0.96 0.54 2.32 0.38 q1.22 -0.14 2.76 -0.82 q1.38 -0.64 2.98 -1.7 q1.42 -0.92 2.98 -2.18 q1.32 -1.06 2.72 -2.32 q1.12 -1.02 2.24 -2.1 q0.8 -0.78 1.52 -1.54 l0.56 -0.58 l-1.02 1.76 q-1.24 2.16 -2.22 4.06 q-1.38 2.68 -2.1 4.5 q-0.88 2.26 -0.66 3.06 q0.16 0.52 0.4 0.84 q0.2 0.26 0.44 0.38 q0.18 0.08 0.36 0.08 l0.14 -0.02 l0.58 -1.54 q0.74 -1.92 1.52 -3.74 q1.06 -2.56 2.02 -4.58 z M68.58000000000001 12.84 q1.94 -0.34 4.32 -0.6 q1.68 -0.2 3.4 -0.32 l1.4 -0.1 l-1.42 1.38 q-1.78 1.68 -3.54 3.26 q-2.48 2.2 -4.58 3.84 q-2.64 2.04 -4.54 3.1 q-2.24 1.24 -3.38 1.07 t-1.4 -1.27 q-0.2 -0.92 0.2 -2.46 q0.34 -1.26 1.06 -2.84 q0.5 -1.14 1.16 -2.34 l0.54 -0.96 l1 -0.32 q1.24 -0.4 2.5 -0.72 q1.76 -0.46 3.28 -0.72 z"></path></g><g id="SvgjsG1345" featurekey="text3" fill="#274bd9" transform="matrix(0.6126847568681225,0,0,0.6126847568681225,48.00396751535978,63.24258236150159)"><path d="M3.4473 23.808595 q-0.48828125 0.1171875 -1.162109375 0.029296875 q-0.224609375 -0.029296875 -0.4150390625 -0.13671875 t-0.40527 -0.18555 q-0.380859375 -0.13671875 -0.6591796875 -0.3857421875 t-0.46387 -0.62012 q-0.17578125 -0.37109375 -0.2587890625 -0.751953125 t-0.083008 -0.76172 q-0.009765625 -0.068359375 -0.0048828125 -0.1611328125 t0.0048828 -0.21973 q0.009765625 -0.17578125 0.0244140625 -0.361328125 t0.043945 -0.37109 q0.0390625 -0.3515625 0.17578125 -0.64453125 q0.126953125 -0.283203125 0.322265625 -0.5419921875 t0.48828 -0.4834 q0.810546875 -0.625 1.904296875 -0.654296875 q0.224609375 -0.009765625 0.4833984375 0.107421875 t0.4541 0.23438 q0.048828125 0.0390625 0.37109375 0.17578125 q0.205078125 0.107421875 0.3515625 0.234375 q0.185546875 0.17578125 0.3515625 0.46875 q0.009765625 0.01953125 0.048828125 0.087890625 t0.11719 0.19531 l0.0097656 0.0097656 l0.0097656 0.0097656 q0.087890625 0.087890625 0.15625 0.2587890625 t0.13672 0.41504 q0.146484375 0.48828125 0.17578125 0.72265625 q0.107421875 1.19140625 -0.5078125 2.08984375 q-0.1171875 0.166015625 -0.2392578125 0.33203125 t-0.20996 0.33203 l-0.078125 0.15625 l0.11719 0.12695 q0.05859375 0.05859375 0.1904296875 0.126953125 t0.35645 0.11719 q0.13671875 0.048828125 0.1953125 0.087890625 q0.0390625 0.0390625 0.0390625 0.13671875 t-0.063477 0.15625 t-0.14648 0.078125 t-0.18066 0.014648 t-0.17578 -0.024414 q-0.17578125 -0.048828125 -0.361328125 -0.1513671875 t-0.38086 -0.24902 q-0.166015625 -0.13671875 -0.33203125 -0.1171875 q-0.029296875 0 -0.107421875 0.01953125 t-0.21484 0.068359 z M2.9199 21.884775 q0.68359375 -0.068359375 0.810546875 0.263671875 q0.126953125 0.3125 0.44921875 0.33203125 q0.224609375 0 0.390625 -0.3125 q0.078125 -0.146484375 0.1416015625 -0.3173828125 t0.13184 -0.34668 q0.390625 -1.044921875 -0.185546875 -2.109375 q-0.068359375 -0.1171875 -0.107421875 -0.185546875 t-0.048828 -0.087891 q-0.8203125 -1.2890625 -2.34375 -0.78125 l-0.0097656 0 l-0.0097656 0.0097656 q-0.09765625 0.0390625 -0.2001953125 0.1025390625 t-0.22949 0.1416 q-0.205078125 0.146484375 -0.4296875 0.302734375 t-0.37109 0.35156 q-0.263671875 0.37109375 -0.302734375 1.064453125 q-0.009765625 0.1171875 -0.009765625 0.3076171875 t0.019531 0.4541 q0.029296875 0.517578125 0.1171875 0.72265625 l0 0.0097656 l0.0097656 0.0097656 q0.80078125 1.650390625 2.51953125 1.38671875 q0.244140625 -0.0390625 0.283203125 -0.234375 q0.009765625 -0.15625 -0.146484375 -0.302734375 q-0.029296875 -0.009765625 -0.1171875 -0.078125 q-0.166015625 -0.126953125 -0.380859375 -0.17578125 q-0.1953125 -0.029296875 -0.205078125 -0.0390625 q-0.068359375 -0.029296875 -0.107421875 -0.17578125 q-0.0390625 -0.09765625 0.01953125 -0.17578125 q0.078125 -0.107421875 0.3125 -0.13671875 z M12.724621875 17.724575 q0.29296875 -0.009765625 0.29296875 0.29296875 q0 0.41015625 -0.0048828125 0.80078125 t-0.053711 0.80078 q-0.048828125 0.380859375 -0.0048828125 0.751953125 t0.043945 0.74219 l0 0.068359 l-0.039063 0.66406 q-0.01953125 0.21484375 -0.048828125 0.380859375 t-0.048828 0.27344 l-0.019531 0.039063 l-0.019531 0.068359 l0 0.0097656 q-0.029296875 0.1171875 -0.107421875 0.2392578125 t-0.1709 0.23438 t-0.2002 0.20996 t-0.19531 0.17578 q-0.166015625 0.146484375 -0.361328125 0.234375 t-0.41016 0.12695 t-0.43457 0.053711 t-0.4248 0.014648 q-0.361328125 0 -0.703125 -0.0830078125 t-0.66406 -0.27832 q-0.01953125 -0.01953125 -0.01953125 -0.029296875 q-0.029296875 -0.009765625 -0.048828125 -0.029296875 l-0.039063 -0.039063 q-0.029296875 -0.01953125 -0.048828125 -0.0341796875 t-0.039063 -0.043945 q-0.48828125 -0.517578125 -0.625 -1.2890625 q-0.05859375 -0.380859375 -0.078125 -0.7470703125 t0 -0.71777 q0.009765625 -0.087890625 0.01953125 -0.1708984375 t0.019531 -0.1709 q0.009765625 -0.1171875 0.0048828125 -0.224609375 t-0.014648 -0.20508 q-0.05859375 -0.771484375 -0.029296875 -1.826171875 q0.009765625 -0.205078125 0.25390625 -0.29296875 q0.1953125 -0.05859375 0.33203125 0.0390625 q0.078125 0.078125 0.078125 0.17578125 q0.009765625 0.13671875 0.0048828125 0.3515625 t-0.014648 0.49805 q0 0.244140625 -0.01953125 0.48828125 t-0.019531 0.47852 q0 0.29296875 -0.01953125 0.5712890625 t-0.019531 0.56152 q0 0.546875 0.17578125 1.23046875 q0.01953125 0.087890625 0.0439453125 0.1611328125 t0.043945 0.15137 q0.146484375 0.458984375 0.44921875 0.634765625 q0.224609375 0.13671875 0.83984375 0.17578125 q0.078125 0.009765625 0.15625 0.0244140625 t0.16602 0.014648 l0.0097656 0 l0.0097656 0 q0.46875 0 0.8203125 -0.166015625 t0.5957 -0.57617 q0.1953125 -0.33203125 0.1953125 -1.015625 l0 -0.21973 t0.0097656 -0.15137 q0.09765625 -0.869140625 -0.01953125 -1.81640625 q-0.01953125 -0.126953125 0.029296875 -0.46875 q0.01953125 -0.13671875 0.029296875 -0.244140625 t0.0097656 -0.18555 q0 -0.419921875 0.05859375 -0.56640625 q0.078125 -0.146484375 0.2734375 -0.146484375 z M18.0175625 17.949175 q0.068359375 -0.029296875 0.1708984375 -0.0341796875 t0.2002 0.014648 t0.18066 0.068359 t0.12207 0.11719 q0.361328125 0.732421875 0.64453125 1.479492188 t0.6543 1.4697 q0.283203125 0.556640625 0.517578125 1.166992188 t0.54688 1.2256 l0.019531 0.039063 l0.0097656 0.0097656 q0.15625 0.283203125 0.2783203125 0.4833984375 t0.2002 0.30762 q0.693359375 0.927734375 1.42578125 1.34765625 q0.72265625 0.400390625 1.62109375 0.3515625 l0 -0.0097656 l0.0097656 0 q0.29296875 0 0.33203125 0.2734375 q0.009765625 0.302734375 -0.283203125 0.322265625 q-1.23046875 0.078125 -2.1875 -0.537109375 q-0.68359375 -0.439453125 -1.162109375 -1.098632813 t-0.81055 -1.3525 q-0.107421875 -0.224609375 -0.21484375 -0.4541015625 t-0.24414 -0.43457 q-0.107421875 -0.17578125 -0.244140625 -0.2978515625 t-0.27344 -0.2002 q-0.146484375 -0.068359375 -0.3271484375 -0.107421875 t-0.39551 -0.029297 q-0.17578125 0 -0.4248046875 0.0244140625 t-0.56152 0.043945 l-0.18555 0.0097656 q-0.224609375 0.01953125 -0.4736328125 0.05859375 t-0.4248 0.19531 q-0.068359375 0.068359375 -0.1318359375 0.166015625 t-0.1123 0.23438 q-0.048828125 0.1171875 -0.0927734375 0.2587890625 t-0.092773 0.30762 q-0.0390625 0.087890625 -0.1171875 0.341796875 q-0.25390625 0.29296875 -0.41015625 0.234375 q-0.078125 -0.0390625 -0.107421875 -0.1953125 q-0.009765625 -0.13671875 -0.0048828125 -0.2685546875 t0.053711 -0.26855 q0.17578125 -0.537109375 0.41015625 -1.064453125 t0.47852 -1.0547 l0.37109 -0.82031 t0.36133 -0.83008 q0.078125 -0.205078125 0.1513671875 -0.4052734375 t0.16113 -0.40527 l0.15625 -0.35156 q0.126953125 -0.263671875 0.205078125 -0.33203125 z M18.3203625 19.248075 q-0.185546875 0 -0.283203125 0.15625 q-0.068359375 0.068359375 -0.13671875 0.21484375 q-0.087890625 0.13671875 -0.1513671875 0.302734375 t-0.13184 0.35156 q-0.126953125 0.400390625 -0.17578125 0.6640625 q-0.068359375 0.46875 0.166015625 0.60546875 q0.068359375 0.0390625 0.126953125 0.0390625 q0.107421875 0.009765625 0.2587890625 0.0146484375 t0.35645 0.0048828 q0.15625 0 0.3857421875 -0.009765625 t0.38574 -0.058594 l0.13672 -0.039063 l0.039063 -0.14648 q0.048828125 -0.166015625 -0.01953125 -0.4052734375 t-0.22461 -0.56152 q-0.15625 -0.33203125 -0.2685546875 -0.5712890625 t-0.19043 -0.39551 q-0.107421875 -0.17578125 -0.2734375 -0.166015625 z M29.228521875 23.330075 q0.1171875 0.078125 0.1171875 0.21484375 q0.009765625 0.322265625 -0.380859375 0.322265625 q-0.703125 0 -1.40625 -0.01953125 t-1.4063 0.029297 q-0.556640625 0.029296875 -0.673828125 -0.302734375 q-0.05859375 -0.146484375 -0.05859375 -0.458984375 q0.009765625 -0.166015625 0.0146484375 -0.2880859375 t0.0048828 -0.20996 q0.009765625 -0.21484375 0.0244140625 -0.4443359375 t0.0048828 -0.4541 q-0.01953125 -0.46875 -0.0390625 -0.9130859375 t-0.0097656 -0.91309 q0.009765625 -0.224609375 0.01953125 -0.4443359375 t0.0097656 -0.4541 q0.009765625 -0.283203125 0.0048828125 -0.5224609375 t-0.024414 -0.43457 q-0.01953125 -0.263671875 0.244140625 -0.3125 q0.380859375 -0.078125 0.41015625 0.44921875 q0.01953125 0.224609375 0.029296875 0.4345703125 t0.029297 0.40527 l0 0.25391 l-0.039063 0.37109 q-0.01953125 0.15625 -0.0341796875 0.3125 t-0.024414 0.30273 q-0.01953125 0.37109375 -0.01953125 0.6494140625 t0.0097656 0.46387 q0.01953125 0.234375 0.0244140625 0.48828125 t-0.014648 0.53711 q-0.01953125 0.4296875 0.1171875 0.56640625 q0.107421875 0.126953125 0.458984375 0.15625 q0.17578125 0.01953125 0.3466796875 0.029296875 t0.34668 0.029297 q0.263671875 0.029296875 0.537109375 0.0048828125 t0.54688 0.014648 q0.17578125 0.01953125 0.4248046875 0.0341796875 t0.40527 0.10254 z M31.7675825 23.837895 q-0.3125 -0.048828125 -0.3125 -0.37109375 q-0.009765625 -0.52734375 -0.009765625 -1.03515625 l0 -1.0352 q0 -0.29296875 0.029296875 -0.5859375 q0.01953125 -0.21484375 0.01953125 -0.400390625 t-0.0097656 -0.3418 q-0.009765625 -0.09765625 -0.01953125 -0.234375 t-0.019531 -0.32227 q0 -0.09765625 0.0048828125 -0.234375 t0.014648 -0.32227 q0.009765625 -0.13671875 0.0146484375 -0.2392578125 t0.0048828 -0.18066 l0 -0.21484 l0 -0.0097656 l0 -0.078125 q-0.029296875 -0.244140625 0.009765625 -0.341796875 q0.029296875 -0.068359375 0.126953125 -0.13671875 q0.380859375 -0.1953125 0.46875 0.244140625 q0.078125 0.33203125 0.0927734375 0.6494140625 t-0.014648 0.62988 l0 0.0097656 q-0.029296875 0.302734375 -0.0146484375 0.60546875 t-0.014648 0.60547 q-0.029296875 0.263671875 -0.048828125 0.458984375 t-0.029297 0.33203 q-0.01953125 0.1953125 -0.01953125 0.4052734375 t0.0097656 0.44434 q0.009765625 0.048828125 0.009765625 0.1123046875 l0 0.15137 l0 0.3125 t0.0097656 0.30273 q0 0.107421875 0.0048828125 0.2001953125 t-0.0048828 0.19043 q0 0.1953125 -0.009765625 0.21484375 q-0.0390625 0.185546875 -0.29296875 0.21484375 z M39.492221875 18.193375 q-0.13671875 0.15625 -0.44921875 0.13671875 l-0.48828 -0.029297 q-0.146484375 -0.009765625 -0.283203125 -0.01953125 t-0.2832 -0.0097656 q-0.29296875 -0.009765625 -0.4296875 0.126953125 q-0.107421875 0.126953125 -0.107421875 0.419921875 q0 0.13671875 0.0146484375 0.2685546875 t0.014648 0.26855 q0.009765625 0.322265625 0.0146484375 0.5615234375 t0.0048828 0.40527 q0 0.498046875 -0.05859375 0.99609375 q-0.029296875 0.234375 0 0.46875 t0.039063 0.45898 q0.009765625 0.25390625 0.0146484375 0.439453125 t0.0048828 0.3125 l0 0.13184 t-0.0097656 0.20996 q-0.01953125 0.263671875 -0.0390625 0.322265625 q-0.126953125 0.21484375 -0.33203125 0.15625 q-0.25390625 -0.048828125 -0.25390625 -0.37109375 q-0.009765625 -0.29296875 0.0146484375 -0.5908203125 t0.043945 -0.59082 q0.029296875 -0.341796875 -0.0048828125 -0.693359375 t-0.03418 -0.70313 q0 -0.322265625 0.0244140625 -0.6494140625 t0.03418 -0.64941 q0 -0.634765625 -0.205078125 -0.8984375 q-0.107421875 -0.13671875 -0.2587890625 -0.2099609375 t-0.33691 -0.092773 t-0.34668 -0.03418 t-0.31738 -0.014648 l-0.29785 0 t-0.27832 -0.058594 q-0.078125 -0.0390625 -0.09765625 -0.185546875 q-0.01953125 -0.107421875 0.029296875 -0.185546875 q0.068359375 -0.1171875 0.341796875 -0.146484375 q0.029296875 -0.009765625 0.107421875 -0.009765625 q0.41015625 -0.009765625 0.7958984375 0.0341796875 t0.7959 0.014648 q0.166015625 -0.009765625 0.3271484375 -0.029296875 t0.33691 -0.019531 l0.64941 0 t0.64941 -0.0097656 q0.166015625 0 0.2880859375 0.009765625 t0.20996 0.048828 q0.302734375 0.205078125 0.15625 0.41015625 z M45.927759375 17.773475 q0.41015625 -0.009765625 0.185546875 0.4296875 q-0.048828125 0.09765625 -0.13671875 0.224609375 t-0.21484 0.29297 q-0.283203125 0.37109375 -0.439453125 0.68359375 q-0.146484375 0.29296875 -0.3369140625 0.5859375 t-0.41504 0.5957 l0 0.0097656 q-0.1171875 0.17578125 -0.1708984375 0.3369140625 t-0.073242 0.30762 q-0.01953125 0.17578125 0.0048828125 0.341796875 t0.024414 0.33203 q0 0.234375 -0.0146484375 0.4541015625 t0.014648 0.4541 q0.009765625 0.087890625 0.01953125 0.205078125 t0.019531 0.27344 q0.01953125 0.3125 -0.09765625 0.44921875 q-0.068359375 0.068359375 -0.21484375 0.087890625 q-0.3125 0.029296875 -0.341796875 -0.458984375 q-0.01953125 -0.439453125 0.01953125 -0.8984375 t0.068359 -0.9082 q0.029296875 -0.380859375 -0.126953125 -0.615234375 q-0.078125 -0.107421875 -0.1513671875 -0.244140625 t-0.1709 -0.29297 q-0.107421875 -0.166015625 -0.2099609375 -0.3369140625 t-0.20996 -0.34668 q-0.1171875 -0.185546875 -0.1953125 -0.3271484375 t-0.12695 -0.23926 q-0.078125 -0.13671875 -0.126953125 -0.234375 t-0.087891 -0.14648 t-0.097656 -0.12695 t-0.13672 -0.17578 q-0.244140625 -0.3125 -0.244140625 -0.458984375 q-0.01953125 -0.087890625 0.0390625 -0.185546875 q0.2734375 -0.322265625 0.517578125 0.0390625 q0.205078125 0.29296875 0.361328125 0.615234375 t0.33203 0.625 q0.13671875 0.224609375 0.2392578125 0.3759765625 t0.2002 0.23926 q0.234375 0.263671875 0.498046875 0.205078125 q0.234375 -0.048828125 0.44921875 -0.361328125 q0.087890625 -0.1171875 0.166015625 -0.244140625 t0.16602 -0.25391 q0.078125 -0.09765625 0.13671875 -0.2197265625 t0.1123 -0.24902 t0.1123 -0.25391 t0.13672 -0.24414 q0.21484375 -0.302734375 0.517578125 -0.341796875 z  M56.240190625 22.929675 q0.458984375 -0.263671875 0.537109375 0.17578125 q0.0390625 0.185546875 -0.1953125 0.361328125 q-0.107421875 0.078125 -0.2001953125 0.1318359375 t-0.1709 0.083008 q-0.224609375 0.09765625 -0.4052734375 0.1416015625 t-0.31738 0.063477 q-0.25390625 0.01953125 -0.537109375 0.01953125 t-0.5957 -0.048828 q-0.634765625 -0.09765625 -1.025390625 -0.439453125 q-0.361328125 -0.302734375 -0.595703125 -0.732421875 t-0.38086 -0.86914 l-0.019531 -0.058594 q-0.087890625 -0.283203125 -0.0634765625 -0.6298828125 t0.014648 -0.64941 q0 -0.234375 0.009765625 -0.4150390625 t0.048828 -0.30762 q0.068359375 -0.244140625 0.3125 -0.6640625 q0.263671875 -0.46875 0.595703125 -0.810546875 t0.89844 -0.45898 q0.146484375 -0.01953125 0.5078125 -0.1171875 q0.107421875 -0.029296875 0.2392578125 -0.048828125 t0.29785 -0.0097656 q0.126953125 0 0.2978515625 0.029296875 t0.39551 0.078125 q0.15625 0.048828125 0.478515625 0.205078125 q0.302734375 0.126953125 0.361328125 0.341796875 q0.01953125 0.078125 -0.01953125 0.166015625 q-0.087890625 0.146484375 -0.205078125 0.17578125 q-0.068359375 0.01953125 -0.1708984375 0 t-0.24902 -0.097656 q-0.1953125 -0.09765625 -0.361328125 -0.166015625 t-0.33691 -0.10254 t-0.35156 -0.024414 t-0.39551 0.068359 q-0.5078125 0.15625 -0.712890625 0.263671875 q-0.21484375 0.1171875 -0.5078125 0.556640625 q-0.234375 0.341796875 -0.3564453125 0.7177734375 t-0.1416 0.77148 t0.063477 0.78613 t0.25879 0.75195 l0 0.0097656 l0.0097656 0 q0.419921875 0.78125 1.201171875 0.9765625 q0.56640625 0.13671875 0.87890625 0.05859375 q0.087890625 -0.009765625 0.166015625 -0.029296875 t0.16602 -0.039063 q0.33203125 -0.068359375 0.576171875 -0.21484375 z M62.8320375 23.330075 q0.1171875 0.078125 0.1171875 0.21484375 q0.009765625 0.322265625 -0.380859375 0.322265625 q-0.703125 0 -1.40625 -0.01953125 t-1.4063 0.029297 q-0.556640625 0.029296875 -0.673828125 -0.302734375 q-0.05859375 -0.146484375 -0.05859375 -0.458984375 q0.009765625 -0.166015625 0.0146484375 -0.2880859375 t0.0048828 -0.20996 q0.009765625 -0.21484375 0.0244140625 -0.4443359375 t0.0048828 -0.4541 q-0.01953125 -0.46875 -0.0390625 -0.9130859375 t-0.0097656 -0.91309 q0.009765625 -0.224609375 0.01953125 -0.4443359375 t0.0097656 -0.4541 q0.009765625 -0.283203125 0.0048828125 -0.5224609375 t-0.024414 -0.43457 q-0.01953125 -0.263671875 0.244140625 -0.3125 q0.380859375 -0.078125 0.41015625 0.44921875 q0.01953125 0.224609375 0.029296875 0.4345703125 t0.029297 0.40527 l0 0.25391 l-0.039063 0.37109 q-0.01953125 0.15625 -0.0341796875 0.3125 t-0.024414 0.30273 q-0.01953125 0.37109375 -0.01953125 0.6494140625 t0.0097656 0.46387 q0.01953125 0.234375 0.0244140625 0.48828125 t-0.014648 0.53711 q-0.01953125 0.4296875 0.1171875 0.56640625 q0.107421875 0.126953125 0.458984375 0.15625 q0.17578125 0.01953125 0.3466796875 0.029296875 t0.34668 0.029297 q0.263671875 0.029296875 0.537109375 0.0048828125 t0.54688 0.014648 q0.17578125 0.01953125 0.4248046875 0.0341796875 t0.40527 0.10254 z M67.060528125 23.818355 q-0.1953125 -0.05859375 -0.3955078125 -0.1513671875 t-0.39063 -0.21484 t-0.35645 -0.27344 t-0.2832 -0.32715 q-0.15625 -0.244140625 -0.224609375 -0.5029296875 t-0.19531 -0.53223 q-0.09765625 -0.21484375 -0.107421875 -0.46875 q-0.009765625 -0.1171875 -0.0244140625 -0.2392578125 t-0.014648 -0.23926 q-0.009765625 -0.1171875 -0.0146484375 -0.205078125 t-0.0048828 -0.14648 q0 -0.185546875 0.0244140625 -0.3857421875 t0.073242 -0.41504 q0.009765625 -0.068359375 0.05859375 -0.17578125 q0.09765625 -0.29296875 0.2490234375 -0.5517578125 t0.34668 -0.4834 q0.380859375 -0.4296875 1.064453125 -0.76171875 q0.3125 -0.13671875 0.654296875 -0.126953125 q0.21484375 0.01953125 0.4296875 0.05859375 q0.17578125 0.029296875 0.3076171875 0.0439453125 t0.22949 0.03418 q0.751953125 0.087890625 1.328125 0.6640625 q0.126953125 0.126953125 0.2392578125 0.2783203125 t0.21973 0.32715 l0.048828 0.078125 q0.009765625 0.029296875 0.01953125 0.048828125 l0.019531 0.039063 q0.166015625 0.390625 0.302734375 0.9765625 q0.126953125 0.546875 0.0390625 1.005859375 q-0.05859375 0.263671875 -0.146484375 0.5078125 t-0.15625 0.48828 q-0.380859375 1.30859375 -1.71875 1.650390625 l-0.078125 0.019531 q-0.078125 0.01953125 -0.1953125 0.0390625 t-0.27344 0.039063 q-0.25390625 0.029296875 -0.5224609375 0.009765625 t-0.55176 -0.10742 z M68.046828125 18.232375 q-0.52734375 0 -0.9521484375 0.126953125 t-0.7666 0.46875 q-0.46875 0.46875 -0.595703125 1.040039063 t0.0097656 1.2744 l0.087891 0.47852 q0.01953125 0.13671875 0.0390625 0.2197265625 t0.029297 0.10254 q0.05859375 0.21484375 0.234375 0.41015625 t0.32227 0.3418 q0.078125 0.087890625 0.15625 0.1708984375 t0.16602 0.15137 q0.146484375 0.126953125 0.48828125 0.234375 l0.0097656 0 q0.185546875 0.048828125 0.4150390625 0.0341796875 t0.5127 -0.083008 q0.13671875 -0.0390625 0.2783203125 -0.0537109375 t0.28809 -0.053711 q0.361328125 -0.087890625 0.60546875 -0.390625 l0.0097656 0 l0 -0.0097656 q0.15625 -0.185546875 0.263671875 -0.46875 q0.09765625 -0.283203125 0.146484375 -0.361328125 q0.48828125 -0.95703125 0.146484375 -2.0703125 l-0.0097656 -0.0097656 q-0.0390625 -0.107421875 -0.078125 -0.205078125 t-0.10742 -0.19531 q-0.380859375 -0.576171875 -0.908203125 -0.830078125 q-0.01953125 -0.009765625 -0.087890625 -0.048828125 t-0.19531 -0.11719 q-0.17578125 -0.107421875 -0.498046875 -0.15625 l-0.0097656 0 z M78.0176125 18.193375 q-0.13671875 0.15625 -0.44921875 0.13671875 l-0.48828 -0.029297 q-0.146484375 -0.009765625 -0.283203125 -0.01953125 t-0.2832 -0.0097656 q-0.29296875 -0.009765625 -0.4296875 0.126953125 q-0.107421875 0.126953125 -0.107421875 0.419921875 q0 0.13671875 0.0146484375 0.2685546875 t0.014648 0.26855 q0.009765625 0.322265625 0.0146484375 0.5615234375 t0.0048828 0.40527 q0 0.498046875 -0.05859375 0.99609375 q-0.029296875 0.234375 0 0.46875 t0.039063 0.45898 q0.009765625 0.25390625 0.0146484375 0.439453125 t0.0048828 0.3125 l0 0.13184 t-0.0097656 0.20996 q-0.01953125 0.263671875 -0.0390625 0.322265625 q-0.126953125 0.21484375 -0.33203125 0.15625 q-0.25390625 -0.048828125 -0.25390625 -0.37109375 q-0.009765625 -0.29296875 0.0146484375 -0.5908203125 t0.043945 -0.59082 q0.029296875 -0.341796875 -0.0048828125 -0.693359375 t-0.03418 -0.70313 q0 -0.322265625 0.0244140625 -0.6494140625 t0.03418 -0.64941 q0 -0.634765625 -0.205078125 -0.8984375 q-0.107421875 -0.13671875 -0.2587890625 -0.2099609375 t-0.33691 -0.092773 t-0.34668 -0.03418 t-0.31738 -0.014648 l-0.29785 0 t-0.27832 -0.058594 q-0.078125 -0.0390625 -0.09765625 -0.185546875 q-0.01953125 -0.107421875 0.029296875 -0.185546875 q0.068359375 -0.1171875 0.341796875 -0.146484375 q0.029296875 -0.009765625 0.107421875 -0.009765625 q0.41015625 -0.009765625 0.7958984375 0.0341796875 t0.7959 0.014648 q0.166015625 -0.009765625 0.3271484375 -0.029296875 t0.33691 -0.019531 l0.64941 0 t0.64941 -0.0097656 q0.166015625 0 0.2880859375 0.009765625 t0.20996 0.048828 q0.302734375 0.205078125 0.15625 0.41015625 z M82.63675 19.990275 q0.3515625 0.009765625 0.703125 0.0244140625 t0.70313 0.063477 q0.2734375 0.0390625 0.419921875 -0.1171875 q0.107421875 -0.1171875 0.1025390625 -0.29296875 t-0.0048828 -0.33203 q0.009765625 -0.244140625 0.009765625 -0.4248046875 l0 -0.29785 q0 -0.05859375 0.0048828125 -0.15625 t0.0097656 -0.2002 t0.019531 -0.2002 t0.043945 -0.15625 q0.087890625 -0.205078125 0.322265625 -0.185546875 q0.25390625 0.029296875 0.25390625 0.439453125 q-0.009765625 0.244140625 -0.029296875 0.48828125 t0 0.47852 l0 0.0097656 q0 0.390625 0.01953125 0.78125 t0.039063 0.77148 q0.01953125 0.234375 0 0.4736328125 t-0.019531 0.47363 q-0.009765625 0.41015625 -0.009765625 0.8154296875 l0 0.81543 q0 0.361328125 -0.068359375 0.46875 q-0.0390625 0.068359375 -0.15625 0.09765625 q-0.3515625 0.087890625 -0.400390625 -0.3125 q-0.048828125 -0.498046875 -0.0341796875 -1.005859375 t-0.0048828 -1.0156 q-0.009765625 -0.185546875 -0.0439453125 -0.41015625 t-0.19043 -0.36133 q-0.146484375 -0.1171875 -0.5078125 -0.1171875 q-0.17578125 0 -0.3466796875 0.009765625 t-0.34668 0 l-0.55664 0 q-0.17578125 0.009765625 -0.3466796875 -0.0048828125 t-0.34668 -0.024414 q-0.37109375 -0.029296875 -0.556640625 0.09765625 q-0.224609375 0.1953125 -0.224609375 0.654296875 q0 0.302734375 0.009765625 0.6103515625 t0.0097656 0.60059 q0 0.244140625 -0.009765625 0.4248046875 t-0.0097656 0.30762 q-0.009765625 0.13671875 -0.01953125 0.234375 t-0.029297 0.16602 q-0.107421875 0.205078125 -0.341796875 0.146484375 q-0.234375 -0.0390625 -0.234375 -0.361328125 l0 -0.63477 t0.0097656 -0.63477 q0.009765625 -0.302734375 0 -0.6103515625 t-0.0097656 -0.62012 q0 -0.498046875 0.009765625 -0.99609375 l0.019531 -0.99609 q0 -0.078125 -0.009765625 -0.21484375 t-0.019531 -0.3418 q-0.01953125 -0.419921875 0.029296875 -0.52734375 q0.126953125 -0.185546875 0.29296875 -0.17578125 q0.29296875 0.009765625 0.322265625 0.458984375 q0.009765625 0.1171875 0.0146484375 0.205078125 t0.0048828 0.15625 l0 0.13672 t-0.019531 0.20508 l-0.039063 0.29297 t-0.019531 0.2832 q-0.01953125 0.3125 0.1171875 0.4296875 q0.146484375 0.107421875 0.390625 0.068359375 q0.13671875 -0.009765625 0.234375 -0.009765625 l0.16602 0 q0.166015625 0.009765625 0.33203125 0.029296875 t0.3418 0.019531 z M88.27148875 23.837895 q-0.3125 -0.048828125 -0.3125 -0.37109375 q-0.009765625 -0.52734375 -0.009765625 -1.03515625 l0 -1.0352 q0 -0.29296875 0.029296875 -0.5859375 q0.01953125 -0.21484375 0.01953125 -0.400390625 t-0.0097656 -0.3418 q-0.009765625 -0.09765625 -0.01953125 -0.234375 t-0.019531 -0.32227 q0 -0.09765625 0.0048828125 -0.234375 t0.014648 -0.32227 q0.009765625 -0.13671875 0.0146484375 -0.2392578125 t0.0048828 -0.18066 l0 -0.21484 l0 -0.0097656 l0 -0.078125 q-0.029296875 -0.244140625 0.009765625 -0.341796875 q0.029296875 -0.068359375 0.126953125 -0.13671875 q0.380859375 -0.1953125 0.46875 0.244140625 q0.078125 0.33203125 0.0927734375 0.6494140625 t-0.014648 0.62988 l0 0.0097656 q-0.029296875 0.302734375 -0.0146484375 0.60546875 t-0.014648 0.60547 q-0.029296875 0.263671875 -0.048828125 0.458984375 t-0.029297 0.33203 q-0.01953125 0.1953125 -0.01953125 0.4052734375 t0.0097656 0.44434 q0.009765625 0.048828125 0.009765625 0.1123046875 l0 0.15137 l0 0.3125 t0.0097656 0.30273 q0 0.107421875 0.0048828125 0.2001953125 t-0.0048828 0.19043 q0 0.1953125 -0.009765625 0.21484375 q-0.0390625 0.185546875 -0.29296875 0.21484375 z M91.855468125 23.632815 q-0.0390625 0.17578125 -0.302734375 0.205078125 q-0.2734375 -0.009765625 -0.2734375 -0.302734375 q0 -0.76171875 -0.0341796875 -1.538085938 t0.043945 -1.5381 l0 -0.0097656 q0 -0.224609375 0.0048828125 -0.439453125 t-0.014648 -0.41992 l-0.078125 -0.74219 q-0.029296875 -0.3125 0.09765625 -0.673828125 q0.09765625 -0.25390625 0.263671875 -0.302734375 q0.13671875 -0.029296875 0.283203125 0.13671875 q0.13671875 0.146484375 0.205078125 0.25390625 q0.126953125 0.185546875 0.2587890625 0.33203125 t0.25879 0.27344 q0.107421875 0.126953125 0.2197265625 0.2197265625 t0.21973 0.20996 q0.09765625 0.09765625 0.21484375 0.2490234375 t0.25391 0.35645 l0.42969 0.66406 q0.048828125 0.068359375 0.1025390625 0.15625 t0.13184 0.20508 l0.0097656 0.0097656 q0.205078125 0.2734375 0.4296875 0.517578125 q0.107421875 0.1171875 0.21484375 0.2197265625 t0.22461 0.20996 q0.107421875 0.126953125 0.25390625 0.078125 q0.224609375 -0.05859375 0.21484375 -0.44921875 q0 -0.09765625 -0.0146484375 -0.205078125 t-0.014648 -0.21484 q-0.009765625 -0.078125 -0.01953125 -0.1513671875 t-0.0097656 -0.16113 q0 -0.0390625 -0.0048828125 -0.087890625 t-0.0048828 -0.10742 q0.0390625 -0.859375 -0.05859375 -1.6015625 q-0.009765625 -0.048828125 -0.009765625 -0.1611328125 t0.019531 -0.28809 q0.009765625 -0.21484375 0.05859375 -0.458984375 q0.029296875 -0.3515625 0.3125 -0.3515625 q0.3125 0 0.3125 0.37109375 q0.009765625 0.302734375 0.0244140625 0.6103515625 t0.014648 0.61035 q0.009765625 0.44921875 -0.01953125 0.8984375 t-0.0097656 0.89844 q0.01953125 0.302734375 0.0146484375 0.595703125 t-0.014648 0.58594 q0 0.166015625 0.0048828125 0.3271484375 t0.0048828 0.30762 l0 0.39063 q-0.009765625 0.05859375 -0.0146484375 0.1171875 t-0.0048828 0.10742 q-0.009765625 0.009765625 -0.009765625 0.01953125 t-0.0097656 0.0097656 q-0.107421875 0.146484375 -0.33203125 0.146484375 q-0.263671875 0.01953125 -0.400390625 -0.166015625 q-0.146484375 -0.185546875 -0.2685546875 -0.400390625 t-0.26855 -0.41992 q-0.17578125 -0.234375 -0.3857421875 -0.5029296875 t-0.46387 -0.57129 q-0.09765625 -0.107421875 -0.2734375 -0.390625 l-0.3418 -0.54688 q-0.126953125 -0.1953125 -0.25390625 -0.3955078125 t-0.26367 -0.38574 q-0.05859375 -0.068359375 -0.126953125 -0.1513671875 t-0.14648 -0.1416 t-0.17578 -0.087891 t-0.19531 0 q-0.263671875 0.078125 -0.244140625 0.537109375 q0.009765625 0.33203125 0.0146484375 0.625 t0.024414 0.54688 q0.01953125 0.205078125 -0.0048828125 0.41015625 t-0.024414 0.40039 l0 0.76172 q0 0.244140625 -0.0146484375 0.439453125 t-0.03418 0.35156 z M103.9257625 23.212895 q-0.72265625 0.64453125 -1.73828125 0.693359375 q-0.986328125 0.0390625 -1.865234375 -0.3125 l-0.0097656 -0.0097656 l-0.019531 0 q-0.146484375 -0.048828125 -0.419921875 -0.2734375 q-0.263671875 -0.234375 -0.3515625 -0.3515625 q-0.146484375 -0.1953125 -0.2587890625 -0.439453125 t-0.22949 -0.46875 q-0.21484375 -0.419921875 -0.234375 -0.712890625 q-0.009765625 -0.146484375 -0.0048828125 -0.3369140625 t0.024414 -0.43457 q0.087890625 -1.07421875 0.673828125 -1.982421875 q0.048828125 -0.078125 0.185546875 -0.1904296875 t0.35156 -0.22949 q0.44921875 -0.244140625 0.76171875 -0.341796875 q0.205078125 -0.068359375 0.458984375 -0.09765625 q0.5859375 -0.068359375 1.201171875 0.0048828125 t1.1426 0.37598 q0.078125 0.048828125 0.1708984375 0.1171875 t0.21973 0.16602 q0.244140625 0.185546875 0.2734375 0.37109375 q0.009765625 0.087890625 -0.05859375 0.17578125 q-0.107421875 0.13671875 -0.205078125 0.13671875 q-0.1171875 0 -0.25390625 -0.0927734375 t-0.21484 -0.15137 q-0.166015625 -0.107421875 -0.2685546875 -0.17578125 t-0.12207 -0.087891 q-0.498046875 -0.263671875 -1.2109375 -0.263671875 q-0.166015625 0 -0.361328125 0.0146484375 t-0.41992 0.053711 l-0.019531 0 l-0.019531 0.0097656 q-1.240234375 0.3515625 -1.611328125 1.689453125 q-0.126953125 0.478515625 -0.0537109375 0.908203125 t0.19043 0.87891 q0.185546875 0.68359375 0.615234375 0.986328125 t1.084 0.41992 l0.0097656 0 q0.17578125 0.029296875 0.3271484375 0.029296875 t0.29785 -0.024414 t0.29785 -0.053711 t0.32715 -0.048828 q0.693359375 -0.087890625 0.986328125 -0.498046875 l0 -0.0097656 q0.21484375 -0.33203125 0.17578125 -0.927734375 q-0.009765625 -0.3125 -0.224609375 -0.5078125 q-0.263671875 -0.244140625 -0.732421875 -0.224609375 l-0.78125 0.029297 q-0.126953125 0.009765625 -0.224609375 0.0146484375 t-0.17578 0.0048828 q-0.37109375 -0.048828125 -0.322265625 -0.33203125 q0.029296875 -0.1953125 0.2734375 -0.25390625 q0.439453125 -0.0390625 0.8642578125 -0.009765625 t0.87402 0 l0.41992 -0.029297 q0.283203125 -0.01953125 0.419921875 0.09765625 q0.15625 0.1171875 0.166015625 0.41015625 q0.029296875 0.29296875 0.029296875 0.44921875 q0 0.263671875 0.009765625 0.5517578125 t-0.039063 0.54199 q-0.068359375 0.37109375 -0.380859375 0.7421875 z"></path></g></svg>
