<svg width="125" height="179" viewBox="0 0 125 179" fill="none" xmlns="http://www.w3.org/2000/svg">
<path d="M103.924 165.617C101.904 167.971 99.7557 170.211 97.4876 172.326C95.9152 173.479 93.9026 174.905 95.2443 176.226C97.0744 177.542 99.28 178.233 101.534 178.196C103.903 177.861 109.647 174.003 109.647 174.003L110.151 172.158L110.759 173.374L113.694 171.425C113.714 171.051 113.763 170.679 113.84 170.313C113.819 168.919 113.52 167.544 112.96 166.267L103.924 165.617Z" fill="#FFBD59"/>
<path d="M88.3264 160.774C86.3446 162.949 84.2449 165.014 82.0369 166.959C80.5484 168.007 78.955 169.58 79.9404 170.565C81.5908 171.792 83.5864 172.467 85.6429 172.494C88.384 171.545 90.9858 170.234 93.379 168.594L93.8822 166.896L94.4273 168.049L97.1737 166.54C97.1737 166.54 97.1737 166.54 97.3205 165.261C97.3205 163.959 97.064 162.669 96.5657 161.466L88.3264 160.774Z" fill="#FFBD59"/>
<path d="M86.8163 162.116C86.8163 162.116 86.8163 162.703 90.7787 163.039C93.1165 163.223 95.447 162.601 97.3828 161.278L100.989 71.3789L83.1055 76.6202L86.8163 162.116Z" fill="#26E0BF"/>
<path d="M102.059 165.743C104.063 167.107 106.392 167.917 108.809 168.091C110.857 167.947 112.831 167.267 114.533 166.121L115.854 77.1445H95.832C97.048 86.9772 102.059 165.743 102.059 165.743Z" fill="#26E0BF"/>
<path d="M67.1514 74.2717C71.5541 75.865 72.5604 77.5632 72.6862 77.7309C76.3341 74.3975 97.5299 31.7124 97.8444 30.748C95.7479 30.4126 91.2613 25.7373 91.0936 25.7373C84.0912 25.6954 68.9334 69.1562 67.1514 74.2717Z" fill="#FFDB5A"/>
<path d="M91.01 25.6959C86.3138 27.7924 84.0286 40.3715 84.0286 44.5645C84.0286 53.1183 80.5693 85.9288 80.5693 85.9288C81.7853 87.6689 85.8526 88.3188 85.8526 88.3188L89.7521 82.0293L93.0017 90.038C102.792 95.8034 118.621 93.9165 118.621 93.9165C118.621 93.9165 118.453 62.9929 120.131 34.627C120.403 29.8889 92.834 24.9411 91.01 25.6959Z" fill="#6E6FDA"/>
<path d="M97.1942 22.0271C97.9664 23.1731 98.3396 24.5415 98.2563 25.9209C98.1729 27.3002 97.6375 28.6137 96.733 29.6584C94.4688 32.7822 91.0934 38.338 94.6365 40.4555C100.695 43.9986 109.082 28.8408 109.082 28.8408C107.861 24.9581 107.087 20.9488 106.775 16.8906L97.1942 22.0271Z" fill="#FFAA83"/>
<path d="M94.4057 2.23554C92.0367 3.47248 91.6174 6.19795 91.1562 12.4036C90.7021 17.2848 92.0193 22.1665 94.867 26.1568C96.7329 28.2533 100.36 26.5132 100.905 26.1568C103.638 23.6786 106.124 20.9402 108.327 17.9804C108.327 17.9804 110.423 12.2779 109.165 8.48316C106.985 2.15168 98.0327 0.390606 94.4057 2.23554Z" fill="#FFAA83"/>
<path d="M102.792 0.725748C102.66 3.16631 102.731 5.61357 103.002 8.04259C103.845 10.017 105.03 11.8269 106.503 13.3887C106.503 13.3887 109.186 11.418 109.186 13.5564C109.251 14.4323 109.081 15.3096 108.694 16.0981C108.307 16.8865 107.717 17.5578 106.985 18.043L107.174 21.5022C109.34 18.385 110.714 14.7871 111.178 11.0196C112.813 -0.0289977 102.792 0.725748 102.792 0.725748Z" fill="#713D23"/>
<path d="M98.3267 0.180945C86.9845 2.80159 91.1776 12.8649 91.1776 12.8649C94.8247 12.1329 98.3526 10.8982 101.66 9.19596C103.468 7.926 104.948 6.24451 105.979 4.29011C105.431 2.78471 104.348 1.53372 102.937 0.775821C101.525 0.0179197 99.8843 -0.193835 98.3267 0.180945Z" fill="#713D23"/>
<path d="M56.6691 141.57C50.3795 141.57 45.0963 144.359 45.1172 147.86C45.1382 151.361 50.3166 154.024 56.711 154.003C63.1054 153.982 68.2838 151.193 68.2628 147.713C68.2418 144.233 63.1263 141.549 56.6691 141.57Z" fill="#FFDB5A"/>
<path d="M0 139.536L47.0668 166.686V112.931L0 85.8232V139.536Z" fill="#EE428C"/>
<path d="M46.9414 166.456L115.875 126.434V72.4902L46.9414 112.701V166.456Z" fill="#BC4274"/>
<path d="M0 85.9077L47.0668 113.016L115.874 72.49L69.4785 44.8369L0 85.9077Z" fill="#FF65A7"/>
<path d="M41.8252 96.6002C41.8252 100.018 47.2342 102.764 53.6076 102.764C59.981 102.764 65.39 100.018 65.39 96.6002V88.0674H41.8252V96.6002Z" fill="#EE428C"/>
<path d="M74.8252 76.1588C74.8252 79.5552 80.2132 82.3226 86.6076 82.3226C93.002 82.3226 98.39 79.5552 98.39 76.1588V67.626H74.8252V76.1588Z" fill="#EE428C"/>
<path d="M49.6875 60.833C49.6875 64.2504 55.0755 66.9968 61.4699 66.9968C67.8643 66.9968 73.2523 64.2504 73.2523 60.833V51.9229H49.6875V60.833Z" fill="#EE428C"/>
<path d="M53.6076 82.3018C47.1084 82.3018 41.8252 85.0692 41.8252 88.5913C41.8252 92.1135 47.1084 94.7551 53.6076 94.7551C60.1068 94.7551 65.39 92.0086 65.39 88.5913C65.39 85.174 60.1278 82.3018 53.6076 82.3018Z" fill="#FF65A7"/>
<path d="M16.709 81.2739C16.709 84.6913 21.3003 87.4587 27.6947 87.4587C34.0891 87.4587 38.7014 84.6912 38.7014 81.2949V72.3428H16.709V81.2739Z" fill="#EE428C"/>
<path d="M27.6947 66.7031C21.6148 66.7031 16.709 69.3028 16.709 72.5105C16.709 75.7182 21.6148 78.3388 27.6947 78.3388C33.7746 78.3388 38.7014 75.7391 38.7014 72.5105C38.7014 69.2818 33.7746 66.7031 27.6947 66.7031Z" fill="#FF65A7"/>
<path d="M86.5657 61.7139C80.0875 61.7139 74.8252 64.4603 74.8252 67.8776C74.8252 71.295 80.0875 74.0623 86.5657 74.0623C93.0439 74.0623 98.3061 71.295 98.3061 67.8776C98.3061 64.4603 93.0439 61.7139 86.5657 61.7139Z" fill="#FF65A7"/>
<path d="M61.4699 45.9062C54.9707 45.9062 49.6875 48.6527 49.6875 52.07C49.6875 55.4873 54.9707 58.3596 61.4699 58.3596C67.9691 58.3596 73.2523 55.5922 73.2523 52.07C73.2523 48.5479 67.9691 45.9062 61.4699 45.9062Z" fill="#FF65A7"/>
<path d="M101.178 90.6881C100.57 91.0236 99.7945 91.2332 100.382 91.988C100.969 92.7427 103.212 91.5896 103.589 91.1284C104.176 89.7238 103.359 89.3883 104.092 88.1514C103.257 89.142 102.274 89.9977 101.178 90.6881Z" fill="#FFAA83"/>
<path d="M104.595 87.249C103.851 88.5173 103.192 89.8341 102.624 91.1905C101.932 92.8467 100.758 96.7043 100.695 96.9769C100.296 98.0733 99.9946 99.2028 99.7939 100.352C100.033 100.987 100.357 101.587 100.758 102.134C101.134 102.252 101.536 102.252 101.911 102.134C102.54 102.742 103.756 100.918 103.882 101.107C104.364 101.862 105.538 101.442 106.377 98.4025C106.377 98.2138 109.543 92.3855 110.57 90.0164C109.666 89.5496 108.833 88.9566 108.096 88.2553C106.862 88.2269 105.656 87.8803 104.595 87.249Z" fill="#FFAA83"/>
<path d="M115.371 30.8525C115.833 34.6263 106.063 81.1689 103.631 87.773C106.22 88.7921 108.729 90.0045 111.136 91.3999C120.822 69.5123 124.03 51.3774 124.03 41.985C123.977 39.4446 123.106 36.9891 121.546 34.9834C119.986 32.9777 117.821 31.529 115.371 30.8525Z" fill="#FFDB5A"/>
</svg>
