<svg width="414" height="612" viewBox="0 0 414 612" fill="none" xmlns="http://www.w3.org/2000/svg">
<mask id="mask0" mask-type="alpha" maskUnits="userSpaceOnUse" x="0" y="0" width="414" height="612">
<rect width="414" height="612" fill="#004777"/>
</mask>
<g mask="url(#mask0)">
<rect width="414" height="612" fill="#E6F5FE"/>
</g>
<g style="mix-blend-mode:multiply" clip-path="url(#clip0)">
<path d="M80.19 362.61L69.71 356.69C69.2636 356.441 68.7611 356.311 68.25 356.311C67.739 356.311 67.2365 356.441 66.79 356.69L46.51 368.09C46.0601 368.355 45.6871 368.733 45.4279 369.186C45.1688 369.64 45.0325 370.153 45.0325 370.675C45.0325 371.197 45.1688 371.71 45.4279 372.164C45.6871 372.617 46.0601 372.995 46.51 373.26L57 379.17C57.4452 379.417 57.946 379.546 58.455 379.546C58.9641 379.546 59.4648 379.417 59.91 379.17L80.18 367.78C80.6305 367.516 81.0043 367.139 81.2643 366.686C81.5243 366.233 81.6616 365.72 81.6626 365.198C81.6636 364.676 81.5283 364.162 81.27 363.708C81.0118 363.255 80.6395 362.876 80.19 362.61Z" fill="#D1DDFF"/>
<path d="M56.6701 365.12L51.9401 364.7C51.5456 365.308 51.2739 365.988 51.1401 366.7C51.1524 366.897 51.1524 367.094 51.1401 367.29L52.5001 368.61L52.9201 368L53.0001 369C53.0001 369 55.6901 371.54 56.9101 371.91C58.071 372.098 59.2616 371.913 60.3101 371.38C61.1201 370.79 60.1801 369.89 59.4501 369.15C58.4487 367.86 57.5206 366.515 56.6701 365.12Z" fill="#2D4383"/>
<path d="M75.5201 366.94C74.3578 365.905 73.2496 364.81 72.2001 363.66L67.8001 364C67.5366 364.634 67.4007 365.314 67.4001 366C67.5201 366.69 67.4901 366.69 67.4901 366.69L68.9401 367.48L69.2301 366.88L69.5001 367.78C69.5001 367.78 72.4401 369.71 73.6101 369.85C74.6898 369.837 75.7385 369.487 76.6101 368.85C77.1601 368.33 76.3101 367.5 75.5201 366.94Z" fill="#2D4383"/>
<path d="M67.38 363.92C68.4097 364.622 69.6473 364.954 70.89 364.86C73 364.68 73 364.37 73 364.37L75 319L65.49 316.21L67.38 363.92Z" fill="#26E0BF"/>
<path d="M51.0601 364.51C51.8618 365.244 52.8404 365.758 53.9001 366C55.1817 366.108 56.4689 365.873 57.6301 365.32C57.6301 365.32 66.7501 324.4 68.1901 319.32L57.6901 317.67L51.0601 364.51Z" fill="#26E0BF"/>
<path d="M99.3199 300.35C98.7099 300.73 95.7499 303.29 95.4199 304.78C95.7524 305.031 96.0514 305.323 96.3099 305.65C96.9599 304.73 97.3099 303.8 98.0199 302.84C98.4999 302.16 99.4099 301.52 99.7699 300.75C99.8023 300.689 99.8132 300.618 99.8008 300.55C99.7884 300.482 99.7535 300.42 99.7017 300.374C99.6499 300.328 99.5841 300.3 99.5149 300.296C99.4457 300.292 99.377 300.311 99.3199 300.35Z" fill="#FFAA83"/>
<path d="M98.9399 301.68C98.4299 302.19 95.2599 304.5 94.9399 306C95.2767 306.242 95.5765 306.532 95.8299 306.86C96.4799 305.94 96.8299 305.02 97.5399 304.06C98.1777 303.424 98.7599 302.735 99.2799 302C99.3224 301.955 99.3452 301.895 99.3433 301.833C99.3414 301.771 99.315 301.713 99.2699 301.67C99.2249 301.628 99.1648 301.605 99.1029 301.607C99.041 301.609 98.9824 301.635 98.9399 301.68Z" fill="#FFAA83"/>
<path d="M98.8101 302.48C98.3301 302.96 95.3601 305.13 95.0601 306.53C95.2768 306.768 95.4495 307.042 95.5701 307.34C96.4901 307.34 96.8601 305.61 97.5001 304.71C97.9501 304.07 98.8001 303.47 99.1301 302.71C99.1415 302.669 99.14 302.625 99.1257 302.584C99.1115 302.544 99.0851 302.509 99.0502 302.484C99.0154 302.458 98.9736 302.445 98.9307 302.444C98.8877 302.443 98.8456 302.456 98.8101 302.48Z" fill="#FFAA83"/>
<path d="M95.38 303.11C95.04 303.43 94.7 303.78 94.38 304.11C94.06 304.44 93.81 304.69 93.52 304.97C94.2083 305.088 94.8572 305.373 95.41 305.8C95.8521 305.64 96.2524 305.383 96.5814 305.047C96.9103 304.711 97.1593 304.305 97.31 303.86C97.4 303.64 97.94 303.01 97.81 302.86C97.41 302.48 96.19 303.86 95.97 303.86C95.44 303.97 97.88 301.99 98.46 301.43C98.63 301.26 99.12 300.88 98.92 300.67C98.44 300.28 95.57 303 95.38 303.11Z" fill="#FFAA83"/>
<path d="M94.9301 303.54C92.3701 302.17 80.8601 297.34 70.2901 293.54C70.2001 293.54 70.1001 298.08 69.3801 298.96C69.8601 299.23 75.8301 303.72 95.9601 307.66C95.2205 306.417 94.8624 304.985 94.9301 303.54Z" fill="#FF65A7"/>
<path d="M71.9202 294.16C68.9202 292.35 59.7602 290.92 56.1302 298.73C53.6302 304.1 56.1302 328.14 56.1302 328.14C56.1302 328.14 64.5402 329.14 69.7402 326.08L71.4602 321.83L73.5302 325.16C73.5302 325.16 75.7002 324.82 76.3402 323.89C76.3402 323.89 74.5002 306.46 74.5002 301.89C74.4702 299.76 74.2502 295.55 71.9202 294.16Z" fill="#BC4274"/>
<path d="M69.68 289.39L64.68 286.66C64.68 286.66 64.27 291.27 63.46 293C63.46 293 68.69 300.08 71.06 299.17C72.47 298.63 70.15 295.29 68.94 293.64C67.24 291.37 69.68 289.39 69.68 289.39Z" fill="#FFAA83"/>
<path d="M71.1101 278.88C69.2301 277.88 64.4401 278.88 63.2801 282.19C62.5801 284.19 63.7201 287.24 63.7201 287.24C63.7201 287.24 66.4301 290.78 67.6601 291.58C67.9501 291.77 69.8801 292.69 70.8701 291.58C72.3913 289.462 73.101 286.868 72.8701 284.27C72.5901 281 72.3701 279.54 71.1101 278.88Z" fill="#FFAA83"/>
<path d="M71.47 278.76C69.38 276.66 65 276.15 62.73 278.84C60.46 281.53 61.8 286.14 64.3 287.84C64.3 287.84 63.56 284.93 64.65 283.23C66.5412 283.959 68.6166 284.061 70.57 283.52C75.68 281.77 74.15 278.32 74.15 278.32C74.15 278.32 73.48 280.78 71.47 278.76Z" fill="#713D24"/>
<path d="M90.1799 303.82C89.5599 304.19 86.5099 306.64 86.1799 308.12C86.4936 308.373 86.7697 308.669 86.9999 309C87.6799 308.11 88.0999 307.2 88.8099 306.26C89.3099 305.59 90.2399 304.99 90.6199 304.26C90.6783 304.202 90.7111 304.123 90.7111 304.04C90.7111 303.958 90.6783 303.878 90.6199 303.82C90.5616 303.762 90.4824 303.729 90.3999 303.729C90.3174 303.729 90.2383 303.762 90.1799 303.82Z" fill="#FFAA83"/>
<path d="M89.7501 305.14C89.2201 305.63 85.9801 307.84 85.6101 309.32C85.9332 309.576 86.2193 309.876 86.4601 310.21C87.1501 309.32 87.5601 308.41 88.2701 307.47C88.7801 306.8 89.7001 306.2 90.0901 305.47C90.1118 305.448 90.1288 305.421 90.1403 305.392C90.1518 305.363 90.1575 305.333 90.157 305.301C90.1565 305.27 90.1499 305.24 90.1376 305.211C90.1253 305.183 90.1074 305.157 90.0851 305.135C90.0628 305.113 90.0364 305.096 90.0075 305.085C89.9786 305.073 89.9477 305.068 89.9166 305.068C89.8855 305.069 89.8548 305.075 89.8262 305.088C89.7976 305.1 89.7718 305.118 89.7501 305.14Z" fill="#FFAA83"/>
<path d="M89.6 305.94C89.1 306.4 86.06 308.46 85.71 309.85C85.9221 310.095 86.0881 310.376 86.2 310.68C87.12 310.68 87.54 309 88.2 308.12C88.67 307.49 89.54 306.93 89.9 306.21C89.9199 306.169 89.9259 306.123 89.9172 306.078C89.9085 306.033 89.8854 305.993 89.8516 305.962C89.8177 305.932 89.7749 305.913 89.7295 305.909C89.6841 305.905 89.6386 305.916 89.6 305.94Z" fill="#FFAA83"/>
<path d="M86.15 306.45C85.8 306.75 85.44 307.09 85.15 307.45L84.26 308.29C84.9426 308.424 85.5795 308.73 86.11 309.18C86.565 309.041 86.9819 308.798 87.3286 308.473C87.6754 308.147 87.9427 307.745 88.11 307.3C88.21 307.08 88.77 306.48 88.64 306.35C88.26 305.96 86.99 307.28 86.77 307.35C86.24 307.44 88.77 305.55 89.34 305C89.52 304.84 90.02 304.47 89.83 304.26C89.3 303.72 86.34 306.31 86.15 306.45Z" fill="#FFAA83"/>
<path d="M85.6901 306.86C77.826 302.67 69.7333 298.925 61.4501 295.64C59.5601 294.89 56.8701 298.36 59.6901 301.31C61.3601 303.06 66.5901 306.31 86.5701 310.97C85.8889 309.713 85.5834 308.286 85.6901 306.86Z" fill="#FF65A7"/>
<path d="M156.84 483.9C156.16 483.9 153.92 486.77 152.1 487.61C149.5 488.82 149.77 485.79 149.77 485.79C148.359 485.294 146.896 484.958 145.41 484.79C145.347 484.778 145.282 484.78 145.22 484.797C145.157 484.814 145.1 484.844 145.052 484.887C145.003 484.93 144.965 484.983 144.941 485.042C144.916 485.102 144.906 485.166 144.91 485.23C145.205 486.268 145.703 487.236 146.374 488.081C147.045 488.925 147.876 489.628 148.82 490.15C149.136 490.36 149.493 490.5 149.867 490.562C150.241 490.624 150.623 490.606 150.99 490.51L155.24 488.57L154.24 492.22C154.348 492.361 154.504 492.455 154.679 492.485C154.853 492.515 155.032 492.477 155.18 492.38C155.592 490.919 156.218 489.527 157.04 488.25C158.71 485.38 156.86 483.92 156.84 483.9Z" fill="#FFDB5A"/>
<path d="M153.59 463.72L155.12 464.72L156.55 457.22C154.69 456.47 146.96 454.07 146.89 459.22C146.82 464.37 152.29 480.92 152.04 482.98C151.85 484.62 150.21 485.65 149.04 486.17C148.92 486.226 148.816 486.31 148.736 486.416C148.657 486.522 148.605 486.646 148.585 486.776C148.565 486.907 148.578 487.041 148.623 487.165C148.667 487.29 148.742 487.402 148.84 487.49C150.35 488.73 152.92 487.65 153.84 486.63C154.761 485.64 155.764 484.73 156.84 483.91C155.84 482.73 155.75 479.59 155.62 473.82C155.547 470.36 154.86 466.94 153.59 463.72Z" fill="#FFAA83"/>
<path d="M149.19 490.85C148.51 490.85 146.27 493.72 144.45 494.56C141.85 495.77 142.13 492.74 142.13 492.74C140.719 492.245 139.256 491.909 137.77 491.74C137.5 491.74 137.22 491.89 137.27 492.17C137.56 493.21 138.055 494.181 138.724 495.027C139.394 495.874 140.225 496.578 141.17 497.1C141.488 497.31 141.846 497.45 142.222 497.512C142.597 497.574 142.982 497.557 143.35 497.46L147.59 495.52L146.59 499.17C146.697 499.311 146.854 499.405 147.029 499.435C147.203 499.465 147.382 499.427 147.53 499.33C147.948 497.871 148.574 496.48 149.39 495.2C151.07 492.33 149.21 490.86 149.19 490.85Z" fill="#FFDB5A"/>
<path d="M145.94 470.67L147.48 471.67L148.77 463.23C146.91 462.47 139.32 461.02 139.24 466.16C139.16 471.3 144.64 487.87 144.4 489.93C144.2 491.57 142.56 492.59 141.4 493.12C141.279 493.175 141.173 493.259 141.093 493.365C141.013 493.472 140.961 493.596 140.943 493.728C140.924 493.86 140.938 493.994 140.985 494.118C141.032 494.243 141.109 494.354 141.21 494.44C142.71 495.67 145.28 494.59 146.21 493.58C147.129 492.588 148.133 491.678 149.21 490.86C148.21 489.68 148.12 486.54 147.99 480.77C147.917 477.308 147.222 473.887 145.94 470.67Z" fill="#FFAA83"/>
<path d="M199.75 492.41L176.43 478.41C175.768 478.015 175.011 477.806 174.24 477.806C173.469 477.806 172.712 478.015 172.05 478.41L136.76 499.84C136.135 500.219 135.618 500.752 135.259 501.389C134.901 502.026 134.712 502.744 134.712 503.475C134.712 504.206 134.901 504.924 135.259 505.561C135.618 506.198 136.135 506.731 136.76 507.11L160.08 521.11C160.741 521.508 161.498 521.718 162.27 521.718C163.042 521.718 163.799 521.508 164.46 521.11L199.76 499.7C200.392 499.324 200.914 498.789 201.277 498.15C201.64 497.51 201.83 496.787 201.829 496.052C201.828 495.317 201.636 494.595 201.271 493.956C200.907 493.318 200.383 492.785 199.75 492.41Z" fill="#D1DDFF"/>
<path d="M140.47 477.04L162.87 489.97L195.84 470.38L173.6 457.45L140.47 477.04Z" fill="#8EC2FE"/>
<path d="M140.47 502.66L162.87 515.61V489.97L140.47 477.04V502.66Z" fill="#60A2EF"/>
<path d="M162.87 515.61L195.84 496.03V470.38L162.87 489.97V515.61Z" fill="#367CD1"/>
<path d="M160.62 482C160.62 483.71 162.62 485.1 165.86 485.1C169.1 485.1 171.11 483.71 171.11 482V478.54H160.62V482Z" fill="#60A2EF"/>
<path d="M147.88 474.88C147.88 476.5 150.45 477.82 153.5 477.82C156.55 477.82 159.12 476.5 159.12 474.88V471.08H147.88V474.88Z" fill="#60A2EF"/>
<path d="M176.35 472.43C176.35 474.05 178.92 475.37 181.97 475.37C185.02 475.37 187.59 474.05 187.59 472.43V468.83H176.35V472.43Z" fill="#60A2EF"/>
<path d="M164.36 465.12C164.36 466.75 166.56 468.07 169.61 468.07C172.66 468.07 174.86 466.75 174.86 465.12V461.34H164.36V465.12Z" fill="#60A2EF"/>
<path d="M169.61 458.38C166.71 458.38 164.36 459.63 164.36 461.18C164.36 462.73 166.71 463.97 169.61 463.97C172.51 463.97 174.86 462.72 174.86 461.18C174.86 459.64 172.51 458.38 169.61 458.38Z" fill="#8EC2FE"/>
<path d="M165.83 475.42C162.91 475.42 160.55 476.68 160.55 478.24C160.55 479.8 162.91 481.05 165.83 481.05C168.75 481.05 171.11 479.79 171.11 478.24C171.11 476.69 168.74 475.42 165.83 475.42Z" fill="#8EC2FE"/>
<path d="M182 465.47C178.89 465.47 176.36 466.82 176.36 468.47C176.36 470.12 178.89 471.47 182 471.47C185.11 471.47 187.64 470.12 187.64 468.47C187.64 466.82 185.07 465.47 182 465.47Z" fill="#8EC2FE"/>
<path d="M153.5 468C150.5 468 147.98 469.31 147.98 470.94C147.98 472.57 150.45 473.89 153.5 473.89C156.55 473.89 159.02 472.57 159.02 470.94C159.02 469.31 156.55 468 153.5 468Z" fill="#8EC2FE"/>
<path d="M168.2 463.94C168.2 463.94 162.13 469.94 157.56 465.64L156.79 459.04C156.79 459.04 152.96 462.49 151.37 463.59C146.11 467.23 147.43 471.72 147.43 471.72C154.25 477.44 160.81 480.07 166.36 475.09C167.937 473.75 168.988 471.894 169.325 469.852C169.662 467.811 169.263 465.716 168.2 463.94Z" fill="#BC4274"/>
<path d="M155.15 463.82L153.3 462.75C153.201 462.701 153.091 462.675 152.98 462.675C152.869 462.675 152.76 462.701 152.66 462.75L150.38 464.13C150.21 464.23 150.22 464.4 150.38 464.51L152.23 465.58C152.328 465.629 152.436 465.655 152.545 465.655C152.655 465.655 152.762 465.629 152.86 465.58L155.14 464.2C155.181 464.188 155.216 464.163 155.242 464.13C155.267 464.097 155.282 464.056 155.283 464.014C155.284 463.972 155.272 463.93 155.248 463.895C155.224 463.861 155.19 463.834 155.15 463.82Z" fill="#D1DDFF"/>
<path d="M161.35 460.84L151.88 455.36C151.773 455.301 151.652 455.271 151.53 455.271C151.408 455.271 151.287 455.301 151.18 455.36L137.86 463.42C137.67 463.53 137.68 463.72 137.86 463.83L147.33 469.32C147.44 469.375 147.562 469.403 147.685 469.403C147.808 469.403 147.93 469.375 148.04 469.32L161.35 461.26C161.56 461.14 161.55 461 161.35 460.84ZM155.16 464.2L152.88 465.58C152.782 465.629 152.674 465.655 152.565 465.655C152.456 465.655 152.348 465.629 152.25 465.58L150.4 464.51C150.22 464.4 150.21 464.23 150.4 464.13L152.68 462.75C152.779 462.701 152.889 462.675 153 462.675C153.111 462.675 153.221 462.701 153.32 462.75L155.17 463.82C155.21 463.834 155.244 463.861 155.268 463.895C155.292 463.93 155.304 463.972 155.303 464.014C155.302 464.056 155.287 464.097 155.262 464.13C155.236 464.164 155.2 464.188 155.16 464.2ZM144.57 466.75L139.57 463.88L151.96 456.38L156.96 459.25L144.57 466.75Z" fill="white"/>
<path d="M161.5 461.1L148.19 469.16H148.09H148H147.94H147.74H147.66H147.59H147.51L138.04 463.67C137.998 463.652 137.962 463.623 137.936 463.586C137.91 463.549 137.894 463.505 137.89 463.46V464.13C137.894 464.175 137.91 464.219 137.936 464.256C137.962 464.293 137.998 464.322 138.04 464.34L147.52 469.83H147.59H148H148.1L161.41 461.77V461.72V461.05C161.442 461.063 161.472 461.08 161.5 461.1Z" fill="#D1DDFF"/>
<path d="M139.19 463.9L144.35 466.88L157.24 459.08L152.08 456.09L139.19 463.9Z" fill="#D1DDFF"/>
<path d="M156.78 459.05L156.34 459.32H156.16L154.98 458.63L155.36 458.4V458.23L154.92 458.49H154.83L153.64 457.81L154.02 457.58V457.43L153.4 457.81H153.22L152.76 457.54L153.33 457.2V457L151.33 458.19H151.2L150.73 457.92L150.98 457.77V457.64H151.15L151.73 457.29V457.18H151.91L152.49 456.83V456.66L151.91 457.02H151.74L151.27 456.75C151.27 456.75 151.27 456.75 151.27 456.69V456.86L151.68 457.1L151.1 457.45H150.93L150.46 457.18C150.46 457.18 150.46 457.18 150.46 457.13V457.29C150.457 457.31 150.457 457.33 150.46 457.35L150.87 457.58L150.29 457.93H150.19L149.72 457.66C149.716 457.653 149.713 457.644 149.713 457.635C149.713 457.626 149.716 457.618 149.72 457.61V457.78L150.12 458.01L149.54 458.36H149.44L148.98 458.09V458.26V458.31L149.39 458.54L148.81 458.89H148.71L148.24 458.62V458.79C148.236 458.798 148.233 458.806 148.233 458.815C148.233 458.824 148.236 458.833 148.24 458.84L148.65 459.08L148.07 459.43H147.9L147.43 459.16V459.32C147.426 459.328 147.423 459.336 147.423 459.345C147.423 459.354 147.426 459.363 147.43 459.37L147.83 459.61L147.25 459.96H147.16L146.69 459.69V459.86C146.69 459.86 146.69 459.86 146.69 459.91L147.09 460.14L146.51 460.5H146.34L145.87 460.22V460.39C145.866 460.398 145.863 460.406 145.863 460.415C145.863 460.424 145.866 460.433 145.87 460.44L146.28 460.68L145.7 461.03H145.53L145.06 460.76C145.06 460.76 145.06 460.76 145.06 460.71V460.87C145.056 460.887 145.056 460.904 145.06 460.92L145.47 461.16L144.89 461.51H144.79L144.32 461.24V461.38L144.72 461.62L144.14 461.98H143.97L143.5 461.71V461.85L143.9 462.09L143.32 462.44H143.23L142.76 462.17C142.76 462.17 142.76 462.17 142.76 462.12V462.28C142.753 462.3 142.753 462.321 142.76 462.34L143.17 462.57L142.59 462.92H142.5L142.03 462.65C142.026 462.643 142.023 462.634 142.023 462.625C142.023 462.616 142.026 462.608 142.03 462.6V462.77C142.026 462.787 142.026 462.804 142.03 462.82L142.44 463.06L141.86 463.41H141.68L141.22 463.14V463.3C141.214 463.316 141.214 463.334 141.22 463.35L141.63 463.59L141.05 463.94H140.95L140.48 463.67V463.84C140.48 463.84 140.48 463.84 140.48 463.89L140.95 464.16H141.12L141.43 463.97V464.09C141.43 464.09 141.43 464.09 141.43 464.14L141.88 464.4H142.07L142.65 464.05V463.92H142.82L143.29 463.63V463.75C143.286 463.758 143.283 463.766 143.283 463.775C143.283 463.784 143.286 463.793 143.29 463.8L143.69 464.03L142.42 464.8H142.33L141.86 464.53C141.854 464.514 141.854 464.496 141.86 464.48V464.65L142.33 464.92H142.5V465.03C142.496 465.038 142.493 465.046 142.493 465.055C142.493 465.064 142.496 465.073 142.5 465.08L142.97 465.36H143.14V465.47C143.14 465.47 143.14 465.47 143.14 465.52L143.61 465.79H143.78L143.96 465.68V465.8C143.956 465.808 143.953 465.816 143.953 465.825C143.953 465.834 143.956 465.843 143.96 465.85L144.42 466.12H144.49V466.28C144.483 466.3 144.483 466.321 144.49 466.34L144.96 466.61H145.13L145.59 466.33V466.21H145.77L146.35 465.86V465.73H146.53L147.11 465.38V465.25H147.27L147.85 464.89V464.76H148.02L148.6 464.41V464.28H148.65H148.82L152.73 461.91V461.78H152.9L153.49 461.43V461.3H153.67L154.25 460.94V460.8H154.43L155.01 460.45V460.33H155.16L155.74 459.98V459.84L155.16 460.2H154.99L154.52 459.92C154.514 459.904 154.514 459.886 154.52 459.87V460.04L154.92 460.28L154.34 460.63H154.17L153.7 460.36L153.81 460.3V460.14L153.89 460.19H154.06L154.39 459.99V459.85H154.57L155.23 459.45V459.34L155.98 459.77H156.15L156.59 459.5V459L156.78 459.05ZM153.78 459.17L153.02 459.63H152.92L152.46 459.36L152.99 459.04V458.88L151.84 459.57H151.75L151.28 459.3L151.53 459.15V459L151.75 459.12V458.96L151.12 458.59L151.2 458.54V458.4H151.35L151.85 458.1V458.22C151.845 458.236 151.845 458.254 151.85 458.27L152.32 458.54H152.5L152.71 458.41V458.53C152.704 458.546 152.704 458.564 152.71 458.58L153.18 458.85H153.35V458.96C153.346 458.968 153.343 458.976 153.343 458.985C153.343 458.994 153.346 459.003 153.35 459.01L153.74 459.24L153.78 459.17Z" fill="#4C4DC3"/>
<path d="M154 458.36L153.43 458.71L153.9 458.98H154L154.63 458.6L153.93 458.19L154 458.36Z" fill="#4C4DC3"/>
<path d="M153.49 457.94V457.82L153.26 457.96H153.09V458.08L152.7 458.32L153.17 458.59H153.27L153.89 458.21L153.48 457.98C153.48 457.98 153.49 458 153.49 457.94Z" fill="#4C4DC3"/>
<path d="M152.58 457.63V457.51L151.73 458.03L152.2 458.3H152.29L152.92 457.92L152.51 457.68C152.514 457.665 152.524 457.652 152.536 457.643C152.549 457.634 152.564 457.629 152.58 457.63Z" fill="#4C4DC3"/>
<path d="M152.28 459.51V459.4L151.68 459.76H151.5V459.89L151.96 460.16H152.06L152.64 459.81L152.24 459.58C152.239 459.566 152.242 459.551 152.249 459.539C152.256 459.526 152.267 459.516 152.28 459.51Z" fill="#4C4DC3"/>
<path d="M151.61 460.78V460.65L151.3 460.84H151.13H151.08V460.97L150.83 461.13L151.3 461.4H151.39L151.97 461.05L151.57 460.82C151.57 460.82 151.61 460.79 151.61 460.78Z" fill="#4C4DC3"/>
<path d="M150.78 461.28V461.16L150.47 461.35H150.29V461.48L150.04 461.63L150.5 461.9H150.68L151.26 461.55L150.85 461.31C150.844 461.313 150.836 461.315 150.829 461.315C150.822 461.316 150.815 461.314 150.808 461.311C150.801 461.308 150.795 461.304 150.791 461.299C150.786 461.293 150.782 461.287 150.78 461.28Z" fill="#4C4DC3"/>
<path d="M149.94 461.78V461.66L149.63 461.85H149.45V462L149.2 462.15L149.67 462.42H149.77L150.35 462.07L149.94 461.83C149.934 461.814 149.934 461.796 149.94 461.78Z" fill="#4C4DC3"/>
<path d="M149.11 462.29V462.17L148.79 462.35H148.64H148.59V462.48L148.34 462.64L148.81 462.92H149L149.58 462.56L149.17 462.33C149.17 462.33 149.11 462.3 149.11 462.29Z" fill="#4C4DC3"/>
<path d="M148.28 462.79V462.67L147.96 462.86H147.79H147.74V463L147.49 463.15L147.96 463.42H148.13L148.71 463.07L148.31 462.83C148.302 462.827 148.295 462.821 148.29 462.814C148.284 462.807 148.281 462.799 148.28 462.79Z" fill="#4C4DC3"/>
<path d="M147.45 463.29V463.17L147.14 463.36H147V463.49L146.75 463.65L147.22 463.92H147.31L147.89 463.57L147.48 463.34C147.465 463.327 147.454 463.31 147.45 463.29Z" fill="#4C4DC3"/>
<path d="M146.61 463.8V463.68L146.3 463.87H146.12V464L145.87 464.15L146.33 464.42H146.51L147.09 464.07L146.68 463.84L146.61 463.8Z" fill="#4C4DC3"/>
<path d="M145.78 464.3V464.18L145.47 464.37H145.29H145.24V464.5L144.99 464.65L145.46 464.92H145.56L146.15 464.57L145.74 464.33C145.749 464.316 145.763 464.305 145.78 464.3Z" fill="#4C4DC3"/>
<path d="M145 464.8V464.68L144.68 464.87H144.51H144.45V465L144.21 465.15L144.68 465.42H144.78L145.36 465.07L144.95 464.84C144.955 464.83 144.961 464.821 144.97 464.814C144.979 464.807 144.989 464.802 145 464.8Z" fill="#4C4DC3"/>
<path d="M144.18 462.71V462.6L143.71 462.88H143.54H143.49V463L143.4 463.06L143.87 463.33H144L144.58 462.98L144.17 462.74C144.171 462.729 144.175 462.719 144.18 462.71Z" fill="#4C4DC3"/>
<path d="M145 462.21V462.09L144.54 462.38H144.36V462.51L144.26 462.56L144.72 462.83H144.9L145.48 462.48L145.07 462.24C145.064 462.243 145.056 462.245 145.049 462.245C145.042 462.245 145.035 462.244 145.028 462.241C145.021 462.238 145.015 462.234 145.011 462.229C145.006 462.223 145.002 462.217 145 462.21Z" fill="#4C4DC3"/>
<path d="M145.85 461.7V461.59L145.38 461.87H145.21V462L145.11 462.06L145.58 462.33H145.67L146.25 461.98L145.85 461.75C145.844 461.734 145.844 461.716 145.85 461.7Z" fill="#4C4DC3"/>
<path d="M146.68 461.2V461.09L146.21 461.37H146H145.95V461.5L145.86 461.56L146.33 461.83H146.5L147.08 461.48L146.67 461.24C146.669 461.233 146.669 461.226 146.671 461.219C146.673 461.212 146.676 461.206 146.68 461.2Z" fill="#4C4DC3"/>
<path d="M147.51 460.7V460.58L147.04 460.86H146.89H146.84V461H146.75L147.22 461.28H147.4L147.98 460.92L147.57 460.69C147.57 460.69 147.51 460.72 147.51 460.7Z" fill="#4C4DC3"/>
<path d="M148.34 460.19V460.08L147.88 460.36H147.7V460.49L147.61 460.55L148.07 460.82H148.17L148.75 460.47L148.34 460.24V460.19Z" fill="#4C4DC3"/>
<path d="M149.18 459.69V459.57L148.72 459.86H148.54V460L148.44 460.06L148.91 460.33H149L149.58 459.98L149.17 459.74C149.167 459.732 149.166 459.722 149.168 459.714C149.17 459.705 149.174 459.697 149.18 459.69Z" fill="#4C4DC3"/>
<path d="M150 459.19V459.07L149.54 459.35H149.4H149.35V459.47L149.25 459.52L149.72 459.79H149.81L150.39 459.44L149.99 459.21C149.99 459.21 150 459.2 150 459.19Z" fill="#4C4DC3"/>
<path d="M150.85 458.68V458.56L150.38 458.85H150.21V459L150.12 459.06L150.59 459.33H150.69L151.27 458.98L150.87 458.75C150.87 458.75 150.85 458.7 150.85 458.68Z" fill="#4C4DC3"/>
<path d="M151 459.44V459.32L150.7 459.51H150.53V459.64L150.28 459.79L150.75 460.07H150.92L151.5 459.72L151.1 459.49C151.1 459.49 151 459.46 151 459.44Z" fill="#4C4DC3"/>
<path d="M150.61 460.52V460.41L150.03 460.76H149.86V460.89L150.33 461.16H150.5L151.08 460.81L150.67 460.57C150.663 460.572 150.655 460.571 150.648 460.57C150.641 460.568 150.634 460.564 150.628 460.56C150.622 460.555 150.618 460.549 150.615 460.542C150.611 460.535 150.61 460.528 150.61 460.52Z" fill="#4C4DC3"/>
<path d="M149.78 461V460.89L149.2 461.24H149H148.95V461.37L149.42 461.64H149.51L150.09 461.29L149.69 461.06C149.691 461.05 149.694 461.04 149.7 461.031C149.705 461.022 149.712 461.015 149.721 461.009C149.729 461.003 149.739 460.999 149.749 460.998C149.76 460.996 149.77 460.997 149.78 461Z" fill="#4C4DC3"/>
<path d="M149 461.53V461.41L148.42 461.76H148.28H148.23V461.89L148.7 462.16H148.87L149.45 461.8L149.05 461.57C149.05 461.57 149 461.54 149 461.53Z" fill="#4C4DC3"/>
<path d="M148.11 462V461.89L147.53 462.24H147.35V462.37L147.81 462.64H148L148.58 462.29L148.17 462.05C148.157 462.046 148.145 462.04 148.135 462.031C148.125 462.023 148.116 462.012 148.11 462Z" fill="#4C4DC3"/>
<path d="M147.28 462.53V462.42L146.7 462.77H146.53H146.48V462.9L146.95 463.17H147.05L147.63 462.82L147.22 462.59C147.22 462.59 147.28 462.55 147.28 462.53Z" fill="#4C4DC3"/>
<path d="M146.45 463V462.89L145.87 463.25H145.7H145.65V463.38L146.12 463.65H146.29L146.87 463.3L146.47 463.06C146.46 463.054 146.453 463.045 146.449 463.034C146.446 463.023 146.446 463.011 146.45 463Z" fill="#4C4DC3"/>
<path d="M145.62 463.54V463.43L145.04 463.78H144.88V463.91L145.35 464.18H145.44L146.02 463.83L145.62 463.59C145.616 463.583 145.613 463.574 145.613 463.565C145.613 463.556 145.616 463.548 145.62 463.54Z" fill="#4C4DC3"/>
<path d="M145.17 463V462.89L144.86 463.08H144.69V463.21L144.44 463.36L144.91 463.63H145.01L145.59 463.28L145.18 463.04C145.173 463.028 145.169 463.014 145.17 463Z" fill="#4C4DC3"/>
<path d="M146 462.46V462.35L145.69 462.53H145.52V462.66L145.27 462.81L145.73 463.08H145.91L146.49 462.73L146.08 462.49C146.065 462.491 146.05 462.489 146.037 462.484C146.023 462.479 146.01 462.471 146 462.46Z" fill="#4C4DC3"/>
<path d="M146.84 462V461.89L146.54 462.08H146.37V462.21L146.11 462.36L146.57 462.63H146.7L147.28 462.27L146.88 462.04C146.871 462.037 146.863 462.031 146.856 462.024C146.849 462.017 146.844 462.009 146.84 462Z" fill="#4C4DC3"/>
<path d="M147.67 461.45V461.34L147.36 461.52H147.22V461.65L146.97 461.8L147.44 462.07H147.54L148.12 461.72L147.72 461.48C147.71 461.481 147.699 461.479 147.69 461.473C147.681 461.468 147.674 461.46 147.67 461.45Z" fill="#4C4DC3"/>
<path d="M148.5 461V460.88L148.19 461.07H148V461.2L147.75 461.36L148.22 461.63H148.39L148.98 461.27L148.57 461.04C148.556 461.041 148.541 461.038 148.529 461.031C148.516 461.024 148.506 461.013 148.5 461Z" fill="#4C4DC3"/>
<path d="M149.33 460.44V460.33L149.02 460.52H148.85V460.65L148.6 460.8L149.07 461.07H149.17L149.75 460.72L149.34 460.49C149.34 460.49 149.33 460.46 149.33 460.44Z" fill="#4C4DC3"/>
<path d="M150.17 459.94V459.83L149.87 460.01H149.69H149.64V460.14L149.38 460.29L149.84 460.56H150L150.58 460.21L150.17 459.97C150.167 459.96 150.167 459.95 150.17 459.94Z" fill="#4C4DC3"/>
<path d="M144.34 463.47V463.35L144.03 463.54H143.86V463.67L143.61 463.82L144.08 464.1H144.25L144.83 463.74L144.42 463.51C144.42 463.51 144.34 463.49 144.34 463.47Z" fill="#4C4DC3"/>
<path d="M144.79 464.05V463.93L144.21 464.28H144V464.4L144.47 464.67H144.56L145.14 464.32L144.73 464.09C144.737 464.08 144.745 464.071 144.756 464.064C144.766 464.057 144.778 464.052 144.79 464.05Z" fill="#4C4DC3"/>
<path d="M151.44 460V459.88L150.86 460.23H150.71V460.36L151.18 460.63H151.31L151.9 460.27L151.49 460.04L151.44 460Z" fill="#4C4DC3"/>
<path d="M150.53 458V457.89L150.23 458.07H150.06H150V458.21L149.75 458.36L150.22 458.63H150.32L150.9 458.28L150.5 458.04C150.501 458.031 150.504 458.023 150.51 458.016C150.515 458.009 150.522 458.004 150.53 458Z" fill="#4C4DC3"/>
<path d="M149.69 458.53V458.42L149.38 458.6H149.21V458.73L148.96 458.88L149.43 459.16H149.6L150.18 458.8L149.77 458.57C149.77 458.57 149.69 458.55 149.69 458.53Z" fill="#4C4DC3"/>
<path d="M148.86 459V458.89L148.55 459.07H148.38V459.2L148.13 459.36L148.6 459.63H148.73L149.31 459.28L148.91 459.04C148.898 459.04 148.887 459.036 148.878 459.029C148.869 459.022 148.862 459.012 148.86 459Z" fill="#4C4DC3"/>
<path d="M148 459.53V459.42L147.7 459.61H147.53V459.74L147.28 459.89L147.75 460.16H147.84L148.42 459.81L148.02 459.58C148.014 459.574 148.008 459.566 148.005 459.557C148.002 459.549 148 459.539 148 459.53Z" fill="#4C4DC3"/>
<path d="M147.2 460V459.88L146.9 460.07H146.72V460.2L146.46 460.35L146.92 460.62H147L147.58 460.26L147.17 460.03C147.172 460.023 147.176 460.017 147.182 460.012C147.187 460.007 147.193 460.003 147.2 460Z" fill="#4C4DC3"/>
<path d="M146.36 460.54V460.43L146.06 460.61H145.91V460.73L145.65 460.89L146.11 461.16H146.29L146.87 460.81L146.46 460.57C146.442 460.575 146.424 460.575 146.406 460.569C146.388 460.564 146.372 460.554 146.36 460.54Z" fill="#4C4DC3"/>
<path d="M145.53 461V460.89L145.22 461.08H145.05V461.21L144.8 461.36L145.27 461.64H145.44L146.02 461.28L145.61 461.05C145.61 461.05 145.53 461.06 145.53 461Z" fill="#4C4DC3"/>
<path d="M144.7 461.55V461.44L144.39 461.62H144.22V461.75L143.97 461.91L144.44 462.18H144.61L145.19 461.83L144.79 461.59C144.783 461.6 144.774 461.607 144.762 461.61C144.751 461.614 144.739 461.613 144.728 461.608C144.717 461.603 144.709 461.595 144.704 461.584C144.698 461.574 144.697 461.562 144.7 461.55Z" fill="#4C4DC3"/>
<path d="M143.87 462.05V461.94L143.57 462.13H143.39V462.26L143.14 462.41L143.61 462.68H143.7L144.28 462.33L143.88 462.09C143.876 462.085 143.873 462.078 143.871 462.071C143.869 462.064 143.869 462.057 143.87 462.05Z" fill="#4C4DC3"/>
<path d="M143 462.56V462.44L142.7 462.63H142.52V462.76L142.26 462.91L142.72 463.19H142.9L143.48 462.83L143.07 462.6C143.07 462.6 143 462.58 143 462.56Z" fill="#4C4DC3"/>
<path d="M141.37 463.56V463.45L141.06 463.63H140.91V463.76L140.66 463.91L141.13 464.18H141.23L141.82 463.83L141.41 463.6C141.41 463.6 141.37 463.58 141.37 463.56Z" fill="#4C4DC3"/>
<path d="M142.2 463.06V463L141.9 463.18H141.72V463.31L141.47 463.47L141.94 463.74H142.12L142.7 463.39L142.29 463.15C142.277 463.155 142.264 463.156 142.251 463.153C142.238 463.15 142.226 463.143 142.216 463.134C142.207 463.124 142.2 463.112 142.197 463.099C142.194 463.086 142.195 463.073 142.2 463.06Z" fill="#4C4DC3"/>
<path d="M143.35 463.22V463.1L142.88 463.38H142.73V463.5L142.64 463.56L143.11 463.84H143.28L143.87 463.48L143.46 463.25L143.35 463.22Z" fill="#4C4DC3"/>
<path d="M143.51 464V463.89L143.2 464.07H143V464V464.14L142.76 464.29L143.23 464.56H143.4L143.98 464.21L143.58 463.97C143.578 463.977 143.574 463.983 143.569 463.989C143.565 463.994 143.559 463.998 143.552 464.001C143.545 464.004 143.538 464.006 143.531 464.005C143.524 464.005 143.516 464.003 143.51 464Z" fill="#4C4DC3"/>
<path d="M142.68 464.47V464.36L141.68 464.94L142.14 465.21H142.32L143.04 464.77L142.64 464.54C142.639 464.526 142.642 464.511 142.649 464.499C142.656 464.486 142.667 464.476 142.68 464.47Z" fill="#4C4DC3"/>
<path d="M144 464.55V464.44L143.42 464.79H143.24V464.92L142.57 465.32L143.04 465.59H143.14L144.41 464.82L144.01 464.59C144.003 464.578 143.999 464.564 144 464.55Z" fill="#4C4DC3"/>
<path d="M144.12 465.31V465.19L143.31 465.68L143.78 465.95H144L144.58 465.6L144.18 465.36C144.173 465.362 144.165 465.362 144.158 465.36C144.151 465.358 144.144 465.354 144.138 465.35C144.132 465.345 144.128 465.339 144.125 465.332C144.121 465.325 144.12 465.318 144.12 465.31Z" fill="#4C4DC3"/>
<path d="M144.57 465.89V465.77L143.99 466.12H143.91L144.38 466.39H144.55L145 466.12L144.59 465.88C144.584 465.885 144.577 465.888 144.57 465.89Z" fill="#4C4DC3"/>
<path d="M145.4 465.39V465.27L144.82 465.62H144.65V465.75L145.12 466.02H145.21L145.79 465.67L145.39 465.44C145.39 465.44 145.4 465.4 145.4 465.39Z" fill="#4C4DC3"/>
<path d="M146.23 464.88V464.76L145.65 465.11H145.48V465.24L145.95 465.51H146L146.58 465.16L146.17 464.92C146.171 464.913 146.174 464.907 146.177 464.901C146.181 464.896 146.186 464.891 146.191 464.887C146.197 464.884 146.203 464.881 146.21 464.88C146.217 464.878 146.223 464.879 146.23 464.88Z" fill="#4C4DC3"/>
<path d="M147.06 464.38V464.26L146.48 464.61H146.34H146.29V464.73L146.76 465H146.93L147.51 464.65L147.1 464.41C147.083 464.405 147.069 464.395 147.06 464.38Z" fill="#4C4DC3"/>
<path d="M147.89 463.88V463.76L147.3 464.11H147.13H147.08V464.24L147.55 464.51H147.65L148.23 464.16L147.82 463.93L147.89 463.88Z" fill="#4C4DC3"/>
<path d="M152.05 461.36V461.24L151.46 461.59H151.31V461.72L150.73 462.08H150.56V462.21L149.98 462.56H149.81H149.76V462.69L149.18 463.04H149.01H148.96V463.17L148.38 463.52H148V463.65L148.46 463.92H148.64L152.55 461.55L152.14 461.32L152.05 461.36Z" fill="#4C4DC3"/>
<path d="M152.89 460.85V460.74L152.3 461.1H152.12V461.23L152.58 461.5H152.67L153.25 461.15L152.84 460.91C152.839 460.903 152.839 460.895 152.841 460.888C152.842 460.88 152.846 460.874 152.851 460.868C152.855 460.862 152.862 460.858 152.868 460.854C152.875 460.851 152.883 460.85 152.89 460.85Z" fill="#4C4DC3"/>
<path d="M153.73 460.34V460.23L153.51 460.36H153.34H153.28V460.5L152.94 460.7L153.41 460.97H153.58L154.16 460.62L153.75 460.39C153.738 460.376 153.731 460.358 153.73 460.34Z" fill="#4C4DC3"/>
<path d="M153.44 459.66V459.54L152.96 459.83H152.79H152.73V459.97L152.15 460.32H152V460.45L151.75 460.6L152.22 460.87H152.31L153.31 460.29L152.91 460.06C152.904 460.044 152.904 460.026 152.91 460.01V459.84L153.38 460.11H153.48L153.82 459.91L153.43 459.68C153.433 459.673 153.436 459.666 153.44 459.66Z" fill="#4C4DC3"/>
<path d="M154 459.31V459.19H153.85H153.78V459.35L153.51 459.51L153.98 459.78H154.15L154.48 459.58L154.08 459.34C154.073 459.345 154.065 459.349 154.057 459.35C154.048 459.352 154.04 459.351 154.032 459.348C154.024 459.345 154.016 459.34 154.011 459.333C154.005 459.326 154.002 459.319 154 459.31Z" fill="#4C4DC3"/>
<path d="M154.93 458.77V458.65H154.78V458.78L154.19 459.14L154.66 459.41H154.75L155.41 459.01L155 458.77C155 458.77 154.93 458.79 154.93 458.77Z" fill="#4C4DC3"/>
<path d="M152 456.2C151.974 456.185 151.945 456.177 151.915 456.177C151.885 456.177 151.856 456.185 151.83 456.2L151.25 456.55C151.25 456.55 151.25 456.63 151.25 456.65L151.72 456.93C151.775 456.95 151.835 456.95 151.89 456.93L152.47 456.58C152.481 456.575 152.49 456.568 152.496 456.558C152.503 456.548 152.506 456.537 152.506 456.525C152.506 456.513 152.503 456.502 152.496 456.492C152.49 456.482 152.481 456.475 152.47 456.47L152 456.2Z" fill="#61A1F0"/>
<path d="M151.16 456.69C151.102 456.67 151.039 456.67 150.98 456.69L150.4 457.05C150.4 457.05 150.4 457.12 150.4 457.15L150.86 457.42C150.888 457.435 150.919 457.443 150.95 457.443C150.982 457.443 151.012 457.435 151.04 457.42L151.62 457.07C151.67 457.07 151.62 456.99 151.62 456.96L151.16 456.69Z" fill="#61A1F0"/>
<path d="M150.32 457.2C150.294 457.185 150.265 457.177 150.235 457.177C150.205 457.177 150.176 457.185 150.15 457.2L149.57 457.55C149.57 457.55 149.57 457.62 149.57 457.65L150.03 457.92C150.058 457.935 150.089 457.943 150.12 457.943C150.151 457.943 150.182 457.935 150.21 457.92L150.79 457.57C150.79 457.57 150.79 457.5 150.79 457.47L150.32 457.2Z" fill="#61A1F0"/>
<path d="M149.48 457.71C149.454 457.695 149.425 457.687 149.395 457.687C149.365 457.687 149.336 457.695 149.31 457.71L148.73 458.06C148.73 458.06 148.73 458.13 148.73 458.16L149.2 458.43C149.228 458.445 149.259 458.453 149.29 458.453C149.321 458.453 149.352 458.445 149.38 458.43L149.96 458.08C149.96 458.08 149.96 458.01 149.96 457.98L149.48 457.71Z" fill="#61A1F0"/>
<path d="M148.65 458.21C148.624 458.195 148.595 458.187 148.565 458.187C148.535 458.187 148.506 458.195 148.48 458.21L147.9 458.56C147.85 458.56 147.9 458.63 147.9 458.66L148.37 458.93C148.398 458.945 148.429 458.953 148.46 458.953C148.492 458.953 148.522 458.945 148.55 458.93L149.13 458.58C149.13 458.58 149.13 458.51 149.13 458.48L148.65 458.21Z" fill="#61A1F0"/>
<path d="M147.82 458.71C147.793 458.698 147.764 458.691 147.735 458.691C147.706 458.691 147.677 458.698 147.65 458.71L147.07 459.06C147.059 459.065 147.05 459.072 147.044 459.082C147.037 459.092 147.034 459.103 147.034 459.115C147.034 459.127 147.037 459.138 147.044 459.148C147.05 459.158 147.059 459.165 147.07 459.17L147.54 459.44C147.566 459.455 147.595 459.463 147.625 459.463C147.655 459.463 147.684 459.455 147.71 459.44L148.29 459.09C148.301 459.085 148.31 459.078 148.316 459.068C148.323 459.058 148.326 459.047 148.326 459.035C148.326 459.023 148.323 459.012 148.316 459.002C148.31 458.992 148.301 458.985 148.29 458.98L147.82 458.71Z" fill="#61A1F0"/>
<path d="M147 459.22C146.974 459.205 146.945 459.197 146.915 459.197C146.885 459.197 146.856 459.205 146.83 459.22L146.25 459.57C146.25 459.57 146.25 459.64 146.25 459.67L146.72 459.94C146.746 459.955 146.775 459.963 146.805 459.963C146.835 459.963 146.864 459.955 146.89 459.94L147.47 459.59C147.52 459.59 147.52 459.52 147.47 459.49L147 459.22Z" fill="#61A1F0"/>
<path d="M146.16 459.72C146.132 459.705 146.102 459.698 146.07 459.698C146.039 459.698 146.008 459.705 145.98 459.72L145.4 460.07C145.387 460.07 145.374 460.075 145.365 460.085C145.355 460.094 145.35 460.107 145.35 460.12C145.35 460.133 145.355 460.146 145.365 460.156C145.374 460.165 145.387 460.17 145.4 460.17L145.87 460.45C145.925 460.47 145.985 460.47 146.04 460.45L146.62 460.09C146.67 460.09 146.67 460.02 146.62 459.99L146.16 459.72Z" fill="#61A1F0"/>
<path d="M145.33 460.22C145.302 460.208 145.271 460.202 145.24 460.202C145.209 460.202 145.179 460.208 145.15 460.22L144.57 460.58C144.57 460.58 144.57 460.65 144.57 460.68L145.04 460.95C145.066 460.965 145.095 460.973 145.125 460.973C145.155 460.973 145.184 460.965 145.21 460.95L145.79 460.6C145.79 460.6 145.79 460.52 145.79 460.49L145.33 460.22Z" fill="#61A1F0"/>
<path d="M144.49 460.73C144.464 460.715 144.435 460.707 144.405 460.707C144.375 460.707 144.346 460.715 144.32 460.73L143.74 461.08C143.74 461.08 143.74 461.15 143.74 461.18L144.21 461.45C144.236 461.465 144.265 461.473 144.295 461.473C144.325 461.473 144.354 461.465 144.38 461.45L144.96 461.1C145.01 461.1 145.01 461.03 144.96 461L144.49 460.73Z" fill="#61A1F0"/>
<path d="M143.66 461.23C143.634 461.215 143.605 461.207 143.575 461.207C143.545 461.207 143.516 461.215 143.49 461.23L142.91 461.58C142.899 461.585 142.89 461.592 142.884 461.602C142.877 461.612 142.874 461.623 142.874 461.635C142.874 461.647 142.877 461.658 142.884 461.668C142.89 461.678 142.899 461.685 142.91 461.69L143.38 461.96C143.406 461.975 143.435 461.983 143.465 461.983C143.495 461.983 143.524 461.975 143.55 461.96L144.13 461.61C144.141 461.605 144.15 461.598 144.156 461.588C144.163 461.578 144.166 461.567 144.166 461.555C144.166 461.543 144.163 461.532 144.156 461.522C144.15 461.512 144.141 461.505 144.13 461.5L143.66 461.23Z" fill="#61A1F0"/>
<path d="M142.83 461.74C142.804 461.725 142.775 461.717 142.745 461.717C142.715 461.717 142.686 461.725 142.66 461.74L142.07 462.09C142.07 462.09 142.07 462.16 142.07 462.19L142.54 462.46C142.566 462.475 142.595 462.483 142.625 462.483C142.655 462.483 142.684 462.475 142.71 462.46L143.29 462.11C143.29 462.11 143.29 462.04 143.29 462.01L142.83 461.74Z" fill="#61A1F0"/>
<path d="M142 462.24C141.972 462.225 141.941 462.218 141.91 462.218C141.879 462.218 141.848 462.225 141.82 462.24L141.24 462.59C141.227 462.59 141.214 462.595 141.205 462.605C141.195 462.614 141.19 462.627 141.19 462.64C141.19 462.653 141.195 462.666 141.205 462.676C141.214 462.685 141.227 462.69 141.24 462.69L141.7 462.96C141.728 462.975 141.759 462.983 141.79 462.983C141.821 462.983 141.852 462.975 141.88 462.96L142.46 462.61C142.46 462.61 142.46 462.54 142.46 462.51L142 462.24Z" fill="#61A1F0"/>
<path d="M141.16 462.74C141.134 462.725 141.105 462.717 141.075 462.717C141.045 462.717 141.016 462.725 140.99 462.74L140.41 463.09C140.41 463.09 140.41 463.17 140.41 463.2L140.87 463.47C140.898 463.485 140.929 463.493 140.96 463.493C140.992 463.493 141.022 463.485 141.05 463.47L141.63 463.12C141.641 463.115 141.65 463.108 141.656 463.098C141.663 463.088 141.666 463.077 141.666 463.065C141.666 463.053 141.663 463.042 141.656 463.032C141.65 463.022 141.641 463.015 141.63 463.01L141.16 462.74Z" fill="#61A1F0"/>
<path d="M140.33 463.25C140.304 463.235 140.275 463.227 140.245 463.227C140.215 463.227 140.186 463.235 140.16 463.25L139.58 463.6C139.58 463.6 139.58 463.67 139.58 463.7L140.05 463.97C140.078 463.985 140.109 463.993 140.14 463.993C140.171 463.993 140.202 463.985 140.23 463.97L140.81 463.62C140.81 463.62 140.81 463.55 140.81 463.52L140.33 463.25Z" fill="#61A1F0"/>
<path d="M152.69 456.62C152.664 456.605 152.635 456.597 152.605 456.597C152.575 456.597 152.546 456.605 152.52 456.62L150.52 457.8C150.52 457.8 150.52 457.88 150.52 457.9L150.99 458.18C151.045 458.2 151.105 458.2 151.16 458.18L153.16 456.99C153.16 456.99 153.16 456.92 153.16 456.89L152.69 456.62Z" fill="#61A1F0"/>
<path d="M150.47 458C150.444 457.985 150.415 457.977 150.385 457.977C150.355 457.977 150.326 457.985 150.3 458L149.72 458.35C149.72 458.35 149.72 458.42 149.72 458.45L150.19 458.72C150.218 458.735 150.249 458.743 150.28 458.743C150.311 458.743 150.342 458.735 150.37 458.72L150.95 458.37C150.95 458.37 150.95 458.3 150.95 458.27L150.47 458Z" fill="#61A1F0"/>
<path d="M149.64 458.46C149.614 458.445 149.585 458.437 149.555 458.437C149.525 458.437 149.496 458.445 149.47 458.46L148.89 458.81C148.89 458.81 148.89 458.89 148.89 458.91L149.36 459.19C149.415 459.21 149.475 459.21 149.53 459.19L150.11 458.83C150.11 458.83 150.11 458.76 150.11 458.73L149.64 458.46Z" fill="#61A1F0"/>
<path d="M148.81 459C148.755 458.98 148.695 458.98 148.64 459L148.06 459.36C148.06 459.36 148.06 459.43 148.06 459.46L148.53 459.73C148.556 459.745 148.585 459.753 148.615 459.753C148.645 459.753 148.674 459.745 148.7 459.73L149.28 459.38C149.28 459.38 149.28 459.3 149.28 459.28L148.81 459Z" fill="#61A1F0"/>
<path d="M148 459.47C147.974 459.455 147.945 459.447 147.915 459.447C147.885 459.447 147.856 459.455 147.83 459.47L147.24 459.82C147.24 459.82 147.24 459.89 147.24 459.92L147.71 460.19C147.736 460.205 147.765 460.213 147.795 460.213C147.825 460.213 147.854 460.205 147.88 460.19L148.46 459.84C148.46 459.84 148.46 459.77 148.46 459.74L148 459.47Z" fill="#61A1F0"/>
<path d="M147.15 460C147.122 459.985 147.091 459.978 147.06 459.978C147.029 459.978 146.998 459.985 146.97 460L146.39 460.35C146.379 460.355 146.37 460.363 146.364 460.372C146.357 460.382 146.354 460.394 146.354 460.405C146.354 460.417 146.357 460.428 146.364 460.438C146.37 460.448 146.379 460.456 146.39 460.46L146.85 460.73C146.908 460.75 146.972 460.75 147.03 460.73L147.61 460.37C147.61 460.37 147.61 460.3 147.61 460.27L147.15 460Z" fill="#61A1F0"/>
<path d="M146.32 460.47C146.262 460.45 146.198 460.45 146.14 460.47L145.56 460.83C145.56 460.83 145.56 460.9 145.56 460.93L146.02 461.2C146.048 461.215 146.079 461.223 146.11 461.223C146.141 461.223 146.172 461.215 146.2 461.2L146.78 460.85C146.793 460.85 146.806 460.845 146.815 460.836C146.825 460.826 146.83 460.813 146.83 460.8C146.83 460.787 146.825 460.774 146.815 460.765C146.806 460.755 146.793 460.75 146.78 460.75L146.32 460.47Z" fill="#61A1F0"/>
<path d="M145.48 461C145.454 460.985 145.425 460.977 145.395 460.977C145.365 460.977 145.336 460.985 145.31 461L144.73 461.35C144.73 461.35 144.73 461.42 144.73 461.45L145.2 461.73C145.255 461.75 145.315 461.75 145.37 461.73L145.95 461.37C145.95 461.37 145.95 461.3 145.95 461.27L145.48 461Z" fill="#61A1F0"/>
<path d="M144.65 461.48C144.624 461.465 144.595 461.457 144.565 461.457C144.535 461.457 144.506 461.465 144.48 461.48L143.9 461.83C143.889 461.835 143.88 461.842 143.874 461.852C143.867 461.862 143.864 461.873 143.864 461.885C143.864 461.897 143.867 461.908 143.874 461.918C143.88 461.928 143.889 461.935 143.9 461.94L144.37 462.21C144.396 462.225 144.425 462.233 144.455 462.233C144.485 462.233 144.514 462.225 144.54 462.21L145.12 461.86C145.131 461.855 145.14 461.848 145.146 461.838C145.153 461.828 145.156 461.817 145.156 461.805C145.156 461.793 145.153 461.782 145.146 461.772C145.14 461.762 145.131 461.755 145.12 461.75L144.65 461.48Z" fill="#61A1F0"/>
<path d="M143.82 462C143.792 461.985 143.761 461.978 143.73 461.978C143.699 461.978 143.668 461.985 143.64 462L143.06 462.35C143.06 462.35 143.06 462.42 143.06 462.45L143.53 462.72C143.556 462.735 143.585 462.743 143.615 462.743C143.645 462.743 143.674 462.735 143.7 462.72L144.28 462.37C144.28 462.37 144.28 462.3 144.28 462.27L143.82 462Z" fill="#61A1F0"/>
<path d="M143 462.49C142.972 462.475 142.941 462.468 142.91 462.468C142.879 462.468 142.848 462.475 142.82 462.49L142.24 462.84C142.227 462.84 142.214 462.845 142.205 462.855C142.195 462.864 142.19 462.877 142.19 462.89C142.19 462.903 142.195 462.916 142.205 462.926C142.214 462.935 142.227 462.94 142.24 462.94L142.7 463.22C142.758 463.24 142.822 463.24 142.88 463.22L143.46 462.86C143.51 462.86 143.46 462.79 143.46 462.76L143 462.49Z" fill="#61A1F0"/>
<path d="M142.15 463C142.095 462.98 142.035 462.98 141.98 463L141.4 463.35C141.35 463.35 141.4 463.43 141.4 463.46L141.87 463.73C141.898 463.745 141.929 463.753 141.96 463.753C141.992 463.753 142.022 463.745 142.05 463.73L142.63 463.38C142.641 463.375 142.65 463.368 142.656 463.358C142.663 463.348 142.666 463.337 142.666 463.325C142.666 463.313 142.663 463.302 142.656 463.292C142.65 463.282 142.641 463.275 142.63 463.27L142.15 463Z" fill="#61A1F0"/>
<path d="M141.32 463.5C141.294 463.485 141.265 463.477 141.235 463.477C141.205 463.477 141.176 463.485 141.15 463.5L140.57 463.85C140.57 463.85 140.57 463.92 140.57 463.95L141.04 464.22C141.066 464.235 141.095 464.243 141.125 464.243C141.155 464.243 141.184 464.235 141.21 464.22L141.8 463.87C141.8 463.87 141.8 463.8 141.8 463.77L141.32 463.5Z" fill="#61A1F0"/>
<path d="M153.41 457C153.384 456.988 153.354 456.981 153.325 456.981C153.296 456.981 153.267 456.988 153.24 457L152.61 457.39C152.61 457.39 152.61 457.46 152.61 457.49L153.07 457.76C153.098 457.775 153.129 457.783 153.16 457.783C153.192 457.783 153.222 457.775 153.25 457.76L153.87 457.38C153.92 457.38 153.92 457.3 153.87 457.28L153.41 457Z" fill="#61A1F0"/>
<path d="M152.55 457.56C152.522 457.545 152.491 457.537 152.46 457.537C152.429 457.537 152.398 457.545 152.37 457.56L151.74 457.94C151.74 457.94 151.74 458.01 151.74 458.04L152.21 458.31C152.236 458.325 152.265 458.333 152.295 458.333C152.325 458.333 152.354 458.325 152.38 458.31L153.01 457.93C153.01 457.93 153.01 457.86 153.01 457.83L152.55 457.56Z" fill="#61A1F0"/>
<path d="M154.13 457.45C154.104 457.435 154.075 457.427 154.045 457.427C154.015 457.427 153.986 457.435 153.96 457.45L153.52 457.72C153.52 457.72 153.52 457.79 153.52 457.82L154.71 458.5C154.736 458.515 154.765 458.523 154.795 458.523C154.825 458.523 154.854 458.515 154.88 458.5L155.32 458.24C155.333 458.24 155.346 458.235 155.355 458.225C155.365 458.216 155.37 458.203 155.37 458.19C155.37 458.177 155.365 458.164 155.355 458.155C155.346 458.145 155.333 458.14 155.32 458.14L154.13 457.45Z" fill="#61A1F0"/>
<path d="M153.44 457.87C153.414 457.855 153.385 457.847 153.355 457.847C153.325 457.847 153.296 457.855 153.27 457.87L152.64 458.25C152.64 458.25 152.64 458.32 152.64 458.35L153.11 458.62C153.138 458.635 153.169 458.643 153.2 458.643C153.232 458.643 153.262 458.635 153.29 458.62L153.91 458.24C153.91 458.24 153.91 458.17 153.91 458.14L153.44 457.87Z" fill="#61A1F0"/>
<path d="M150.79 458.62C150.764 458.605 150.735 458.597 150.705 458.597C150.675 458.597 150.646 458.605 150.62 458.62L150 459C149.95 459 149.95 459.07 150 459.1L150.47 459.37C150.496 459.385 150.525 459.393 150.555 459.393C150.585 459.393 150.614 459.385 150.64 459.37L151.22 459.02C151.22 459.02 151.22 458.95 151.22 458.92L150.79 458.62Z" fill="#61A1F0"/>
<path d="M152.52 458.62L152.35 458.52L151.63 458.11C151.604 458.095 151.575 458.087 151.545 458.087C151.515 458.087 151.486 458.095 151.46 458.11L150.88 458.46C150.88 458.46 150.88 458.53 150.88 458.56L151.51 458.93L151.03 459.22C151.03 459.22 151.03 459.29 151.03 459.32L151.5 459.59C151.526 459.605 151.555 459.613 151.585 459.613C151.615 459.613 151.644 459.605 151.67 459.59L152.82 458.9C152.831 458.896 152.84 458.888 152.846 458.878C152.853 458.868 152.856 458.857 152.856 458.845C152.856 458.834 152.853 458.822 152.846 458.812C152.84 458.803 152.831 458.795 152.82 458.79L152.52 458.62Z" fill="#61A1F0"/>
<path d="M150 459.12C149.974 459.105 149.945 459.097 149.915 459.097C149.885 459.097 149.856 459.105 149.83 459.12L149.24 459.47C149.227 459.47 149.214 459.475 149.205 459.485C149.195 459.494 149.19 459.507 149.19 459.52C149.19 459.533 149.195 459.546 149.205 459.556C149.214 459.565 149.227 459.57 149.24 459.57L149.71 459.84C149.736 459.855 149.765 459.863 149.795 459.863C149.825 459.863 149.854 459.855 149.88 459.84L150.46 459.49C150.46 459.49 150.46 459.42 150.46 459.39L150 459.12Z" fill="#61A1F0"/>
<path d="M149.13 459.62C149.102 459.605 149.071 459.597 149.04 459.597C149.009 459.597 148.978 459.605 148.95 459.62L148.37 459.97C148.359 459.975 148.35 459.982 148.344 459.992C148.337 460.002 148.334 460.013 148.334 460.025C148.334 460.037 148.337 460.048 148.344 460.058C148.35 460.068 148.359 460.075 148.37 460.08L148.84 460.35C148.866 460.365 148.895 460.373 148.925 460.373C148.955 460.373 148.984 460.365 149.01 460.35L149.59 460C149.64 460 149.59 459.92 149.59 459.89L149.13 459.62Z" fill="#61A1F0"/>
<path d="M148.3 460.13C148.272 460.115 148.241 460.107 148.21 460.107C148.179 460.107 148.148 460.115 148.12 460.13L147.54 460.48C147.49 460.48 147.54 460.55 147.54 460.58L148 460.85C148.028 460.865 148.059 460.873 148.09 460.873C148.121 460.873 148.152 460.865 148.18 460.85L148.76 460.5C148.76 460.5 148.76 460.43 148.76 460.4L148.3 460.13Z" fill="#61A1F0"/>
<path d="M147.46 460.63C147.434 460.615 147.405 460.607 147.375 460.607C147.345 460.607 147.316 460.615 147.29 460.63L146.71 460.98C146.71 460.98 146.71 461.06 146.71 461.08L147.18 461.36C147.238 461.38 147.302 461.38 147.36 461.36L147.94 461C147.94 461 147.94 460.93 147.94 460.9L147.46 460.63Z" fill="#61A1F0"/>
<path d="M146.63 461.13C146.575 461.11 146.515 461.11 146.46 461.13L145.88 461.48C145.869 461.485 145.86 461.492 145.854 461.502C145.847 461.512 145.844 461.523 145.844 461.535C145.844 461.547 145.847 461.558 145.854 461.568C145.86 461.578 145.869 461.585 145.88 461.59L146.35 461.86C146.376 461.875 146.405 461.883 146.435 461.883C146.465 461.883 146.494 461.875 146.52 461.86L147.1 461.51C147.111 461.505 147.12 461.498 147.126 461.488C147.133 461.478 147.136 461.467 147.136 461.455C147.136 461.443 147.133 461.432 147.126 461.422C147.12 461.412 147.111 461.405 147.1 461.4L146.63 461.13Z" fill="#61A1F0"/>
<path d="M145.8 461.64C145.772 461.625 145.741 461.617 145.71 461.617C145.679 461.617 145.648 461.625 145.62 461.64L145 462C144.987 462 144.974 462.005 144.965 462.015C144.955 462.024 144.95 462.037 144.95 462.05C144.95 462.063 144.955 462.076 144.965 462.085C144.974 462.095 144.987 462.1 145 462.1L145.47 462.37C145.496 462.385 145.525 462.393 145.555 462.393C145.585 462.393 145.614 462.385 145.64 462.37L146.22 462.02C146.22 462.02 146.22 461.95 146.22 461.92L145.8 461.64Z" fill="#61A1F0"/>
<path d="M145 462.14C144.972 462.125 144.942 462.117 144.91 462.117C144.879 462.117 144.848 462.125 144.82 462.14L144.24 462.49C144.229 462.495 144.22 462.502 144.214 462.512C144.208 462.522 144.204 462.533 144.204 462.545C144.204 462.557 144.208 462.568 144.214 462.578C144.22 462.588 144.229 462.595 144.24 462.6L144.7 462.87C144.728 462.885 144.759 462.893 144.79 462.893C144.822 462.893 144.852 462.885 144.88 462.87L145.46 462.52C145.46 462.52 145.46 462.44 145.46 462.41L145 462.14Z" fill="#61A1F0"/>
<path d="M144.13 462.65C144.104 462.635 144.075 462.627 144.045 462.627C144.015 462.627 143.986 462.635 143.96 462.65L143.38 463C143.38 463 143.38 463.07 143.38 463.1L143.85 463.37C143.878 463.385 143.909 463.393 143.94 463.393C143.972 463.393 144.002 463.385 144.03 463.37L144.61 463.02C144.61 463.02 144.61 462.95 144.61 462.92L144.13 462.65Z" fill="#61A1F0"/>
<path d="M143.3 463.15C143.274 463.135 143.245 463.127 143.215 463.127C143.185 463.127 143.156 463.135 143.13 463.15L142.55 463.5C142.55 463.5 142.55 463.58 142.55 463.6L143.02 463.88C143.075 463.9 143.135 463.9 143.19 463.88L143.78 463.52C143.78 463.52 143.78 463.45 143.78 463.42L143.3 463.15Z" fill="#61A1F0"/>
<path d="M142.46 463.66C142.434 463.645 142.405 463.637 142.375 463.637C142.345 463.637 142.316 463.645 142.29 463.66L141.02 464.43C141.02 464.43 141.02 464.5 141.02 464.53L141.49 464.8C141.516 464.815 141.545 464.823 141.575 464.823C141.605 464.823 141.634 464.815 141.66 464.8L142.93 464.03C142.93 464.03 142.93 463.96 142.93 463.93L142.46 463.66Z" fill="#61A1F0"/>
<path d="M151 459.37C150.974 459.355 150.945 459.347 150.915 459.347C150.885 459.347 150.856 459.355 150.83 459.37L150.24 459.72C150.227 459.72 150.214 459.725 150.205 459.735C150.195 459.744 150.19 459.757 150.19 459.77C150.19 459.783 150.195 459.796 150.205 459.806C150.214 459.815 150.227 459.82 150.24 459.82L150.71 460.1C150.765 460.12 150.825 460.12 150.88 460.1L151.46 459.75C151.471 459.746 151.48 459.738 151.486 459.728C151.493 459.718 151.496 459.707 151.496 459.695C151.496 459.684 151.493 459.672 151.486 459.662C151.48 459.653 151.471 459.645 151.46 459.64L151 459.37Z" fill="#61A1F0"/>
<path d="M150.12 459.88C150.093 459.863 150.062 459.854 150.03 459.854C149.998 459.854 149.967 459.863 149.94 459.88L149.36 460.23C149.36 460.23 149.36 460.3 149.36 460.33L149.82 460.6C149.848 460.615 149.879 460.623 149.91 460.623C149.942 460.623 149.972 460.615 150 460.6L150.58 460.25C150.58 460.25 150.58 460.17 150.58 460.15L150.12 459.88Z" fill="#61A1F0"/>
<path d="M149.28 460.38C149.254 460.365 149.225 460.357 149.195 460.357C149.165 460.357 149.136 460.365 149.11 460.38L148.53 460.73C148.53 460.73 148.53 460.8 148.53 460.83L149 461.1C149.028 461.115 149.059 461.123 149.09 461.123C149.121 461.123 149.152 461.115 149.18 461.1L149.76 460.75C149.76 460.75 149.76 460.68 149.76 460.65L149.28 460.38Z" fill="#61A1F0"/>
<path d="M148.45 460.88C148.424 460.865 148.395 460.857 148.365 460.857C148.335 460.857 148.306 460.865 148.28 460.88L147.7 461.23C147.689 461.235 147.68 461.243 147.674 461.252C147.667 461.262 147.664 461.274 147.664 461.285C147.664 461.297 147.667 461.308 147.674 461.318C147.68 461.328 147.689 461.336 147.7 461.34L148.17 461.61C148.196 461.625 148.225 461.633 148.255 461.633C148.285 461.633 148.314 461.625 148.34 461.61L148.93 461.25C148.93 461.25 148.93 461.18 148.93 461.15L148.45 460.88Z" fill="#61A1F0"/>
<path d="M147.62 461.39C147.594 461.375 147.565 461.367 147.535 461.367C147.505 461.367 147.476 461.375 147.45 461.39L146.87 461.74C146.82 461.74 146.82 461.81 146.87 461.84L147.34 462.11C147.366 462.125 147.395 462.133 147.425 462.133C147.455 462.133 147.484 462.125 147.51 462.11L148.09 461.76C148.09 461.76 148.09 461.68 148.09 461.66L147.62 461.39Z" fill="#61A1F0"/>
<path d="M146.79 461.89C146.762 461.875 146.731 461.867 146.7 461.867C146.669 461.867 146.638 461.875 146.61 461.89L146.03 462.24C146.017 462.24 146.004 462.245 145.995 462.255C145.985 462.264 145.98 462.277 145.98 462.29C145.98 462.303 145.985 462.316 145.995 462.325C146.004 462.335 146.017 462.34 146.03 462.34L146.49 462.61C146.518 462.622 146.549 462.628 146.58 462.628C146.611 462.628 146.642 462.622 146.67 462.61L147.25 462.25C147.25 462.25 147.25 462.18 147.25 462.15L146.79 461.89Z" fill="#61A1F0"/>
<path d="M146 462.39C145.972 462.375 145.941 462.367 145.91 462.367C145.879 462.367 145.848 462.375 145.82 462.39L145.24 462.75C145.24 462.75 145.24 462.82 145.24 462.85L145.7 463.12C145.728 463.135 145.759 463.143 145.79 463.143C145.821 463.143 145.852 463.135 145.88 463.12L146.46 462.77C146.46 462.77 146.46 462.69 146.46 462.67L146 462.39Z" fill="#61A1F0"/>
<path d="M145.12 462.9C145.094 462.885 145.065 462.877 145.035 462.877C145.005 462.877 144.976 462.885 144.95 462.9L144.37 463.25C144.32 463.25 144.37 463.32 144.37 463.35L144.84 463.62C144.868 463.635 144.899 463.643 144.93 463.643C144.962 463.643 144.992 463.635 145.02 463.62L145.6 463.27C145.6 463.27 145.6 463.2 145.6 463.17L145.12 462.9Z" fill="#61A1F0"/>
<path d="M144.29 463.4C144.264 463.385 144.235 463.377 144.205 463.377C144.175 463.377 144.146 463.385 144.12 463.4L143.54 463.75C143.49 463.75 143.49 463.83 143.54 463.85L144.01 464.13C144.065 464.15 144.125 464.15 144.18 464.13L144.76 463.77C144.76 463.77 144.76 463.7 144.76 463.67L144.29 463.4Z" fill="#61A1F0"/>
<path d="M143.46 463.9C143.405 463.88 143.345 463.88 143.29 463.9L142.71 464.25C142.699 464.255 142.69 464.263 142.684 464.272C142.677 464.282 142.674 464.293 142.674 464.305C142.674 464.317 142.677 464.328 142.684 464.338C142.69 464.348 142.699 464.355 142.71 464.36L143.18 464.63C143.206 464.645 143.235 464.653 143.265 464.653C143.295 464.653 143.324 464.645 143.35 464.63L143.93 464.28C143.93 464.28 143.93 464.2 143.93 464.18L143.46 463.9Z" fill="#61A1F0"/>
<path d="M142.63 464.41C142.602 464.395 142.572 464.387 142.54 464.387C142.509 464.387 142.478 464.395 142.45 464.41L141.73 464.84C141.719 464.845 141.71 464.852 141.704 464.862C141.698 464.872 141.694 464.883 141.694 464.895C141.694 464.907 141.698 464.918 141.704 464.928C141.71 464.938 141.719 464.945 141.73 464.95L142.19 465.22C142.218 465.235 142.249 465.243 142.28 465.243C142.312 465.243 142.342 465.235 142.37 465.22L143.09 464.78C143.14 464.78 143.14 464.71 143.09 464.68L142.63 464.41Z" fill="#61A1F0"/>
<path d="M154.15 458.28C154.124 458.265 154.095 458.257 154.065 458.257C154.035 458.257 154.006 458.265 153.98 458.28L153.35 458.66C153.339 458.665 153.33 458.672 153.324 458.682C153.317 458.692 153.314 458.703 153.314 458.715C153.314 458.727 153.317 458.738 153.324 458.748C153.33 458.758 153.339 458.765 153.35 458.77L153.82 459.04C153.846 459.055 153.875 459.063 153.905 459.063C153.935 459.063 153.964 459.055 153.99 459.04L154.62 458.66C154.633 458.66 154.646 458.655 154.655 458.645C154.665 458.636 154.67 458.623 154.67 458.61C154.67 458.597 154.665 458.584 154.655 458.575C154.646 458.565 154.633 458.56 154.62 458.56L154.15 458.28Z" fill="#61A1F0"/>
<path d="M153.25 458.83C153.224 458.815 153.195 458.807 153.165 458.807C153.135 458.807 153.106 458.815 153.08 458.83L152.31 459.29C152.31 459.29 152.31 459.36 152.31 459.39L152.77 459.66C152.798 459.675 152.829 459.683 152.86 459.683C152.891 459.683 152.922 459.675 152.95 459.66L153.71 459.2C153.71 459.2 153.71 459.13 153.71 459.1L153.25 458.83Z" fill="#61A1F0"/>
<path d="M152.22 459.45C152.194 459.435 152.165 459.427 152.135 459.427C152.105 459.427 152.076 459.435 152.05 459.45L151.47 459.8C151.47 459.8 151.47 459.87 151.47 459.9L151.93 460.17C151.958 460.185 151.989 460.193 152.02 460.193C152.051 460.193 152.082 460.185 152.11 460.17L152.69 459.82C152.69 459.82 152.69 459.75 152.69 459.72L152.22 459.45Z" fill="#61A1F0"/>
<path d="M151.39 460C151.364 459.985 151.335 459.977 151.305 459.977C151.275 459.977 151.246 459.985 151.22 460L150.64 460.35C150.64 460.35 150.64 460.43 150.64 460.45L151.11 460.72C151.137 460.733 151.166 460.739 151.195 460.739C151.225 460.739 151.254 460.733 151.28 460.72L151.87 460.36C151.87 460.36 151.87 460.29 151.87 460.26L151.39 460Z" fill="#61A1F0"/>
<path d="M150.56 460.45C150.505 460.43 150.445 460.43 150.39 460.45L149.81 460.8C149.799 460.805 149.79 460.813 149.784 460.822C149.777 460.832 149.774 460.844 149.774 460.855C149.774 460.867 149.777 460.878 149.784 460.888C149.79 460.898 149.799 460.906 149.81 460.91L150.28 461.18C150.306 461.195 150.335 461.203 150.365 461.203C150.395 461.203 150.424 461.195 150.45 461.18L151.03 460.83C151.041 460.826 151.05 460.818 151.056 460.808C151.063 460.798 151.066 460.787 151.066 460.775C151.066 460.764 151.063 460.752 151.056 460.742C151.05 460.733 151.041 460.725 151.03 460.72L150.56 460.45Z" fill="#61A1F0"/>
<path d="M149.73 461C149.704 460.985 149.675 460.977 149.645 460.977C149.615 460.977 149.586 460.985 149.56 461L148.97 461.35C148.97 461.35 148.97 461.42 148.97 461.45L149.44 461.72C149.466 461.735 149.495 461.743 149.525 461.743C149.555 461.743 149.584 461.735 149.61 461.72L150.19 461.37C150.19 461.37 150.19 461.3 150.19 461.27L149.73 461Z" fill="#61A1F0"/>
<path d="M148.9 461.46C148.872 461.445 148.841 461.438 148.81 461.438C148.779 461.438 148.748 461.445 148.72 461.46L148.14 461.81C148.129 461.815 148.12 461.823 148.114 461.832C148.107 461.842 148.104 461.853 148.104 461.865C148.104 461.877 148.107 461.888 148.114 461.898C148.12 461.908 148.129 461.915 148.14 461.92L148.61 462.19C148.665 462.21 148.725 462.21 148.78 462.19L149.36 461.83C149.36 461.83 149.36 461.76 149.36 461.73L148.9 461.46Z" fill="#61A1F0"/>
<path d="M148.07 462C148.012 461.98 147.948 461.98 147.89 462L147.31 462.36C147.31 462.36 147.31 462.43 147.31 462.46L147.77 462.73C147.798 462.745 147.829 462.753 147.86 462.753C147.891 462.753 147.922 462.745 147.95 462.73L148.53 462.38C148.53 462.38 148.53 462.3 148.53 462.28L148.07 462Z" fill="#61A1F0"/>
<path d="M147.23 462.47C147.204 462.455 147.175 462.447 147.145 462.447C147.115 462.447 147.086 462.455 147.06 462.47L146.48 462.82C146.48 462.82 146.48 462.89 146.48 462.92L146.95 463.19C146.976 463.205 147.005 463.213 147.035 463.213C147.065 463.213 147.094 463.205 147.12 463.19L147.7 462.84C147.7 462.84 147.7 462.77 147.7 462.74L147.23 462.47Z" fill="#61A1F0"/>
<path d="M146.4 463C146.374 462.985 146.345 462.977 146.315 462.977C146.285 462.977 146.256 462.985 146.23 463L145.65 463.35C145.639 463.355 145.63 463.362 145.624 463.372C145.617 463.382 145.614 463.393 145.614 463.405C145.614 463.417 145.617 463.428 145.624 463.438C145.63 463.448 145.639 463.455 145.65 463.46L146.12 463.73C146.146 463.745 146.175 463.753 146.205 463.753C146.235 463.753 146.264 463.745 146.29 463.73L146.87 463.38C146.881 463.375 146.89 463.368 146.896 463.358C146.903 463.348 146.906 463.337 146.906 463.325C146.906 463.313 146.903 463.302 146.896 463.292C146.89 463.282 146.881 463.275 146.87 463.27L146.4 463Z" fill="#61A1F0"/>
<path d="M145.57 463.48C145.542 463.465 145.511 463.458 145.48 463.458C145.449 463.458 145.418 463.465 145.39 463.48L144.81 463.83C144.81 463.83 144.81 463.9 144.81 463.93L145.28 464.2C145.306 464.215 145.335 464.223 145.365 464.223C145.395 464.223 145.424 464.215 145.45 464.2L146.03 463.85C146.03 463.85 146.03 463.78 146.03 463.75L145.57 463.48Z" fill="#61A1F0"/>
<path d="M144.74 464C144.712 463.985 144.681 463.978 144.65 463.978C144.619 463.978 144.588 463.985 144.56 464L143.98 464.35C143.967 464.35 143.954 464.355 143.945 464.365C143.935 464.374 143.93 464.387 143.93 464.4C143.93 464.413 143.935 464.426 143.945 464.436C143.954 464.445 143.967 464.45 143.98 464.45L144.45 464.72C144.476 464.735 144.505 464.743 144.535 464.743C144.565 464.743 144.594 464.735 144.62 464.72L145.2 464.37C145.25 464.37 145.2 464.3 145.2 464.27L144.74 464Z" fill="#61A1F0"/>
<path d="M143.89 464.49C143.864 464.475 143.835 464.467 143.805 464.467C143.775 464.467 143.746 464.475 143.72 464.49L142.45 465.26C142.45 465.26 142.45 465.33 142.45 465.36L142.92 465.63C142.948 465.645 142.979 465.653 143.01 465.653C143.041 465.653 143.072 465.645 143.1 465.63L144.37 464.86C144.37 464.86 144.37 464.79 144.37 464.76L143.89 464.49Z" fill="#61A1F0"/>
<path d="M155.57 458.28C155.542 458.265 155.511 458.257 155.48 458.257C155.449 458.257 155.418 458.265 155.39 458.28L154.95 458.55C154.95 458.55 154.95 458.62 154.95 458.65L156.13 459.34C156.158 459.355 156.189 459.363 156.22 459.363C156.251 459.363 156.282 459.355 156.31 459.34L156.75 459.07C156.75 459.07 156.75 459 156.75 458.97L155.57 458.28Z" fill="#61A1F0"/>
<path d="M154.89 458.69C154.864 458.675 154.835 458.667 154.805 458.667C154.775 458.667 154.746 458.675 154.72 458.69L154.06 459.09C154.06 459.09 154.06 459.17 154.06 459.19L154.53 459.46C154.556 459.475 154.585 459.483 154.615 459.483C154.645 459.483 154.674 459.475 154.7 459.46L155.37 459.06C155.37 459.06 155.37 458.99 155.37 458.96L154.89 458.69Z" fill="#61A1F0"/>
<path d="M154 459.25C153.972 459.235 153.942 459.228 153.91 459.228C153.879 459.228 153.848 459.235 153.82 459.25L153.49 459.44C153.479 459.445 153.47 459.453 153.464 459.462C153.458 459.472 153.454 459.484 153.454 459.495C153.454 459.507 153.458 459.518 153.464 459.528C153.47 459.538 153.479 459.546 153.49 459.55L153.96 459.82C153.986 459.835 154.015 459.843 154.045 459.843C154.075 459.843 154.104 459.835 154.13 459.82L154.46 459.62C154.473 459.62 154.486 459.615 154.495 459.606C154.505 459.596 154.51 459.583 154.51 459.57C154.51 459.557 154.505 459.544 154.495 459.535C154.486 459.525 154.473 459.52 154.46 459.52L154 459.25Z" fill="#61A1F0"/>
<path d="M153.37 459.61C153.342 459.595 153.311 459.587 153.28 459.587C153.249 459.587 153.218 459.595 153.19 459.61L152.85 459.82C152.837 459.82 152.824 459.825 152.815 459.835C152.805 459.844 152.8 459.857 152.8 459.87C152.8 459.883 152.805 459.896 152.815 459.905C152.824 459.915 152.837 459.92 152.85 459.92L153.32 460.19C153.348 460.205 153.379 460.213 153.41 460.213C153.441 460.213 153.472 460.205 153.5 460.19L153.84 459.99C153.84 459.99 153.84 459.91 153.84 459.88L153.37 459.61Z" fill="#61A1F0"/>
<path d="M152.76 460C152.734 459.985 152.705 459.977 152.675 459.977C152.645 459.977 152.616 459.985 152.59 460L151.59 460.58C151.59 460.58 151.59 460.65 151.59 460.68L152.06 460.95C152.086 460.965 152.115 460.973 152.145 460.973C152.175 460.973 152.204 460.965 152.23 460.95L153.23 460.37C153.23 460.37 153.23 460.3 153.23 460.27L152.76 460Z" fill="#61A1F0"/>
<path d="M151.56 460.71C151.532 460.695 151.501 460.688 151.47 460.688C151.439 460.688 151.408 460.695 151.38 460.71L150.8 461.06C150.8 461.06 150.8 461.13 150.8 461.16L151.27 461.43C151.296 461.445 151.325 461.453 151.355 461.453C151.385 461.453 151.414 461.445 151.44 461.43L152.02 461.08C152.02 461.08 152.02 461.01 152.02 460.98L151.56 460.71Z" fill="#61A1F0"/>
<path d="M150.73 461.21C150.702 461.195 150.671 461.188 150.64 461.188C150.609 461.188 150.578 461.195 150.55 461.21L149.97 461.56C149.97 461.56 149.97 461.64 149.97 461.67L150.43 461.94C150.458 461.955 150.489 461.963 150.52 461.963C150.551 461.963 150.582 461.955 150.61 461.94L151.19 461.59C151.201 461.585 151.21 461.578 151.216 461.568C151.223 461.558 151.226 461.547 151.226 461.535C151.226 461.523 151.223 461.512 151.216 461.502C151.21 461.493 151.201 461.485 151.19 461.48L150.73 461.21Z" fill="#61A1F0"/>
<path d="M149.89 461.72C149.864 461.705 149.835 461.697 149.805 461.697C149.775 461.697 149.746 461.705 149.72 461.72L149.14 462.07C149.14 462.07 149.14 462.14 149.14 462.17L149.61 462.44C149.638 462.455 149.669 462.463 149.7 462.463C149.732 462.463 149.762 462.455 149.79 462.44L150.37 462.09C150.37 462.09 150.37 462.02 150.37 461.99L149.89 461.72Z" fill="#61A1F0"/>
<path d="M149.06 462.22C149.034 462.205 149.005 462.197 148.975 462.197C148.945 462.197 148.916 462.205 148.89 462.22L148.31 462.57C148.31 462.57 148.31 462.64 148.31 462.67L148.78 462.95C148.835 462.97 148.895 462.97 148.95 462.95L149.53 462.59C149.53 462.59 149.53 462.52 149.53 462.49L149.06 462.22Z" fill="#61A1F0"/>
<path d="M148.23 462.72C148.172 462.7 148.108 462.7 148.05 462.72L147.47 463.08C147.47 463.08 147.47 463.15 147.47 463.18L147.94 463.45C147.966 463.465 147.995 463.473 148.025 463.473C148.055 463.473 148.084 463.465 148.11 463.45L148.69 463.1C148.69 463.1 148.69 463.02 148.69 463L148.23 462.72Z" fill="#61A1F0"/>
<path d="M147.4 463.23C147.372 463.215 147.342 463.208 147.31 463.208C147.279 463.208 147.248 463.215 147.22 463.23L146.64 463.58C146.64 463.58 146.64 463.65 146.64 463.68L147.11 463.95C147.136 463.965 147.165 463.973 147.195 463.973C147.225 463.973 147.254 463.965 147.28 463.95L147.86 463.6C147.86 463.6 147.86 463.53 147.86 463.5L147.4 463.23Z" fill="#61A1F0"/>
<path d="M146.57 463.73C146.542 463.715 146.511 463.708 146.48 463.708C146.449 463.708 146.418 463.715 146.39 463.73L145.81 464.08C145.81 464.08 145.81 464.16 145.81 464.19L146.27 464.46C146.299 464.472 146.329 464.479 146.36 464.479C146.391 464.479 146.422 464.472 146.45 464.46L147.03 464.11C147.041 464.106 147.05 464.098 147.056 464.088C147.063 464.078 147.066 464.067 147.066 464.055C147.066 464.043 147.063 464.032 147.056 464.022C147.05 464.013 147.041 464.005 147.03 464L146.57 463.73Z" fill="#61A1F0"/>
<path d="M145.73 464.23C145.675 464.21 145.615 464.21 145.56 464.23L144.98 464.59C144.98 464.59 144.98 464.66 144.98 464.69L145.45 464.96C145.476 464.975 145.505 464.983 145.535 464.983C145.565 464.983 145.594 464.975 145.62 464.96L146.21 464.61C146.223 464.61 146.236 464.605 146.245 464.595C146.255 464.586 146.26 464.573 146.26 464.56C146.26 464.547 146.255 464.534 146.245 464.525C146.236 464.515 146.223 464.51 146.21 464.51L145.73 464.23Z" fill="#61A1F0"/>
<path d="M144.9 464.74C144.874 464.725 144.845 464.717 144.815 464.717C144.785 464.717 144.756 464.725 144.73 464.74L144.15 465.09C144.1 465.09 144.1 465.16 144.15 465.19L144.62 465.46C144.646 465.475 144.675 465.483 144.705 465.483C144.735 465.483 144.764 465.475 144.79 465.46L145.37 465.11C145.37 465.11 145.37 465.04 145.37 465.01L144.9 464.74Z" fill="#61A1F0"/>
<path d="M144.07 465.24C144.044 465.225 144.015 465.217 143.985 465.217C143.955 465.217 143.926 465.225 143.9 465.24L143.31 465.59C143.299 465.595 143.29 465.602 143.284 465.612C143.277 465.622 143.274 465.633 143.274 465.645C143.274 465.657 143.277 465.668 143.284 465.678C143.29 465.688 143.299 465.695 143.31 465.7L143.78 465.97C143.806 465.985 143.835 465.993 143.865 465.993C143.895 465.993 143.924 465.985 143.95 465.97L144.53 465.62C144.541 465.615 144.55 465.608 144.556 465.598C144.563 465.588 144.566 465.577 144.566 465.565C144.566 465.553 144.563 465.542 144.556 465.532C144.55 465.522 144.541 465.515 144.53 465.51L144.07 465.24Z" fill="#61A1F0"/>
<path d="M155.34 459.27C155.314 459.255 155.285 459.247 155.255 459.247C155.225 459.247 155.196 459.255 155.17 459.27L154.59 459.62C154.59 459.62 154.59 459.7 154.59 459.72L155.06 460C155.115 460.02 155.175 460.02 155.23 460L155.81 459.64C155.81 459.64 155.81 459.57 155.81 459.54L155.34 459.27Z" fill="#61A1F0"/>
<path d="M154.51 459.77C154.452 459.75 154.388 459.75 154.33 459.77L153.75 460.13C153.75 460.13 153.75 460.2 153.75 460.23L154.22 460.5C154.246 460.515 154.275 460.523 154.305 460.523C154.335 460.523 154.364 460.515 154.39 460.5L154.97 460.15C154.981 460.145 154.99 460.138 154.996 460.128C155.003 460.118 155.006 460.107 155.006 460.095C155.006 460.083 155.003 460.072 154.996 460.062C154.99 460.052 154.981 460.045 154.97 460.04L154.51 459.77Z" fill="#61A1F0"/>
<path d="M153.67 460.28C153.644 460.265 153.615 460.257 153.585 460.257C153.555 460.257 153.526 460.265 153.5 460.28L152.91 460.63C152.899 460.635 152.89 460.642 152.884 460.652C152.877 460.662 152.874 460.673 152.874 460.685C152.874 460.697 152.877 460.708 152.884 460.718C152.89 460.728 152.899 460.735 152.91 460.74L153.38 461.01C153.406 461.025 153.435 461.033 153.465 461.033C153.495 461.033 153.524 461.025 153.55 461.01L154.13 460.66C154.13 460.66 154.13 460.58 154.13 460.55L153.67 460.28Z" fill="#61A1F0"/>
<path d="M152.84 460.79C152.812 460.775 152.781 460.767 152.75 460.767C152.719 460.767 152.688 460.775 152.66 460.79L152.08 461.14C152.08 461.14 152.08 461.21 152.08 461.24L152.54 461.51C152.568 461.525 152.599 461.533 152.63 461.533C152.661 461.533 152.692 461.525 152.72 461.51L153.3 461.16C153.3 461.16 153.3 461.08 153.3 461.06L152.84 460.79Z" fill="#61A1F0"/>
<path d="M152 461.29C151.974 461.275 151.945 461.267 151.915 461.267C151.885 461.267 151.856 461.275 151.83 461.29L147.92 463.66C147.92 463.66 147.92 463.73 147.92 463.76L148.38 464.03C148.408 464.045 148.439 464.053 148.47 464.053C148.501 464.053 148.532 464.045 148.56 464.03L152.47 461.66C152.47 461.66 152.47 461.59 152.47 461.56L152 461.29Z" fill="#61A1F0"/>
<path d="M147.84 463.81C147.814 463.795 147.785 463.787 147.755 463.787C147.725 463.787 147.696 463.795 147.67 463.81L147.09 464.16C147.09 464.16 147.09 464.23 147.09 464.26L147.56 464.53C147.588 464.545 147.619 464.553 147.65 464.553C147.682 464.553 147.712 464.545 147.74 464.53L148.32 464.18C148.32 464.18 148.32 464.11 148.32 464.08L147.84 463.81Z" fill="#61A1F0"/>
<path d="M147 464.31C146.974 464.295 146.945 464.287 146.915 464.287C146.885 464.287 146.856 464.295 146.83 464.31L146.25 464.66C146.239 464.665 146.23 464.672 146.224 464.682C146.218 464.692 146.214 464.703 146.214 464.715C146.214 464.727 146.218 464.738 146.224 464.748C146.23 464.758 146.239 464.765 146.25 464.77L146.72 465.04C146.746 465.055 146.775 465.063 146.805 465.063C146.835 465.063 146.864 465.055 146.89 465.04L147.47 464.69C147.481 464.685 147.49 464.678 147.496 464.668C147.503 464.658 147.506 464.647 147.506 464.635C147.506 464.623 147.503 464.612 147.496 464.602C147.49 464.592 147.481 464.585 147.47 464.58L147 464.31Z" fill="#61A1F0"/>
<path d="M146.18 464.82C146.154 464.805 146.125 464.797 146.095 464.797C146.065 464.797 146.036 464.805 146.01 464.82L145.43 465.17C145.38 465.17 145.38 465.24 145.43 465.27L145.9 465.54C145.926 465.555 145.955 465.563 145.985 465.563C146.015 465.563 146.044 465.555 146.07 465.54L146.65 465.19C146.65 465.19 146.65 465.11 146.65 465.09L146.18 464.82Z" fill="#61A1F0"/>
<path d="M145.35 465.32C145.322 465.305 145.291 465.297 145.26 465.297C145.229 465.297 145.198 465.305 145.17 465.32L144.59 465.67C144.577 465.67 144.564 465.675 144.555 465.685C144.545 465.694 144.54 465.707 144.54 465.72C144.54 465.733 144.545 465.746 144.555 465.755C144.564 465.765 144.577 465.77 144.59 465.77L145.06 466.04C145.086 466.055 145.115 466.063 145.145 466.063C145.175 466.063 145.204 466.055 145.23 466.04L145.81 465.69C145.86 465.69 145.86 465.62 145.81 465.59L145.35 465.32Z" fill="#61A1F0"/>
<path d="M144.52 465.82C144.492 465.805 144.461 465.797 144.43 465.797C144.399 465.797 144.368 465.805 144.34 465.82L143.89 466.09C143.879 466.095 143.87 466.102 143.864 466.112C143.857 466.122 143.854 466.133 143.854 466.145C143.854 466.157 143.857 466.168 143.864 466.178C143.87 466.188 143.879 466.195 143.89 466.2L144.36 466.47C144.386 466.485 144.415 466.493 144.445 466.493C144.475 466.493 144.504 466.485 144.53 466.47L144.98 466.2C145.03 466.2 144.98 466.12 144.98 466.09L144.52 465.82Z" fill="#61A1F0"/>
<path d="M150.24 444.67L150.58 453.27L151.17 453.61L150.82 445.01L150.24 444.67Z" fill="#827C7B"/>
<path d="M137.75 461.49L138.33 461.82L150.78 454.34L150.2 454L137.75 461.49Z" fill="#D2C8C6"/>
<path d="M137.36 451.92L137.94 452.26L150.4 444.77L149.81 444.43L137.36 451.92Z" fill="#1E5D9D"/>
<path d="M144.14 447.94C144.103 447.966 144.073 448 144.052 448.04C144.031 448.08 144.02 448.125 144.02 448.17C144.02 448.25 144.09 448.29 144.16 448.24C144.197 448.214 144.227 448.18 144.248 448.14C144.269 448.1 144.28 448.055 144.28 448.01C144.28 447.93 144.22 447.89 144.14 447.94Z" fill="#61A1F0"/>
<path d="M144.06 448.24L144.1 448.26L144.06 448.24Z" fill="#132146"/>
<path d="M144.24 447.93L143.98 447.78L143.66 447.59H143.56C143.549 447.619 143.549 447.651 143.56 447.68L144.01 447.94L144.14 448.01H144.2V448C144.206 447.988 144.209 447.974 144.209 447.96C144.209 447.946 144.206 447.933 144.2 447.92L144.24 447.93Z" fill="#132146"/>
<path d="M150.83 443.64L137.43 451.69C137.329 451.761 137.246 451.856 137.189 451.965C137.132 452.075 137.101 452.196 137.1 452.32L137.54 463.2C137.54 463.42 137.71 463.52 137.9 463.4L151.31 455.34C151.41 455.271 151.492 455.178 151.548 455.07C151.604 454.962 151.632 454.842 151.63 454.72L151.2 443.84C151.19 443.61 151 443.52 150.83 443.64ZM144.16 448.24C144.09 448.24 144.03 448.24 144.02 448.17C144.02 448.125 144.031 448.08 144.052 448.04C144.073 448 144.103 447.966 144.14 447.94C144.22 447.89 144.28 447.94 144.28 448.01C144.28 448.055 144.269 448.1 144.248 448.14C144.227 448.18 144.197 448.214 144.16 448.24Z" fill="white"/>
<path d="M150.39 444.77L137.94 452.26C137.823 452.342 137.727 452.452 137.661 452.579C137.594 452.706 137.56 452.847 137.56 452.99L137.9 461.58C137.9 461.85 138.1 461.96 138.33 461.83L150.78 454.34C150.898 454.259 150.994 454.15 151.061 454.022C151.127 453.895 151.161 453.754 151.16 453.61L150.82 445.01C150.81 444.74 150.62 444.64 150.39 444.77Z" fill="#4C4DC3"/>
<path d="M150.5 443.27H150.4H150.32H150.25L136.85 451.33H136.79V451.38V451.44V451.49C136.79 451.49 136.79 451.49 136.79 451.54C136.79 451.54 136.79 451.6 136.79 451.62L137 462.86C137 462.904 137.01 462.948 137.029 462.987C137.048 463.027 137.076 463.062 137.11 463.09L137.69 463.43C137.656 463.402 137.628 463.367 137.609 463.327C137.59 463.288 137.58 463.244 137.58 463.2L137.14 452.32C137.135 452.29 137.135 452.26 137.14 452.23C137.14 452.23 137.14 452.18 137.14 452.15C137.137 452.123 137.137 452.097 137.14 452.07V451.98C137.142 451.953 137.142 451.927 137.14 451.9L137.19 451.83L137.25 451.78L150.65 443.73H150.73H151L150.43 443.39L150.5 443.27Z" fill="#D1DDFF"/>
<path d="M165.82 445.42C165.092 445.496 164.38 445.685 163.71 445.98C163.71 445.98 162 447.13 159.14 448.71C157.25 449.71 154.77 453.91 154.77 456.22C154.752 456.844 154.937 457.456 155.298 457.965C155.659 458.474 156.176 458.851 156.77 459.04L157.54 465.65C162.14 469.98 168.18 463.94 168.18 463.94C168.18 460.06 172.99 450.18 168.51 446.16C168.139 445.855 167.707 445.632 167.244 445.504C166.78 445.377 166.295 445.348 165.82 445.42Z" fill="#D1E7F4"/>
<path d="M158.3 451.22L158.24 451.29C157.35 452.29 157.24 455.13 157.58 457.93C157.93 461.09 158.37 464.93 158.37 464.93L148 463.1L145.87 465.19C145.97 465.24 155.29 468.48 156.4 468.6H156.83L157.59 468.66H158.04H158.37C158.703 468.66 159.037 468.66 159.37 468.66C164.66 468.56 162.71 456.78 162.12 453.28C161.53 449.78 159 450.59 158.3 451.22Z" fill="#FFAA83"/>
<path d="M158.3 451.22C157.593 452.054 157.153 453.082 157.04 454.17C157.303 453.615 157.701 453.136 158.197 452.774C158.693 452.413 159.272 452.181 159.88 452.1C160.389 452.106 160.889 452.231 161.341 452.465C161.792 452.7 162.183 453.037 162.48 453.45C161.88 450 159.25 450.25 158.3 451.22Z" fill="#61A1F0"/>
<path d="M160.92 432C158.02 432 155.67 433.28 155.22 436.08C155.06 437.08 155.32 438.02 155.11 439.34C154.75 441.6 156.54 444.76 158.48 446.34C158.769 446.562 159.117 446.694 159.48 446.72C160.2 446.72 166.48 443.26 166.48 440.91V437.77C166.48 437.77 166.48 437.7 166.48 437.67C166.485 436.184 165.905 434.755 164.864 433.693C163.823 432.632 162.406 432.024 160.92 432Z" fill="#FFAA83"/>
<path d="M161.79 429.33C158.11 429.33 155.15 432.4 155.15 433.59C155.15 436.16 157.51 436.45 158.67 437.24C159.99 438.13 160.2 443.01 158.1 446.71C156.47 449.6 154.53 451.5 154.79 455.84C155.71 451.5 158.65 448.99 160.41 448.99C162.49 448.99 164.27 453.48 164.27 462.76C164.27 464.54 169.86 464.95 169.86 458.34C169.86 453.72 171 441 169.16 434.98C168.648 433.403 167.669 432.018 166.353 431.01C165.037 430.001 163.446 429.415 161.79 429.33Z" fill="#713D23"/>
<path d="M147.15 460.5C146.875 460.231 146.527 460.047 146.15 459.97L144.15 459.88C144.127 460.065 144.177 460.252 144.288 460.401C144.4 460.551 144.566 460.65 144.75 460.68C144.88 460.68 146.05 460.99 146.05 460.99C146.05 460.99 146.49 461.7 146.42 461.94C146.026 462.061 145.604 462.061 145.21 461.94C144.516 461.568 143.848 461.151 143.21 460.69C143.21 460.69 142.28 460.03 142.45 461.27C142.62 462.51 142.35 462.75 142.98 463.7C143.61 464.65 145.92 465.34 145.98 465.31C146.193 465.316 146.405 465.349 146.61 465.41L148.98 463.41L148.42 462.83C148.084 462.009 147.658 461.227 147.15 460.5Z" fill="#FFAA83"/>
<path d="M329.54 412.74C328.577 413.863 327.552 414.931 326.47 415.94C325.72 416.49 324.76 417.17 325.4 417.8C326.273 418.428 327.325 418.757 328.4 418.74C329.53 418.58 332.27 416.74 332.27 416.74L332.51 415.86L332.8 416.44L334.2 415.51C334.21 415.332 334.233 415.155 334.27 414.98C334.26 414.315 334.117 413.659 333.85 413.05L329.54 412.74Z" fill="#FFBD59"/>
<path d="M322.1 410.43C321.155 411.468 320.153 412.452 319.1 413.38C318.39 413.88 317.63 414.63 318.1 415.1C318.887 415.686 319.839 416.007 320.82 416.02C322.128 415.568 323.369 414.942 324.51 414.16L324.75 413.35L325.01 413.9L326.32 413.18C326.32 413.18 326.32 413.18 326.39 412.57C326.39 411.949 326.268 411.334 326.03 410.76L322.1 410.43Z" fill="#FFBD59"/>
<path d="M321.38 411.07C321.38 411.07 321.38 411.35 323.27 411.51C324.385 411.598 325.497 411.301 326.42 410.67L328.14 367.79L319.61 370.29L321.38 411.07Z" fill="#26E0BF"/>
<path d="M328.65 412.8C329.606 413.451 330.717 413.837 331.87 413.92C332.847 413.851 333.788 413.527 334.6 412.98L335.23 370.54H325.68C326.26 375.23 328.65 412.8 328.65 412.8Z" fill="#26E0BF"/>
<path d="M312 369.17C314.1 369.93 314.58 370.74 314.64 370.82C316.38 369.23 326.49 348.87 326.64 348.41C325.64 348.25 323.5 346.02 323.42 346.02C320.08 346 312.85 366.73 312 369.17Z" fill="#FFDB5A"/>
<path d="M323.38 346C321.14 347 320.05 353 320.05 355C320.05 359.08 318.4 374.73 318.4 374.73C318.98 375.56 320.92 375.87 320.92 375.87L322.78 372.87L324.33 376.69C329 379.44 336.55 378.54 336.55 378.54C336.55 378.54 336.47 363.79 337.27 350.26C337.4 348 324.25 345.64 323.38 346Z" fill="#6E6FDA"/>
<path d="M326.33 344.25C326.698 344.797 326.876 345.449 326.837 346.107C326.797 346.765 326.541 347.392 326.11 347.89C325.03 349.38 323.42 352.03 325.11 353.04C328 354.73 332 347.5 332 347.5C331.418 345.648 331.049 343.736 330.9 341.8L326.33 344.25Z" fill="#FFAA83"/>
<path d="M325 334.81C323.87 335.4 323.67 336.7 323.45 339.66C323.234 341.988 323.862 344.317 325.22 346.22C326.11 347.22 327.84 346.39 328.1 346.22C329.404 345.038 330.589 343.732 331.64 342.32C331.64 342.32 332.64 339.6 332.04 337.79C331 334.77 326.73 333.93 325 334.81Z" fill="#FFAA83"/>
<path d="M329 334.09C328.937 335.254 328.971 336.422 329.1 337.58C329.502 338.522 330.067 339.385 330.77 340.13C330.77 340.13 332.05 339.19 332.05 340.21C332.081 340.628 331.999 341.046 331.815 341.422C331.63 341.799 331.349 342.119 331 342.35L331.09 344C332.123 342.513 332.779 340.797 333 339C333.78 333.73 329 334.09 329 334.09Z" fill="#713D23"/>
<path d="M326.87 333.83C321.46 335.08 323.46 339.88 323.46 339.88C325.2 339.531 326.882 338.942 328.46 338.13C329.322 337.524 330.028 336.722 330.52 335.79C330.259 335.072 329.742 334.475 329.069 334.114C328.396 333.752 327.613 333.651 326.87 333.83Z" fill="#713D23"/>
<path d="M337.12 434.74L313.8 420.74C313.139 420.342 312.382 420.132 311.61 420.132C310.838 420.132 310.081 420.342 309.42 420.74L274.13 442.15C273.505 442.527 272.988 443.06 272.629 443.696C272.27 444.332 272.081 445.05 272.081 445.78C272.081 446.51 272.27 447.228 272.629 447.864C272.988 448.5 273.505 449.033 274.13 449.41L297.45 463.41C298.111 463.81 298.868 464.021 299.64 464.021C300.412 464.021 301.169 463.81 301.83 463.41L337.14 442C337.764 441.621 338.28 441.087 338.637 440.45C338.994 439.813 339.181 439.095 339.179 438.364C339.177 437.634 338.986 436.917 338.626 436.282C338.265 435.647 337.746 435.116 337.12 434.74Z" fill="#D1DDFF"/>
<path d="M277.86 420.18L277.94 445.79L300.44 458.67L300.35 433.03L277.86 420.18Z" fill="#FFBD59"/>
<path d="M300.35 433.03L300.44 458.67L333.5 438.97L333.42 413.32L300.35 433.03Z" fill="#FD9C3D"/>
<path d="M277.86 420.18L300.35 433.03L333.42 413.32L310.92 400.47L277.86 420.18Z" fill="#FFDB5A"/>
<path d="M297.7 421.3V425.25C297.7 426.87 300.18 428.18 303.23 428.17C306.28 428.16 308.75 426.84 308.74 425.17V421.23L297.7 421.3Z" fill="#FFBD59"/>
<path d="M285.55 414V418C285.55 419.63 288.04 420.94 291.08 420.93C294.12 420.92 296.6 419.59 296.6 417.93V413.98L285.55 414Z" fill="#FFBD59"/>
<path d="M313.67 411.49V415.44C313.67 417.06 316.15 418.38 319.2 418.36C322.25 418.34 324.72 417.03 324.71 415.36V411.42L313.67 411.49Z" fill="#FFBD59"/>
<path d="M301.52 404.23V408.17C301.52 409.8 304 411.11 307.05 411.1C310.1 411.09 312.57 409.76 312.56 408.1V404.15L301.52 404.23Z" fill="#FFBD59"/>
<path d="M303.21 418.34C300.21 418.34 297.69 419.68 297.7 421.34C297.71 423 300.18 424.28 303.23 424.27C306.28 424.26 308.74 422.93 308.74 421.27C308.74 419.61 306.26 418.33 303.21 418.34Z" fill="#FFDB5A"/>
<path d="M291.06 411.08C288.01 411.08 285.55 412.41 285.55 414.08C285.55 415.75 288 417 291.08 417C294.16 417 296.6 415.67 296.59 414C296.58 412.33 294.11 411.06 291.06 411.08Z" fill="#FFDB5A"/>
<path d="M319.18 408.53C316.13 408.53 313.66 409.87 313.67 411.53C313.68 413.19 316.15 414.47 319.2 414.46C322.25 414.45 324.71 413.12 324.71 411.46C324.71 409.8 322.23 408.52 319.18 408.53Z" fill="#FFDB5A"/>
<path d="M307 401.27C304 401.27 301.48 402.6 301.49 404.27C301.5 405.94 303.97 407.21 307.02 407.2C310.07 407.19 312.54 405.86 312.53 404.2C312.52 402.54 310.08 401.26 307 401.27Z" fill="#FFDB5A"/>
<path d="M279.97 400.3L302.42 413.25V387.61L279.97 374.68V400.3Z" fill="#EE428C"/>
<path d="M302.36 413.14L335.24 394.05V368.32L302.36 387.5V413.14Z" fill="#BC4274"/>
<path d="M279.97 374.72L302.42 387.65L335.24 368.32L313.11 355.13L279.97 374.72Z" fill="#FF65A7"/>
<path d="M299.92 379.82C299.92 381.45 302.5 382.76 305.54 382.76C308.58 382.76 311.16 381.45 311.16 379.82V375.75H299.92V379.82Z" fill="#EE428C"/>
<path d="M315.66 370.07C315.66 371.69 318.23 373.01 321.28 373.01C324.33 373.01 326.9 371.69 326.9 370.07V366H315.66V370.07Z" fill="#EE428C"/>
<path d="M303.67 362.76C303.67 364.39 306.24 365.7 309.29 365.7C312.34 365.7 314.91 364.39 314.91 362.76V358.51H303.67V362.76Z" fill="#EE428C"/>
<path d="M305.54 373C302.44 373 299.92 374.32 299.92 376C299.92 377.68 302.44 378.94 305.54 378.94C308.64 378.94 311.16 377.63 311.16 376C311.16 374.37 308.65 373 305.54 373Z" fill="#FF65A7"/>
<path d="M287.94 372.51C287.94 374.14 290.13 375.46 293.18 375.46C296.23 375.46 298.43 374.14 298.43 372.52V368.25H287.94V372.51Z" fill="#EE428C"/>
<path d="M293.18 365.56C290.28 365.56 287.94 366.8 287.94 368.33C287.94 369.86 290.28 371.11 293.18 371.11C296.08 371.11 298.43 369.87 298.43 368.33C298.43 366.79 296.08 365.56 293.18 365.56Z" fill="#FF65A7"/>
<path d="M321.26 363.18C318.17 363.18 315.66 364.49 315.66 366.12C315.66 367.75 318.17 369.07 321.26 369.07C324.35 369.07 326.86 367.75 326.86 366.12C326.86 364.49 324.35 363.18 321.26 363.18Z" fill="#FF65A7"/>
<path d="M309.29 355.64C306.19 355.64 303.67 356.95 303.67 358.58C303.67 360.21 306.19 361.58 309.29 361.58C312.39 361.58 314.91 360.26 314.91 358.58C314.91 356.9 312.39 355.64 309.29 355.64Z" fill="#FF65A7"/>
<path d="M328.23 377C327.94 377.16 327.57 377.26 327.85 377.62C328.13 377.98 329.2 377.43 329.38 377.21C329.66 376.54 329.27 376.38 329.62 375.79C329.222 376.263 328.753 376.671 328.23 377Z" fill="#FFAA83"/>
<path d="M329.86 375.36C329.505 375.965 329.191 376.593 328.92 377.24C328.59 378.03 328.03 379.87 328 380C327.81 380.523 327.666 381.062 327.57 381.61C327.684 381.913 327.839 382.199 328.03 382.46C328.209 382.516 328.401 382.516 328.58 382.46C328.88 382.75 329.46 381.88 329.52 381.97C329.75 382.33 330.31 382.13 330.71 380.68C330.71 380.59 332.22 377.81 332.71 376.68C332.279 376.457 331.882 376.175 331.53 375.84C330.941 375.827 330.366 375.661 329.86 375.36Z" fill="#FFAA83"/>
<path d="M335 348.46C335.22 350.26 330.56 372.46 329.4 375.61C330.635 376.096 331.832 376.675 332.98 377.34C337.6 366.9 339.13 358.25 339.13 353.77C339.105 352.558 338.689 351.387 337.945 350.431C337.201 349.474 336.168 348.783 335 348.46Z" fill="#FFDB5A"/>
<path d="M154.19 383.41L130.87 369.41C130.21 369.01 129.452 368.799 128.68 368.799C127.908 368.799 127.151 369.01 126.49 369.41L91.1901 390.82C90.5648 391.198 90.0477 391.73 89.6887 392.366C89.3297 393.002 89.1411 393.72 89.1411 394.45C89.1411 395.18 89.3297 395.898 89.6887 396.534C90.0477 397.17 90.5648 397.703 91.1901 398.08L114.51 412.08C115.171 412.478 115.928 412.688 116.7 412.688C117.472 412.688 118.229 412.478 118.89 412.08L154.18 390.67C154.806 390.294 155.324 389.762 155.684 389.126C156.043 388.491 156.233 387.773 156.234 387.043C156.235 386.313 156.047 385.594 155.689 384.958C155.331 384.322 154.815 383.788 154.19 383.41Z" fill="#D1DDFF"/>
<path d="M94.9102 368.04L117.3 380.96L150.27 361.37L128.04 348.44L94.9102 368.04Z" fill="#9899EF"/>
<path d="M94.9102 393.65L117.3 406.61V380.96L94.9102 368.04V393.65Z" fill="#6E6FDA"/>
<path d="M117.3 406.61L150.27 387.02V361.37L117.3 380.96V406.61Z" fill="#2D4383"/>
<path d="M115.06 373C115.06 374.71 117.06 376.1 120.3 376.1C123.54 376.1 125.55 374.71 125.55 373V369.57H115.06V373Z" fill="#6E6FDA"/>
<path d="M102.32 365.87C102.32 367.5 104.89 368.81 107.94 368.81C110.99 368.81 113.56 367.5 113.56 365.87V362.07H102.32V365.87Z" fill="#6E6FDA"/>
<path d="M130.79 363.42C130.79 365.05 133.36 366.42 136.41 366.42C139.46 366.42 142.03 365.1 142.03 363.42V359.83H130.79V363.42Z" fill="#6E6FDA"/>
<path d="M118.8 356.11C118.8 357.74 121 359.11 124.05 359.11C127.1 359.11 129.29 357.79 129.29 356.11V352.33H118.8V356.11Z" fill="#6E6FDA"/>
<path d="M124.05 354.97C126.95 354.97 129.3 353.717 129.3 352.17C129.3 350.624 126.95 349.37 124.05 349.37C121.151 349.37 118.8 350.624 118.8 352.17C118.8 353.717 121.151 354.97 124.05 354.97Z" fill="#9899EF"/>
<path d="M120.26 366.41C117.35 366.41 114.98 367.67 114.98 369.23C114.98 370.79 117.35 372.05 120.26 372.05C123.17 372.05 125.55 370.79 125.55 369.23C125.55 367.67 123.18 366.41 120.26 366.41Z" fill="#9899EF"/>
<path d="M136.39 356.47C133.27 356.47 130.75 357.81 130.75 359.47C130.75 361.13 133.27 362.47 136.39 362.47C139.51 362.47 142.03 361.13 142.03 359.47C142.03 357.81 139.5 356.47 136.39 356.47Z" fill="#9899EF"/>
<path d="M107.94 359C104.94 359 102.42 360.32 102.42 361.94C102.42 363.56 104.89 364.94 107.94 364.94C110.99 364.94 113.46 363.62 113.46 361.94C113.46 360.26 111 359 107.94 359Z" fill="#9899EF"/>
<path d="M94.77 342.37L94.85 367.99L117.35 380.86L117.26 355.22L94.77 342.37Z" fill="#FFBD59"/>
<path d="M117.26 355.22L117.35 380.86L150.41 361.16L150.33 335.52L117.26 355.22Z" fill="#FD9C3D"/>
<path d="M94.77 342.37L117.26 355.22L150.33 335.52L127.83 322.67L94.77 342.37Z" fill="#FFDB5A"/>
<path d="M114.61 343.5V347.44C114.61 349.07 117.09 350.38 120.14 350.37C123.19 350.36 125.66 349.03 125.65 347.37V343.46L114.61 343.5Z" fill="#FFBD59"/>
<path d="M102.46 336.23V340.23C102.46 341.85 104.95 343.17 107.99 343.15C111.03 343.13 113.51 341.82 113.51 340.15V336.21L102.46 336.23Z" fill="#FFBD59"/>
<path d="M130.58 333.69V337.63C130.58 339.26 133.06 340.57 136.11 340.56C139.16 340.55 141.63 339.22 141.62 337.56V333.56L130.58 333.69Z" fill="#FFBD59"/>
<path d="M118.43 326.42V330.37C118.43 332 120.91 333.31 123.96 333.29C127.01 333.27 129.48 331.96 129.47 330.29V326.39L118.43 326.42Z" fill="#FFBD59"/>
<path d="M120.12 340.53C117.07 340.53 114.6 341.87 114.61 343.53C114.62 345.19 117.09 346.46 120.14 346.45C123.19 346.44 125.65 345.12 125.65 343.45C125.65 341.78 123.17 340.52 120.12 340.53Z" fill="#FFDB5A"/>
<path d="M108 333.27C105 333.27 102.49 334.61 102.49 336.27C102.49 337.93 104.97 339.21 108.02 339.2C111.07 339.19 113.54 337.86 113.53 336.2C113.52 334.54 111 333.26 108 333.27Z" fill="#FFDB5A"/>
<path d="M136.09 330.72C133.09 330.72 130.57 332.06 130.58 333.72C130.59 335.38 133.06 336.66 136.11 336.64C139.16 336.62 141.62 335.31 141.62 333.64C141.62 331.97 139.14 330.71 136.09 330.72Z" fill="#FFDB5A"/>
<path d="M123.94 323.46C120.94 323.46 118.42 324.8 118.43 326.46C118.44 328.12 120.91 329.4 123.96 329.39C127.01 329.38 129.48 328.05 129.47 326.39C129.46 324.73 127 323.45 123.94 323.46Z" fill="#FFDB5A"/>
<path d="M83.96 310.23L106.36 323.15L139.33 303.56L117.09 290.63L83.96 310.23Z" fill="#8EC2FE"/>
<path d="M83.96 335.84L106.36 348.8V323.15L83.96 310.23V335.84Z" fill="#60A2EF"/>
<path d="M106.36 348.8L139.33 329.21V303.56L106.36 323.15V348.8Z" fill="#367CD1"/>
<path d="M104.11 315.21C104.11 316.92 106.11 318.31 109.35 318.31C112.59 318.31 114.6 316.92 114.6 315.21V311.76H104.11V315.21Z" fill="#60A2EF"/>
<path d="M91.3701 308.06C91.3701 309.68 93.9401 311 97.0001 311C100.06 311 102.62 309.68 102.62 308.06V304.26H91.3701V308.06Z" fill="#60A2EF"/>
<path d="M119.85 305.61C119.85 307.24 122.42 308.55 125.47 308.55C128.52 308.55 131.09 307.24 131.09 305.61V302H119.85V305.61Z" fill="#60A2EF"/>
<path d="M107.86 298.3C107.86 299.93 110.05 301.25 113.1 301.25C116.15 301.25 118.35 299.93 118.35 298.3V294.52H107.86V298.3Z" fill="#60A2EF"/>
<path d="M113.1 291.56C110.21 291.56 107.86 292.81 107.86 294.36C107.86 295.91 110.21 297.16 113.1 297.16C115.99 297.16 118.35 295.9 118.35 294.36C118.35 292.82 116 291.56 113.1 291.56Z" fill="#8EC2FE"/>
<path d="M109.32 308.6C106.4 308.6 104 309.86 104 311.42C104 312.98 106.36 314.24 109.28 314.24C112.2 314.24 114.6 313 114.6 311.42C114.6 309.84 112.24 308.6 109.32 308.6Z" fill="#8EC2FE"/>
<path d="M125.44 298.66C122.33 298.66 119.8 300 119.8 301.66C119.8 303.32 122.33 304.66 125.44 304.66C128.55 304.66 131.09 303.32 131.09 301.66C131.09 300 128.56 298.66 125.44 298.66Z" fill="#8EC2FE"/>
<path d="M97.0001 301.3C93.9001 301.3 91.3801 302.62 91.3801 304.24C91.3801 305.86 93.9001 307.24 97.0001 307.24C100.1 307.24 102.62 305.92 102.62 304.24C102.62 302.56 100.1 301.3 97.0001 301.3Z" fill="#8EC2FE"/>
<path d="M366.72 468.17L343.4 454.17C342.74 453.77 341.982 453.559 341.21 453.559C340.438 453.559 339.681 453.77 339.02 454.17L303.73 475.6C303.105 475.978 302.588 476.51 302.229 477.146C301.87 477.782 301.681 478.5 301.681 479.23C301.681 479.96 301.87 480.678 302.229 481.314C302.588 481.95 303.105 482.483 303.73 482.86L327.05 496.86C327.711 497.258 328.468 497.468 329.24 497.468C330.012 497.468 330.769 497.258 331.43 496.86L366.72 475.45C367.35 475.074 367.871 474.541 368.233 473.903C368.595 473.265 368.786 472.544 368.786 471.81C368.786 471.077 368.595 470.356 368.233 469.718C367.871 469.08 367.35 468.546 366.72 468.17Z" fill="#D1DDFF"/>
<path d="M307.44 452.8L329.84 465.72L362.81 446.13L340.57 433.2L307.44 452.8Z" fill="#9899EF"/>
<path d="M307.44 478.41L329.84 491.37V465.72L307.44 452.8V478.41Z" fill="#6E6FDA"/>
<path d="M329.84 491.37L362.81 471.78V446.13L329.84 465.72V491.37Z" fill="#2D4383"/>
<path d="M327.59 457.78C327.59 459.49 329.59 460.88 332.84 460.88C336.09 460.88 338.08 459.49 338.08 457.78V454.33H327.59V457.78Z" fill="#6E6FDA"/>
<path d="M314.85 450.63C314.85 452.26 317.42 453.57 320.47 453.57C323.52 453.57 326.09 452.26 326.09 450.63V446.83H314.85V450.63Z" fill="#6E6FDA"/>
<path d="M343.33 448.18C343.33 449.81 345.9 451.13 348.95 451.13C352 451.13 354.57 449.81 354.57 448.18V444.59H343.33V448.18Z" fill="#6E6FDA"/>
<path d="M331.34 440.87C331.34 442.5 333.53 443.82 336.58 443.82C339.63 443.82 341.83 442.5 341.83 440.87V437.09H331.34V440.87Z" fill="#6E6FDA"/>
<path d="M336.58 434.13C333.69 434.13 331.34 435.38 331.34 436.93C331.34 438.48 333.69 439.73 336.58 439.73C339.47 439.73 341.83 438.47 341.83 436.93C341.83 435.39 339.48 434.13 336.58 434.13Z" fill="#9899EF"/>
<path d="M332.8 451.17C329.88 451.17 327.52 452.43 327.52 453.99C327.52 455.55 329.88 456.81 332.8 456.81C335.72 456.81 338.08 455.55 338.08 453.99C338.08 452.43 335.72 451.17 332.8 451.17Z" fill="#9899EF"/>
<path d="M348.92 447.25C352.035 447.25 354.56 445.902 354.56 444.24C354.56 442.578 352.035 441.23 348.92 441.23C345.805 441.23 343.28 442.578 343.28 444.24C343.28 445.902 345.805 447.25 348.92 447.25Z" fill="#9899EF"/>
<path d="M320.47 443.74C317.42 443.74 314.95 445.06 314.95 446.68C314.95 448.3 317.42 449.63 320.47 449.63C323.52 449.63 325.99 448.31 325.99 446.68C325.99 445.05 323.52 443.74 320.47 443.74Z" fill="#9899EF"/>
</g>
<defs>
<clipPath id="clip0">
<rect width="323.78" height="244.7" fill="white" transform="translate(45 277)"/>
</clipPath>
</defs>
</svg>
